<?xml version="1.0" encoding="UTF-8"?>
<svg xmlns="http://www.w3.org/2000/svg" xmlns:xlink="http://www.w3.org/1999/xlink" width="388" height="101" viewBox="0 0 388 101">
<path fill="none" stroke-width="0.498132" stroke-linecap="butt" stroke-linejoin="miter" stroke="rgb(0%, 0%, 0%)" stroke-opacity="1" stroke-miterlimit="10" d="M 30.75 -50.625 L 30.75 -36.378906 L 70.542969 -36.378906 L 70.542969 -64.867188 L 30.75 -64.867188 Z M 30.75 -50.625 " transform="matrix(1, 0, 0, -1, 0, 0)"/>
<path fill-rule="nonzero" fill="rgb(0%, 0%, 0%)" fill-opacity="1" d="M 42.710938 49.359375 C 42.992188 48.84375 43.476562 48.5625 43.992188 48.5625 C 44.726562 48.5625 45.320312 49.4375 45.320312 50.5625 C 45.320312 51.765625 44.632812 52.609375 43.898438 52.609375 C 43.492188 52.609375 43.117188 52.40625 42.851562 52 C 42.710938 51.796875 42.710938 51.78125 42.710938 51.578125 Z M 42.710938 52.125 C 42.757812 52.296875 43.179688 52.828125 43.929688 52.828125 C 45.117188 52.828125 46.148438 51.84375 46.148438 50.5625 C 46.148438 49.296875 45.195312 48.3125 44.070312 48.3125 C 43.289062 48.3125 42.867188 48.75 42.679688 48.96875 L 42.679688 48.3125 L 41.242188 48.421875 L 41.242188 48.734375 C 41.945312 48.734375 42.023438 48.796875 42.023438 49.234375 L 42.023438 53.890625 C 42.023438 54.34375 41.914062 54.34375 41.242188 54.34375 L 41.242188 54.65625 C 41.585938 54.640625 42.101562 54.625 42.351562 54.625 C 42.632812 54.625 43.132812 54.640625 43.476562 54.65625 L 43.476562 54.34375 C 42.820312 54.34375 42.710938 54.34375 42.710938 53.890625 Z M 42.710938 52.125 "/>
<path fill-rule="nonzero" fill="rgb(0%, 0%, 0%)" fill-opacity="1" d="M 51.425781 50.578125 C 51.425781 49.3125 50.441406 48.25 49.238281 48.25 C 47.988281 48.25 47.019531 49.34375 47.019531 50.578125 C 47.019531 51.875 48.050781 52.828125 49.222656 52.828125 C 50.425781 52.828125 51.425781 51.84375 51.425781 50.578125 Z M 49.238281 52.578125 C 48.800781 52.578125 48.363281 52.375 48.097656 51.90625 C 47.847656 51.46875 47.847656 50.859375 47.847656 50.5 C 47.847656 50.109375 47.847656 49.578125 48.082031 49.140625 C 48.347656 48.6875 48.816406 48.46875 49.222656 48.46875 C 49.660156 48.46875 50.082031 48.6875 50.347656 49.125 C 50.613281 49.546875 50.613281 50.125 50.613281 50.5 C 50.613281 50.859375 50.613281 51.40625 50.394531 51.84375 C 50.160156 52.296875 49.722656 52.578125 49.238281 52.578125 Z M 49.238281 52.578125 "/>
<path fill-rule="nonzero" fill="rgb(0%, 0%, 0%)" fill-opacity="1" d="M 55.851562 50.421875 C 56.070312 50.421875 56.101562 50.421875 56.101562 50.203125 C 56.101562 49.21875 55.554688 48.25 54.320312 48.25 C 53.164062 48.25 52.242188 49.28125 52.242188 50.53125 C 52.242188 51.859375 53.289062 52.828125 54.429688 52.828125 C 55.648438 52.828125 56.101562 51.71875 56.101562 51.53125 C 56.101562 51.4375 56.023438 51.40625 55.960938 51.40625 C 55.882812 51.40625 55.851562 51.46875 55.835938 51.546875 C 55.492188 52.578125 54.585938 52.578125 54.492188 52.578125 C 53.992188 52.578125 53.601562 52.28125 53.367188 51.90625 C 53.070312 51.4375 53.070312 50.78125 53.070312 50.421875 Z M 53.070312 50.203125 C 53.132812 48.71875 53.976562 48.46875 54.320312 48.46875 C 55.335938 48.46875 55.445312 49.8125 55.445312 50.203125 Z M 53.070312 50.203125 "/>
<path fill-rule="nonzero" fill="rgb(0%, 0%, 0%)" fill-opacity="1" d="M 58.101562 48.734375 L 59.539062 48.734375 L 59.539062 48.421875 L 58.101562 48.421875 L 58.101562 46.59375 L 57.851562 46.59375 C 57.851562 47.40625 57.554688 48.46875 56.570312 48.515625 L 56.570312 48.734375 L 57.414062 48.734375 L 57.414062 51.484375 C 57.414062 52.703125 58.351562 52.828125 58.710938 52.828125 C 59.414062 52.828125 59.695312 52.125 59.695312 51.484375 L 59.695312 50.921875 L 59.445312 50.921875 L 59.445312 51.46875 C 59.445312 52.203125 59.148438 52.578125 58.773438 52.578125 C 58.101562 52.578125 58.101562 51.671875 58.101562 51.5 Z M 58.101562 48.734375 "/>
<path fill="none" stroke-width="0.498132" stroke-linecap="butt" stroke-linejoin="miter" stroke="rgb(0%, 0%, 0%)" stroke-opacity="1" stroke-miterlimit="10" d="M 94.480469 -50.59375 L 94.480469 -63.167969 L 147.578125 -50.59375 L 94.480469 -38.019531 Z M 94.480469 -50.59375 " transform="matrix(1, 0, 0, -1, 0, 0)"/>
<path fill-rule="nonzero" fill="rgb(0%, 0%, 0%)" fill-opacity="1" d="M 103.890625 50.574219 C 104.0625 50.074219 104.375 49.933594 104.734375 49.933594 L 104.734375 49.621094 C 104.5 49.636719 104.21875 49.652344 104 49.652344 C 103.703125 49.652344 103.265625 49.636719 103.078125 49.621094 L 103.078125 49.933594 C 103.4375 49.933594 103.65625 50.121094 103.65625 50.402344 C 103.65625 50.464844 103.65625 50.496094 103.59375 50.621094 L 102.6875 53.167969 L 101.703125 50.386719 C 101.671875 50.261719 101.65625 50.246094 101.65625 50.199219 C 101.65625 49.933594 102.046875 49.933594 102.25 49.933594 L 102.25 49.621094 C 101.953125 49.636719 101.453125 49.652344 101.203125 49.652344 C 100.90625 49.652344 100.625 49.636719 100.328125 49.621094 L 100.328125 49.933594 C 100.6875 49.933594 100.84375 49.949219 100.953125 50.074219 C 101 50.136719 101.109375 50.433594 101.171875 50.621094 L 100.328125 53.042969 L 99.375 50.386719 C 99.328125 50.261719 99.328125 50.246094 99.328125 50.199219 C 99.328125 49.933594 99.71875 49.933594 99.90625 49.933594 L 99.90625 49.621094 C 99.609375 49.636719 99.046875 49.652344 98.828125 49.652344 C 98.78125 49.652344 98.25 49.636719 97.890625 49.621094 L 97.890625 49.933594 C 98.390625 49.933594 98.515625 49.964844 98.640625 50.277344 L 99.890625 53.808594 C 99.9375 53.949219 99.96875 54.027344 100.09375 54.027344 C 100.234375 54.027344 100.25 53.964844 100.296875 53.824219 L 101.3125 51.011719 L 102.328125 53.839844 C 102.359375 53.949219 102.390625 54.027344 102.53125 54.027344 C 102.65625 54.027344 102.6875 53.933594 102.71875 53.839844 Z M 103.890625 50.574219 "/>
<path fill-rule="nonzero" fill="rgb(0%, 0%, 0%)" fill-opacity="1" d="M 106.632812 53.136719 L 106.632812 51.605469 C 106.632812 50.621094 107.054688 49.730469 107.804688 49.730469 C 107.867188 49.730469 107.898438 49.730469 107.914062 49.746094 C 107.882812 49.746094 107.679688 49.871094 107.679688 50.136719 C 107.679688 50.402344 107.898438 50.558594 108.117188 50.558594 C 108.289062 50.558594 108.539062 50.433594 108.539062 50.121094 C 108.539062 49.808594 108.226562 49.511719 107.804688 49.511719 C 107.070312 49.511719 106.710938 50.183594 106.585938 50.605469 L 106.585938 49.511719 L 105.195312 49.621094 L 105.195312 49.933594 C 105.898438 49.933594 105.976562 49.996094 105.976562 50.496094 L 105.976562 53.167969 C 105.976562 53.605469 105.867188 53.605469 105.195312 53.605469 L 105.195312 53.917969 C 105.585938 53.902344 106.054688 53.886719 106.335938 53.886719 C 106.726562 53.886719 107.195312 53.886719 107.601562 53.917969 L 107.601562 53.605469 L 107.382812 53.605469 C 106.648438 53.605469 106.632812 53.496094 106.632812 53.136719 Z M 106.632812 53.136719 "/>
<path fill-rule="nonzero" fill="rgb(0%, 0%, 0%)" fill-opacity="1" d="M 110.582031 49.511719 L 109.191406 49.621094 L 109.191406 49.933594 C 109.832031 49.933594 109.925781 49.996094 109.925781 50.480469 L 109.925781 53.167969 C 109.925781 53.605469 109.816406 53.605469 109.144531 53.605469 L 109.144531 53.917969 C 109.457031 53.902344 110.003906 53.886719 110.238281 53.886719 C 110.597656 53.886719 110.941406 53.902344 111.285156 53.917969 L 111.285156 53.605469 C 110.613281 53.605469 110.582031 53.558594 110.582031 53.167969 Z M 110.613281 47.777344 C 110.613281 47.464844 110.378906 47.246094 110.097656 47.246094 C 109.785156 47.246094 109.566406 47.511719 109.566406 47.777344 C 109.566406 48.042969 109.785156 48.308594 110.097656 48.308594 C 110.378906 48.308594 110.613281 48.089844 110.613281 47.777344 Z M 110.613281 47.777344 "/>
<path fill-rule="nonzero" fill="rgb(0%, 0%, 0%)" fill-opacity="1" d="M 113.308594 49.933594 L 114.746094 49.933594 L 114.746094 49.621094 L 113.308594 49.621094 L 113.308594 47.792969 L 113.058594 47.792969 C 113.058594 48.605469 112.761719 49.667969 111.777344 49.714844 L 111.777344 49.933594 L 112.621094 49.933594 L 112.621094 52.683594 C 112.621094 53.902344 113.558594 54.027344 113.917969 54.027344 C 114.621094 54.027344 114.902344 53.324219 114.902344 52.683594 L 114.902344 52.121094 L 114.652344 52.121094 L 114.652344 52.667969 C 114.652344 53.402344 114.355469 53.777344 113.980469 53.777344 C 113.308594 53.777344 113.308594 52.871094 113.308594 52.699219 Z M 113.308594 49.933594 "/>
<path fill-rule="nonzero" fill="rgb(0%, 0%, 0%)" fill-opacity="1" d="M 119.355469 51.621094 C 119.574219 51.621094 119.605469 51.621094 119.605469 51.402344 C 119.605469 50.417969 119.058594 49.449219 117.824219 49.449219 C 116.667969 49.449219 115.746094 50.480469 115.746094 51.730469 C 115.746094 53.058594 116.792969 54.027344 117.933594 54.027344 C 119.152344 54.027344 119.605469 52.917969 119.605469 52.730469 C 119.605469 52.636719 119.527344 52.605469 119.464844 52.605469 C 119.386719 52.605469 119.355469 52.667969 119.339844 52.746094 C 118.996094 53.777344 118.089844 53.777344 117.996094 53.777344 C 117.496094 53.777344 117.105469 53.480469 116.871094 53.105469 C 116.574219 52.636719 116.574219 51.980469 116.574219 51.621094 Z M 116.574219 51.402344 C 116.636719 49.917969 117.480469 49.667969 117.824219 49.667969 C 118.839844 49.667969 118.949219 51.011719 118.949219 51.402344 Z M 116.574219 51.402344 "/>
<path fill="none" stroke-width="0.498132" stroke-linecap="butt" stroke-linejoin="miter" stroke="rgb(0%, 0%, 0%)" stroke-opacity="1" stroke-miterlimit="10" d="M 200.757812 -50.585938 C 200.757812 -42.003906 193.800781 -35.046875 185.21875 -35.046875 C 176.640625 -35.046875 169.683594 -42.003906 169.683594 -50.585938 C 169.683594 -59.164062 176.640625 -66.121094 185.21875 -66.121094 C 193.800781 -66.121094 200.757812 -59.164062 200.757812 -50.585938 Z M 200.757812 -50.585938 " transform="matrix(1, 0, 0, -1, 0, 0)"/>
<path fill-rule="nonzero" fill="rgb(0%, 0%, 0%)" fill-opacity="1" d="M 175.070312 48.402344 C 175.351562 47.886719 175.835938 47.605469 176.351562 47.605469 C 177.085938 47.605469 177.679688 48.480469 177.679688 49.605469 C 177.679688 50.808594 176.992188 51.652344 176.257812 51.652344 C 175.851562 51.652344 175.476562 51.449219 175.210938 51.042969 C 175.070312 50.839844 175.070312 50.824219 175.070312 50.621094 Z M 175.070312 51.167969 C 175.117188 51.339844 175.539062 51.871094 176.289062 51.871094 C 177.476562 51.871094 178.507812 50.886719 178.507812 49.605469 C 178.507812 48.339844 177.554688 47.355469 176.429688 47.355469 C 175.648438 47.355469 175.226562 47.792969 175.039062 48.011719 L 175.039062 47.355469 L 173.601562 47.464844 L 173.601562 47.777344 C 174.304688 47.777344 174.382812 47.839844 174.382812 48.277344 L 174.382812 52.933594 C 174.382812 53.386719 174.273438 53.386719 173.601562 53.386719 L 173.601562 53.699219 C 173.945312 53.683594 174.460938 53.667969 174.710938 53.667969 C 174.992188 53.667969 175.492188 53.683594 175.835938 53.699219 L 175.835938 53.386719 C 175.179688 53.386719 175.070312 53.386719 175.070312 52.933594 Z M 175.070312 51.167969 "/>
<path fill-rule="nonzero" fill="rgb(0%, 0%, 0%)" fill-opacity="1" d="M 183.785156 49.621094 C 183.785156 48.355469 182.800781 47.292969 181.597656 47.292969 C 180.347656 47.292969 179.378906 48.386719 179.378906 49.621094 C 179.378906 50.917969 180.410156 51.871094 181.582031 51.871094 C 182.785156 51.871094 183.785156 50.886719 183.785156 49.621094 Z M 181.597656 51.621094 C 181.160156 51.621094 180.722656 51.417969 180.457031 50.949219 C 180.207031 50.511719 180.207031 49.902344 180.207031 49.542969 C 180.207031 49.152344 180.207031 48.621094 180.441406 48.183594 C 180.707031 47.730469 181.175781 47.511719 181.582031 47.511719 C 182.019531 47.511719 182.441406 47.730469 182.707031 48.167969 C 182.972656 48.589844 182.972656 49.167969 182.972656 49.542969 C 182.972656 49.902344 182.972656 50.449219 182.753906 50.886719 C 182.519531 51.339844 182.082031 51.621094 181.597656 51.621094 Z M 181.597656 51.621094 "/>
<path fill-rule="nonzero" fill="rgb(0%, 0%, 0%)" fill-opacity="1" d="M 188.210938 49.464844 C 188.429688 49.464844 188.460938 49.464844 188.460938 49.246094 C 188.460938 48.261719 187.914062 47.292969 186.679688 47.292969 C 185.523438 47.292969 184.601562 48.324219 184.601562 49.574219 C 184.601562 50.902344 185.648438 51.871094 186.789062 51.871094 C 188.007812 51.871094 188.460938 50.761719 188.460938 50.574219 C 188.460938 50.480469 188.382812 50.449219 188.320312 50.449219 C 188.242188 50.449219 188.210938 50.511719 188.195312 50.589844 C 187.851562 51.621094 186.945312 51.621094 186.851562 51.621094 C 186.351562 51.621094 185.960938 51.324219 185.726562 50.949219 C 185.429688 50.480469 185.429688 49.824219 185.429688 49.464844 Z M 185.429688 49.246094 C 185.492188 47.761719 186.335938 47.511719 186.679688 47.511719 C 187.695312 47.511719 187.804688 48.855469 187.804688 49.246094 Z M 185.429688 49.246094 "/>
<path fill-rule="nonzero" fill="rgb(0%, 0%, 0%)" fill-opacity="1" d="M 189.835938 48.339844 L 189.835938 51.011719 C 189.835938 51.449219 189.726562 51.449219 189.054688 51.449219 L 189.054688 51.761719 C 189.414062 51.746094 189.914062 51.730469 190.195312 51.730469 C 190.445312 51.730469 190.960938 51.746094 191.304688 51.761719 L 191.304688 51.449219 C 190.632812 51.449219 190.523438 51.449219 190.523438 51.011719 L 190.523438 49.167969 C 190.523438 48.136719 191.242188 47.574219 191.867188 47.574219 C 192.507812 47.574219 192.617188 48.105469 192.617188 48.683594 L 192.617188 51.011719 C 192.617188 51.449219 192.507812 51.449219 191.835938 51.449219 L 191.835938 51.761719 C 192.179688 51.746094 192.695312 51.730469 192.960938 51.730469 C 193.210938 51.730469 193.742188 51.746094 194.070312 51.761719 L 194.070312 51.449219 C 193.414062 51.449219 193.304688 51.449219 193.304688 51.011719 L 193.304688 49.167969 C 193.304688 48.136719 194.007812 47.574219 194.648438 47.574219 C 195.273438 47.574219 195.382812 48.105469 195.382812 48.683594 L 195.382812 51.011719 C 195.382812 51.449219 195.273438 51.449219 194.601562 51.449219 L 194.601562 51.761719 C 194.945312 51.746094 195.460938 51.730469 195.726562 51.730469 C 195.992188 51.730469 196.507812 51.746094 196.851562 51.761719 L 196.851562 51.449219 C 196.335938 51.449219 196.085938 51.449219 196.070312 51.152344 L 196.070312 49.246094 C 196.070312 48.386719 196.070312 48.089844 195.757812 47.730469 C 195.617188 47.558594 195.289062 47.355469 194.710938 47.355469 C 193.882812 47.355469 193.429688 47.949219 193.273438 48.339844 C 193.132812 47.464844 192.398438 47.355469 191.945312 47.355469 C 191.210938 47.355469 190.742188 47.777344 190.460938 48.402344 L 190.460938 47.355469 L 189.054688 47.464844 L 189.054688 47.777344 C 189.757812 47.777344 189.835938 47.839844 189.835938 48.339844 Z M 189.835938 48.339844 "/>
<path fill="none" stroke-width="0.498132" stroke-linecap="butt" stroke-linejoin="miter" stroke="rgb(0%, 0%, 0%)" stroke-opacity="1" stroke-miterlimit="10" d="M 268.363281 -50.582031 L 268.363281 -37.753906 L 221.769531 -50.582031 L 268.363281 -63.410156 Z M 268.363281 -50.582031 " transform="matrix(1, 0, 0, -1, 0, 0)"/>
<path fill-rule="nonzero" fill="rgb(0%, 0%, 0%)" fill-opacity="1" d="M 248 53.257812 L 248 51.726562 C 248 50.742188 248.421875 49.851562 249.171875 49.851562 C 249.234375 49.851562 249.265625 49.851562 249.28125 49.867188 C 249.25 49.867188 249.046875 49.992188 249.046875 50.257812 C 249.046875 50.523438 249.265625 50.679688 249.484375 50.679688 C 249.65625 50.679688 249.90625 50.554688 249.90625 50.242188 C 249.90625 49.929688 249.59375 49.632812 249.171875 49.632812 C 248.4375 49.632812 248.078125 50.304688 247.953125 50.726562 L 247.953125 49.632812 L 246.5625 49.742188 L 246.5625 50.054688 C 247.265625 50.054688 247.34375 50.117188 247.34375 50.617188 L 247.34375 53.289062 C 247.34375 53.726562 247.234375 53.726562 246.5625 53.726562 L 246.5625 54.039062 C 246.953125 54.023438 247.421875 54.007812 247.703125 54.007812 C 248.09375 54.007812 248.5625 54.007812 248.96875 54.039062 L 248.96875 53.726562 L 248.75 53.726562 C 248.015625 53.726562 248 53.617188 248 53.257812 Z M 248 53.257812 "/>
<path fill-rule="nonzero" fill="rgb(0%, 0%, 0%)" fill-opacity="1" d="M 254.074219 51.742188 C 254.292969 51.742188 254.324219 51.742188 254.324219 51.523438 C 254.324219 50.539062 253.777344 49.570312 252.542969 49.570312 C 251.386719 49.570312 250.464844 50.601562 250.464844 51.851562 C 250.464844 53.179688 251.511719 54.148438 252.652344 54.148438 C 253.871094 54.148438 254.324219 53.039062 254.324219 52.851562 C 254.324219 52.757812 254.246094 52.726562 254.183594 52.726562 C 254.105469 52.726562 254.074219 52.789062 254.058594 52.867188 C 253.714844 53.898438 252.808594 53.898438 252.714844 53.898438 C 252.214844 53.898438 251.824219 53.601562 251.589844 53.226562 C 251.292969 52.757812 251.292969 52.101562 251.292969 51.742188 Z M 251.292969 51.523438 C 251.355469 50.039062 252.199219 49.789062 252.542969 49.789062 C 253.558594 49.789062 253.667969 51.132812 253.667969 51.523438 Z M 251.292969 51.523438 "/>
<path fill-rule="nonzero" fill="rgb(0%, 0%, 0%)" fill-opacity="1" d="M 257.921875 53.289062 C 257.96875 53.679688 258.234375 54.101562 258.703125 54.101562 C 258.921875 54.101562 259.53125 53.960938 259.53125 53.148438 L 259.53125 52.585938 L 259.28125 52.585938 L 259.28125 53.148438 C 259.28125 53.726562 259.03125 53.789062 258.921875 53.789062 C 258.59375 53.789062 258.546875 53.335938 258.546875 53.289062 L 258.546875 51.304688 C 258.546875 50.882812 258.546875 50.492188 258.1875 50.117188 C 257.796875 49.726562 257.296875 49.570312 256.828125 49.570312 C 256 49.570312 255.3125 50.039062 255.3125 50.695312 C 255.3125 50.992188 255.515625 51.164062 255.78125 51.164062 C 256.0625 51.164062 256.234375 50.960938 256.234375 50.710938 C 256.234375 50.585938 256.1875 50.257812 255.71875 50.257812 C 256 49.898438 256.484375 49.789062 256.796875 49.789062 C 257.296875 49.789062 257.859375 50.179688 257.859375 51.070312 L 257.859375 51.429688 C 257.34375 51.460938 256.65625 51.492188 256.03125 51.789062 C 255.28125 52.132812 255.03125 52.648438 255.03125 53.085938 C 255.03125 53.898438 256 54.148438 256.625 54.148438 C 257.28125 54.148438 257.734375 53.742188 257.921875 53.289062 Z M 257.859375 51.648438 L 257.859375 52.648438 C 257.859375 53.585938 257.140625 53.929688 256.6875 53.929688 C 256.203125 53.929688 255.796875 53.585938 255.796875 53.085938 C 255.796875 52.539062 256.21875 51.710938 257.859375 51.648438 Z M 257.859375 51.648438 "/>
<path fill-rule="nonzero" fill="rgb(0%, 0%, 0%)" fill-opacity="1" d="M 263.371094 53.492188 L 263.371094 54.148438 L 264.839844 54.039062 L 264.839844 53.726562 C 264.152344 53.726562 264.058594 53.664062 264.058594 53.164062 L 264.058594 47.117188 L 262.636719 47.226562 L 262.636719 47.539062 C 263.324219 47.539062 263.402344 47.601562 263.402344 48.101562 L 263.402344 50.257812 C 263.121094 49.898438 262.683594 49.632812 262.152344 49.632812 C 260.980469 49.632812 259.933594 50.617188 259.933594 51.898438 C 259.933594 53.164062 260.902344 54.148438 262.042969 54.148438 C 262.683594 54.148438 263.121094 53.804688 263.371094 53.492188 Z M 263.371094 50.820312 L 263.371094 52.867188 C 263.371094 53.039062 263.371094 53.054688 263.261719 53.226562 C 262.964844 53.710938 262.527344 53.929688 262.089844 53.929688 C 261.636719 53.929688 261.277344 53.664062 261.042969 53.289062 C 260.792969 52.882812 260.761719 52.320312 260.761719 51.898438 C 260.761719 51.539062 260.777344 50.945312 261.058594 50.492188 C 261.277344 50.179688 261.652344 49.851562 262.199219 49.851562 C 262.542969 49.851562 262.964844 50.007812 263.261719 50.445312 C 263.371094 50.617188 263.371094 50.632812 263.371094 50.820312 Z M 263.371094 50.820312 "/>
<path fill="none" stroke-width="0.498132" stroke-linecap="butt" stroke-linejoin="miter" stroke="rgb(0%, 0%, 0%)" stroke-opacity="1" stroke-miterlimit="10" d="M 283.707031 -50.582031 L 283.707031 -36.910156 L 361.75 -36.910156 L 361.75 -64.25 L 283.707031 -64.25 Z M 283.707031 -50.582031 " transform="matrix(1, 0, 0, -1, 0, 0)"/>
<path fill-rule="nonzero" fill="rgb(0%, 0%, 0%)" fill-opacity="1" d="M 295.015625 50.617188 L 295.015625 53.289062 C 295.015625 53.726562 294.90625 53.726562 294.234375 53.726562 L 294.234375 54.039062 C 294.59375 54.023438 295.09375 54.007812 295.375 54.007812 C 295.625 54.007812 296.140625 54.023438 296.484375 54.039062 L 296.484375 53.726562 C 295.8125 53.726562 295.703125 53.726562 295.703125 53.289062 L 295.703125 51.445312 C 295.703125 50.414062 296.421875 49.851562 297.046875 49.851562 C 297.6875 49.851562 297.796875 50.382812 297.796875 50.960938 L 297.796875 53.289062 C 297.796875 53.726562 297.6875 53.726562 297.015625 53.726562 L 297.015625 54.039062 C 297.359375 54.023438 297.875 54.007812 298.140625 54.007812 C 298.390625 54.007812 298.921875 54.023438 299.25 54.039062 L 299.25 53.726562 C 298.734375 53.726562 298.484375 53.726562 298.484375 53.429688 L 298.484375 51.523438 C 298.484375 50.664062 298.484375 50.367188 298.171875 50.007812 C 298.03125 49.835938 297.703125 49.632812 297.125 49.632812 C 296.390625 49.632812 295.921875 50.054688 295.640625 50.679688 L 295.640625 49.632812 L 294.234375 49.742188 L 294.234375 50.054688 C 294.9375 50.054688 295.015625 50.117188 295.015625 50.617188 Z M 295.015625 50.617188 "/>
<path fill-rule="nonzero" fill="rgb(0%, 0%, 0%)" fill-opacity="1" d="M 304.148438 51.898438 C 304.148438 50.632812 303.164062 49.570312 301.960938 49.570312 C 300.710938 49.570312 299.742188 50.664062 299.742188 51.898438 C 299.742188 53.195312 300.773438 54.148438 301.945312 54.148438 C 303.148438 54.148438 304.148438 53.164062 304.148438 51.898438 Z M 301.960938 53.898438 C 301.523438 53.898438 301.085938 53.695312 300.820312 53.226562 C 300.570312 52.789062 300.570312 52.179688 300.570312 51.820312 C 300.570312 51.429688 300.570312 50.898438 300.804688 50.460938 C 301.070312 50.007812 301.539062 49.789062 301.945312 49.789062 C 302.382812 49.789062 302.804688 50.007812 303.070312 50.445312 C 303.335938 50.867188 303.335938 51.445312 303.335938 51.820312 C 303.335938 52.179688 303.335938 52.726562 303.117188 53.164062 C 302.882812 53.617188 302.445312 53.898438 301.960938 53.898438 Z M 301.960938 53.898438 "/>
<path fill-rule="nonzero" fill="rgb(0%, 0%, 0%)" fill-opacity="1" d="M 308.339844 50.726562 C 308.433594 50.492188 308.605469 50.054688 309.261719 50.054688 L 309.261719 49.742188 C 309.027344 49.757812 308.746094 49.773438 308.511719 49.773438 C 308.277344 49.773438 307.824219 49.757812 307.652344 49.742188 L 307.652344 50.054688 C 308.011719 50.054688 308.121094 50.289062 308.121094 50.476562 C 308.121094 50.570312 308.105469 50.617188 308.074219 50.726562 L 307.042969 53.257812 L 305.933594 50.476562 C 305.871094 50.351562 305.871094 50.335938 305.871094 50.304688 C 305.871094 50.054688 306.261719 50.054688 306.449219 50.054688 L 306.449219 49.742188 C 306.136719 49.757812 305.589844 49.773438 305.355469 49.773438 C 305.089844 49.773438 304.683594 49.757812 304.386719 49.742188 L 304.386719 50.054688 C 305.011719 50.054688 305.058594 50.117188 305.183594 50.414062 L 306.621094 53.960938 C 306.683594 54.101562 306.699219 54.148438 306.824219 54.148438 C 306.964844 54.148438 306.996094 54.054688 307.042969 53.960938 Z M 308.339844 50.726562 "/>
<path fill-rule="nonzero" fill="rgb(0%, 0%, 0%)" fill-opacity="1" d="M 311.226562 49.632812 L 309.835938 49.742188 L 309.835938 50.054688 C 310.476562 50.054688 310.570312 50.117188 310.570312 50.601562 L 310.570312 53.289062 C 310.570312 53.726562 310.460938 53.726562 309.789062 53.726562 L 309.789062 54.039062 C 310.101562 54.023438 310.648438 54.007812 310.882812 54.007812 C 311.242188 54.007812 311.585938 54.023438 311.929688 54.039062 L 311.929688 53.726562 C 311.257812 53.726562 311.226562 53.679688 311.226562 53.289062 Z M 311.257812 47.898438 C 311.257812 47.585938 311.023438 47.367188 310.742188 47.367188 C 310.429688 47.367188 310.210938 47.632812 310.210938 47.898438 C 310.210938 48.164062 310.429688 48.429688 310.742188 48.429688 C 311.023438 48.429688 311.257812 48.210938 311.257812 47.898438 Z M 311.257812 47.898438 "/>
<path fill-rule="nonzero" fill="rgb(0%, 0%, 0%)" fill-opacity="1" d="M 315.808594 50.195312 C 315.402344 50.226562 315.339844 50.523438 315.339844 50.648438 C 315.339844 50.914062 315.527344 51.101562 315.792969 51.101562 C 316.058594 51.101562 316.261719 50.945312 316.261719 50.632812 C 316.261719 49.960938 315.496094 49.570312 314.730469 49.570312 C 313.480469 49.570312 312.574219 50.648438 312.574219 51.882812 C 312.574219 53.164062 313.558594 54.148438 314.714844 54.148438 C 316.042969 54.148438 316.371094 52.945312 316.371094 52.851562 C 316.371094 52.757812 316.261719 52.757812 316.230469 52.757812 C 316.152344 52.757812 316.121094 52.789062 316.105469 52.851562 C 315.824219 53.773438 315.167969 53.898438 314.808594 53.898438 C 314.277344 53.898438 313.402344 53.476562 313.402344 51.867188 C 313.402344 50.242188 314.214844 49.820312 314.746094 49.820312 C 314.839844 49.820312 315.464844 49.835938 315.808594 50.195312 Z M 315.808594 50.195312 "/>
<path fill-rule="nonzero" fill="rgb(0%, 0%, 0%)" fill-opacity="1" d="M 320.542969 51.742188 C 320.761719 51.742188 320.792969 51.742188 320.792969 51.523438 C 320.792969 50.539062 320.246094 49.570312 319.011719 49.570312 C 317.855469 49.570312 316.933594 50.601562 316.933594 51.851562 C 316.933594 53.179688 317.980469 54.148438 319.121094 54.148438 C 320.339844 54.148438 320.792969 53.039062 320.792969 52.851562 C 320.792969 52.757812 320.714844 52.726562 320.652344 52.726562 C 320.574219 52.726562 320.542969 52.789062 320.527344 52.867188 C 320.183594 53.898438 319.277344 53.898438 319.183594 53.898438 C 318.683594 53.898438 318.292969 53.601562 318.058594 53.226562 C 317.761719 52.757812 317.761719 52.101562 317.761719 51.742188 Z M 317.761719 51.523438 C 317.824219 50.039062 318.667969 49.789062 319.011719 49.789062 C 320.027344 49.789062 320.136719 51.132812 320.136719 51.523438 Z M 317.761719 51.523438 "/>
<path fill-rule="nonzero" fill="rgb(0%, 0%, 0%)" fill-opacity="1" d="M 326.117188 53.257812 L 326.117188 51.726562 C 326.117188 50.742188 326.539062 49.851562 327.289062 49.851562 C 327.351562 49.851562 327.382812 49.851562 327.398438 49.867188 C 327.367188 49.867188 327.164062 49.992188 327.164062 50.257812 C 327.164062 50.523438 327.382812 50.679688 327.601562 50.679688 C 327.773438 50.679688 328.023438 50.554688 328.023438 50.242188 C 328.023438 49.929688 327.710938 49.632812 327.289062 49.632812 C 326.554688 49.632812 326.195312 50.304688 326.070312 50.726562 L 326.070312 49.632812 L 324.679688 49.742188 L 324.679688 50.054688 C 325.382812 50.054688 325.460938 50.117188 325.460938 50.617188 L 325.460938 53.289062 C 325.460938 53.726562 325.351562 53.726562 324.679688 53.726562 L 324.679688 54.039062 C 325.070312 54.023438 325.539062 54.007812 325.820312 54.007812 C 326.210938 54.007812 326.679688 54.007812 327.085938 54.039062 L 327.085938 53.726562 L 326.867188 53.726562 C 326.132812 53.726562 326.117188 53.617188 326.117188 53.257812 Z M 326.117188 53.257812 "/>
<path fill-rule="nonzero" fill="rgb(0%, 0%, 0%)" fill-opacity="1" d="M 332.195312 51.742188 C 332.414062 51.742188 332.445312 51.742188 332.445312 51.523438 C 332.445312 50.539062 331.898438 49.570312 330.664062 49.570312 C 329.507812 49.570312 328.585938 50.601562 328.585938 51.851562 C 328.585938 53.179688 329.632812 54.148438 330.773438 54.148438 C 331.992188 54.148438 332.445312 53.039062 332.445312 52.851562 C 332.445312 52.757812 332.367188 52.726562 332.304688 52.726562 C 332.226562 52.726562 332.195312 52.789062 332.179688 52.867188 C 331.835938 53.898438 330.929688 53.898438 330.835938 53.898438 C 330.335938 53.898438 329.945312 53.601562 329.710938 53.226562 C 329.414062 52.757812 329.414062 52.101562 329.414062 51.742188 Z M 329.414062 51.523438 C 329.476562 50.039062 330.320312 49.789062 330.664062 49.789062 C 331.679688 49.789062 331.789062 51.132812 331.789062 51.523438 Z M 329.414062 51.523438 "/>
<path fill-rule="nonzero" fill="rgb(0%, 0%, 0%)" fill-opacity="1" d="M 336.042969 53.289062 C 336.089844 53.679688 336.355469 54.101562 336.824219 54.101562 C 337.042969 54.101562 337.652344 53.960938 337.652344 53.148438 L 337.652344 52.585938 L 337.402344 52.585938 L 337.402344 53.148438 C 337.402344 53.726562 337.152344 53.789062 337.042969 53.789062 C 336.714844 53.789062 336.667969 53.335938 336.667969 53.289062 L 336.667969 51.304688 C 336.667969 50.882812 336.667969 50.492188 336.308594 50.117188 C 335.917969 49.726562 335.417969 49.570312 334.949219 49.570312 C 334.121094 49.570312 333.433594 50.039062 333.433594 50.695312 C 333.433594 50.992188 333.636719 51.164062 333.902344 51.164062 C 334.183594 51.164062 334.355469 50.960938 334.355469 50.710938 C 334.355469 50.585938 334.308594 50.257812 333.839844 50.257812 C 334.121094 49.898438 334.605469 49.789062 334.917969 49.789062 C 335.417969 49.789062 335.980469 50.179688 335.980469 51.070312 L 335.980469 51.429688 C 335.464844 51.460938 334.777344 51.492188 334.152344 51.789062 C 333.402344 52.132812 333.152344 52.648438 333.152344 53.085938 C 333.152344 53.898438 334.121094 54.148438 334.746094 54.148438 C 335.402344 54.148438 335.855469 53.742188 336.042969 53.289062 Z M 335.980469 51.648438 L 335.980469 52.648438 C 335.980469 53.585938 335.261719 53.929688 334.808594 53.929688 C 334.324219 53.929688 333.917969 53.585938 333.917969 53.085938 C 333.917969 52.539062 334.339844 51.710938 335.980469 51.648438 Z M 335.980469 51.648438 "/>
<path fill-rule="nonzero" fill="rgb(0%, 0%, 0%)" fill-opacity="1" d="M 341.492188 53.492188 L 341.492188 54.148438 L 342.960938 54.039062 L 342.960938 53.726562 C 342.273438 53.726562 342.179688 53.664062 342.179688 53.164062 L 342.179688 47.117188 L 340.757812 47.226562 L 340.757812 47.539062 C 341.445312 47.539062 341.523438 47.601562 341.523438 48.101562 L 341.523438 50.257812 C 341.242188 49.898438 340.804688 49.632812 340.273438 49.632812 C 339.101562 49.632812 338.054688 50.617188 338.054688 51.898438 C 338.054688 53.164062 339.023438 54.148438 340.164062 54.148438 C 340.804688 54.148438 341.242188 53.804688 341.492188 53.492188 Z M 341.492188 50.820312 L 341.492188 52.867188 C 341.492188 53.039062 341.492188 53.054688 341.382812 53.226562 C 341.085938 53.710938 340.648438 53.929688 340.210938 53.929688 C 339.757812 53.929688 339.398438 53.664062 339.164062 53.289062 C 338.914062 52.882812 338.882812 52.320312 338.882812 51.898438 C 338.882812 51.539062 338.898438 50.945312 339.179688 50.492188 C 339.398438 50.179688 339.773438 49.851562 340.320312 49.851562 C 340.664062 49.851562 341.085938 50.007812 341.382812 50.445312 C 341.492188 50.617188 341.492188 50.632812 341.492188 50.820312 Z M 341.492188 50.820312 "/>
<path fill-rule="nonzero" fill="rgb(0%, 0%, 0%)" fill-opacity="1" d="M 347.140625 51.742188 C 347.359375 51.742188 347.390625 51.742188 347.390625 51.523438 C 347.390625 50.539062 346.84375 49.570312 345.609375 49.570312 C 344.453125 49.570312 343.53125 50.601562 343.53125 51.851562 C 343.53125 53.179688 344.578125 54.148438 345.71875 54.148438 C 346.9375 54.148438 347.390625 53.039062 347.390625 52.851562 C 347.390625 52.757812 347.3125 52.726562 347.25 52.726562 C 347.171875 52.726562 347.140625 52.789062 347.125 52.867188 C 346.78125 53.898438 345.875 53.898438 345.78125 53.898438 C 345.28125 53.898438 344.890625 53.601562 344.65625 53.226562 C 344.359375 52.757812 344.359375 52.101562 344.359375 51.742188 Z M 344.359375 51.523438 C 344.421875 50.039062 345.265625 49.789062 345.609375 49.789062 C 346.625 49.789062 346.734375 51.132812 346.734375 51.523438 Z M 344.359375 51.523438 "/>
<path fill-rule="nonzero" fill="rgb(0%, 0%, 0%)" fill-opacity="1" d="M 349.390625 53.257812 L 349.390625 51.726562 C 349.390625 50.742188 349.8125 49.851562 350.5625 49.851562 C 350.625 49.851562 350.65625 49.851562 350.671875 49.867188 C 350.640625 49.867188 350.4375 49.992188 350.4375 50.257812 C 350.4375 50.523438 350.65625 50.679688 350.875 50.679688 C 351.046875 50.679688 351.296875 50.554688 351.296875 50.242188 C 351.296875 49.929688 350.984375 49.632812 350.5625 49.632812 C 349.828125 49.632812 349.46875 50.304688 349.34375 50.726562 L 349.34375 49.632812 L 347.953125 49.742188 L 347.953125 50.054688 C 348.65625 50.054688 348.734375 50.117188 348.734375 50.617188 L 348.734375 53.289062 C 348.734375 53.726562 348.625 53.726562 347.953125 53.726562 L 347.953125 54.039062 C 348.34375 54.023438 348.8125 54.007812 349.09375 54.007812 C 349.484375 54.007812 349.953125 54.007812 350.359375 54.039062 L 350.359375 53.726562 L 350.140625 53.726562 C 349.40625 53.726562 349.390625 53.617188 349.390625 53.257812 Z M 349.390625 53.257812 "/>
<path fill-rule="nonzero" fill="rgb(0%, 0%, 0%)" fill-opacity="1" d="M 90.746094 51.847656 L 94.234375 50.601562 L 90.746094 49.355469 L 92.140625 50.601562 "/>
<path fill="none" stroke-width="0.498132" stroke-linecap="butt" stroke-linejoin="miter" stroke="rgb(0%, 0%, 0%)" stroke-opacity="1" stroke-miterlimit="10" d="M 70.695312 -50.613281 L 92.140625 -50.601562 " transform="matrix(1, 0, 0, -1, 0, 0)"/>
<path fill-rule="nonzero" fill="rgb(0%, 0%, 0%)" fill-opacity="1" d="M 165.945312 51.832031 L 169.433594 50.585938 L 165.945312 49.339844 L 167.339844 50.585938 "/>
<path fill="none" stroke-width="0.498132" stroke-linecap="butt" stroke-linejoin="miter" stroke="rgb(0%, 0%, 0%)" stroke-opacity="1" stroke-miterlimit="10" d="M 148.636719 -50.589844 L 167.339844 -50.585938 " transform="matrix(1, 0, 0, -1, 0, 0)"/>
<path fill-rule="nonzero" fill="rgb(0%, 0%, 0%)" fill-opacity="1" d="M 217.347656 51.828125 L 220.835938 50.582031 L 217.347656 49.335938 L 218.742188 50.582031 "/>
<path fill="none" stroke-width="0.498132" stroke-linecap="butt" stroke-linejoin="miter" stroke="rgb(0%, 0%, 0%)" stroke-opacity="1" stroke-miterlimit="10" d="M 201.007812 -50.582031 L 218.742188 -50.582031 " transform="matrix(1, 0, 0, -1, 0, 0)"/>
<path fill-rule="nonzero" fill="rgb(0%, 0%, 0%)" fill-opacity="1" d="M 279.992188 51.828125 L 283.480469 50.582031 L 279.992188 49.335938 L 281.386719 50.582031 "/>
<path fill="none" stroke-width="0.498132" stroke-linecap="butt" stroke-linejoin="miter" stroke="rgb(0%, 0%, 0%)" stroke-opacity="1" stroke-miterlimit="10" d="M 268.613281 -50.582031 L 281.386719 -50.582031 " transform="matrix(1, 0, 0, -1, 0, 0)"/>
<path fill="none" stroke-width="0.498132" stroke-linecap="butt" stroke-linejoin="miter" stroke="rgb(0%, 0%, 0%)" stroke-opacity="1" stroke-miterlimit="10" d="M 206.261719 -50.632812 C 206.261719 -27.289062 161.953125 -8.363281 107.300781 -8.363281 C 52.644531 -8.363281 8.335938 -27.289062 8.335938 -50.632812 C 8.335938 -73.980469 52.644531 -92.90625 107.300781 -92.90625 C 161.953125 -92.90625 206.261719 -73.980469 206.261719 -50.632812 Z M 206.261719 -50.632812 " transform="matrix(1, 0, 0, -1, 0, 0)"/>
<path fill-rule="nonzero" fill="rgb(0%, 0%, 0%)" fill-opacity="1" d="M 84.359375 14.464844 C 84.359375 14.246094 84.359375 14.230469 84.140625 14.230469 C 83.578125 14.792969 82.75 14.792969 82.46875 14.792969 L 82.46875 15.074219 C 82.640625 15.074219 83.1875 15.074219 83.671875 14.839844 L 83.671875 19.480469 C 83.671875 19.808594 83.65625 19.917969 82.8125 19.917969 L 82.53125 19.917969 L 82.53125 20.199219 C 82.84375 20.167969 83.65625 20.167969 84.015625 20.167969 C 84.390625 20.167969 85.1875 20.167969 85.515625 20.199219 L 85.515625 19.917969 L 85.234375 19.917969 C 84.390625 19.917969 84.359375 19.808594 84.359375 19.480469 Z M 84.359375 14.464844 "/>
<path fill-rule="nonzero" fill="rgb(0%, 0%, 0%)" fill-opacity="1" d="M 90.5 17.324219 C 90.5 16.730469 90.46875 15.949219 90.15625 15.277344 C 89.75 14.433594 89.078125 14.230469 88.5625 14.230469 C 88.015625 14.230469 87.328125 14.433594 86.9375 15.308594 C 86.65625 15.917969 86.609375 16.652344 86.609375 17.324219 C 86.609375 17.917969 86.625 18.777344 87.015625 19.496094 C 87.4375 20.246094 88.140625 20.402344 88.546875 20.402344 C 89.125 20.402344 89.796875 20.152344 90.171875 19.324219 C 90.4375 18.714844 90.5 18.042969 90.5 17.324219 Z M 88.5625 20.167969 C 88.28125 20.167969 87.640625 20.042969 87.46875 19.027344 C 87.375 18.511719 87.375 17.730469 87.375 17.214844 C 87.375 16.605469 87.375 15.902344 87.484375 15.402344 C 87.671875 14.605469 88.234375 14.449219 88.546875 14.449219 C 88.890625 14.449219 89.453125 14.636719 89.625 15.464844 C 89.71875 15.949219 89.71875 16.652344 89.71875 17.214844 C 89.71875 17.777344 89.71875 18.527344 89.625 19.058594 C 89.4375 20.089844 88.78125 20.167969 88.5625 20.167969 Z M 88.5625 20.167969 "/>
<path fill-rule="nonzero" fill="rgb(0%, 0%, 0%)" fill-opacity="1" d="M 92.464844 16.605469 L 93.777344 16.605469 L 93.777344 16.339844 L 92.464844 16.339844 L 92.464844 14.683594 L 92.214844 14.683594 C 92.214844 15.433594 91.902344 16.355469 91.027344 16.386719 L 91.027344 16.605469 L 91.808594 16.605469 L 91.808594 19.089844 C 91.808594 20.089844 92.527344 20.292969 93.011719 20.292969 C 93.605469 20.292969 93.917969 19.730469 93.917969 19.089844 L 93.917969 18.574219 L 93.667969 18.574219 L 93.667969 19.058594 C 93.667969 19.730469 93.386719 20.042969 93.074219 20.042969 C 92.464844 20.042969 92.464844 19.261719 92.464844 19.089844 Z M 92.464844 16.605469 "/>
<path fill-rule="nonzero" fill="rgb(0%, 0%, 0%)" fill-opacity="1" d="M 98.664062 17.917969 C 98.664062 17.183594 98.664062 16.917969 98.414062 16.605469 C 98.210938 16.355469 97.867188 16.230469 97.414062 16.230469 C 96.820312 16.230469 96.367188 16.542969 96.101562 17.058594 L 96.085938 17.058594 L 96.085938 13.980469 L 94.757812 14.074219 L 94.757812 14.355469 C 95.367188 14.355469 95.445312 14.417969 95.445312 14.855469 L 95.445312 19.511719 C 95.445312 19.917969 95.351562 19.917969 94.757812 19.917969 L 94.757812 20.199219 C 95.179688 20.183594 95.351562 20.167969 95.789062 20.167969 C 96.210938 20.167969 96.335938 20.183594 96.804688 20.199219 L 96.804688 19.917969 C 96.210938 19.917969 96.117188 19.917969 96.117188 19.511719 L 96.117188 17.871094 C 96.117188 16.917969 96.789062 16.464844 97.351562 16.464844 C 97.882812 16.464844 97.992188 16.902344 97.992188 17.433594 L 97.992188 19.511719 C 97.992188 19.917969 97.898438 19.917969 97.304688 19.917969 L 97.304688 20.199219 C 97.726562 20.183594 97.898438 20.167969 98.335938 20.167969 C 98.757812 20.167969 98.882812 20.183594 99.351562 20.199219 L 99.351562 19.917969 C 98.898438 19.917969 98.664062 19.917969 98.664062 19.636719 Z M 98.664062 17.917969 "/>
<path fill-rule="nonzero" fill="rgb(0%, 0%, 0%)" fill-opacity="1" d="M 105.910156 16.667969 C 105.722656 16.714844 105.535156 16.839844 105.535156 17.089844 C 105.535156 17.324219 105.722656 17.511719 105.957031 17.511719 C 106.191406 17.511719 106.378906 17.355469 106.378906 17.074219 C 106.378906 16.527344 105.753906 16.183594 104.957031 16.183594 C 103.816406 16.183594 102.957031 17.136719 102.957031 18.261719 C 102.957031 19.417969 103.878906 20.292969 104.941406 20.292969 C 106.191406 20.292969 106.472656 19.214844 106.472656 19.136719 C 106.472656 19.027344 106.378906 19.027344 106.347656 19.027344 C 106.253906 19.027344 106.253906 19.042969 106.191406 19.199219 C 105.988281 19.808594 105.488281 20.042969 105.035156 20.042969 C 104.457031 20.042969 103.722656 19.574219 103.722656 18.246094 C 103.722656 16.855469 104.441406 16.433594 104.972656 16.433594 C 105.097656 16.433594 105.582031 16.449219 105.910156 16.667969 Z M 105.910156 16.667969 "/>
<path fill-rule="nonzero" fill="rgb(0%, 0%, 0%)" fill-opacity="1" d="M 110.335938 18.152344 C 110.523438 18.152344 110.570312 18.152344 110.570312 17.949219 C 110.570312 17.027344 110.070312 16.183594 108.914062 16.183594 C 107.851562 16.183594 107.007812 17.121094 107.007812 18.230469 C 107.007812 19.402344 107.945312 20.292969 109.039062 20.292969 C 110.132812 20.292969 110.570312 19.339844 110.570312 19.136719 C 110.570312 19.074219 110.523438 19.011719 110.445312 19.011719 C 110.351562 19.011719 110.335938 19.074219 110.320312 19.121094 C 110.023438 20.027344 109.210938 20.042969 109.085938 20.042969 C 108.648438 20.042969 108.289062 19.808594 108.085938 19.496094 C 107.789062 19.058594 107.773438 18.527344 107.773438 18.152344 Z M 107.789062 17.933594 C 107.867188 16.542969 108.664062 16.402344 108.914062 16.402344 C 109.414062 16.402344 109.945312 16.777344 109.960938 17.933594 Z M 107.789062 17.933594 "/>
<path fill-rule="nonzero" fill="rgb(0%, 0%, 0%)" fill-opacity="1" d="M 115.058594 17.917969 C 115.058594 17.183594 115.058594 16.917969 114.808594 16.605469 C 114.605469 16.355469 114.261719 16.230469 113.808594 16.230469 C 112.980469 16.230469 112.589844 16.855469 112.464844 17.105469 L 112.449219 17.105469 L 112.449219 16.230469 L 111.152344 16.339844 L 111.152344 16.605469 C 111.761719 16.605469 111.839844 16.667969 111.839844 17.121094 L 111.839844 19.511719 C 111.839844 19.917969 111.746094 19.917969 111.152344 19.917969 L 111.152344 20.199219 C 111.574219 20.183594 111.746094 20.167969 112.183594 20.167969 C 112.605469 20.167969 112.730469 20.183594 113.199219 20.199219 L 113.199219 19.917969 C 112.605469 19.917969 112.511719 19.917969 112.511719 19.511719 L 112.511719 17.871094 C 112.511719 16.917969 113.183594 16.464844 113.746094 16.464844 C 114.277344 16.464844 114.386719 16.902344 114.386719 17.433594 L 114.386719 19.511719 C 114.386719 19.917969 114.292969 19.917969 113.699219 19.917969 L 113.699219 20.199219 C 114.121094 20.183594 114.292969 20.167969 114.730469 20.167969 C 115.152344 20.167969 115.277344 20.183594 115.746094 20.199219 L 115.746094 19.917969 C 115.292969 19.917969 115.058594 19.917969 115.058594 19.636719 Z M 115.058594 17.917969 "/>
<path fill-rule="nonzero" fill="rgb(0%, 0%, 0%)" fill-opacity="1" d="M 117.328125 16.605469 L 118.640625 16.605469 L 118.640625 16.339844 L 117.328125 16.339844 L 117.328125 14.683594 L 117.078125 14.683594 C 117.078125 15.433594 116.765625 16.355469 115.890625 16.386719 L 115.890625 16.605469 L 116.671875 16.605469 L 116.671875 19.089844 C 116.671875 20.089844 117.390625 20.292969 117.875 20.292969 C 118.46875 20.292969 118.78125 19.730469 118.78125 19.089844 L 118.78125 18.574219 L 118.53125 18.574219 L 118.53125 19.058594 C 118.53125 19.730469 118.25 20.042969 117.9375 20.042969 C 117.328125 20.042969 117.328125 19.261719 117.328125 19.089844 Z M 117.328125 16.605469 "/>
<path fill-rule="nonzero" fill="rgb(0%, 0%, 0%)" fill-opacity="1" d="M 122.167969 16.339844 L 122.167969 16.605469 C 122.777344 16.605469 122.855469 16.667969 122.855469 17.121094 L 122.855469 18.699219 C 122.855469 19.496094 122.417969 20.074219 121.761719 20.074219 C 121.027344 20.074219 120.980469 19.683594 120.980469 19.199219 L 120.980469 16.230469 L 119.621094 16.339844 L 119.621094 16.605469 C 120.308594 16.605469 120.308594 16.636719 120.308594 17.433594 L 120.308594 18.777344 C 120.308594 19.371094 120.308594 19.746094 120.730469 20.058594 C 120.980469 20.230469 121.355469 20.292969 121.714844 20.292969 C 122.183594 20.292969 122.621094 20.089844 122.871094 19.558594 L 122.886719 19.558594 L 122.886719 20.292969 L 124.214844 20.199219 L 124.214844 19.917969 C 123.605469 19.917969 123.527344 19.855469 123.527344 19.417969 L 123.527344 16.230469 Z M 122.167969 16.339844 "/>
<path fill-rule="nonzero" fill="rgb(0%, 0%, 0%)" fill-opacity="1" d="M 126.019531 18.152344 C 126.019531 17.777344 126.113281 16.464844 127.144531 16.464844 C 127.128906 16.480469 126.988281 16.589844 126.988281 16.792969 C 126.988281 17.042969 127.175781 17.199219 127.378906 17.199219 C 127.566406 17.199219 127.769531 17.058594 127.769531 16.792969 C 127.769531 16.511719 127.503906 16.230469 127.097656 16.230469 C 126.566406 16.230469 126.191406 16.605469 125.972656 17.167969 L 125.972656 16.230469 L 124.691406 16.339844 L 124.691406 16.605469 C 125.300781 16.605469 125.378906 16.667969 125.378906 17.121094 L 125.378906 19.511719 C 125.378906 19.917969 125.285156 19.917969 124.691406 19.917969 L 124.691406 20.199219 C 125.175781 20.183594 125.285156 20.167969 125.738281 20.167969 C 126.097656 20.167969 126.316406 20.183594 126.878906 20.199219 L 126.878906 19.917969 L 126.707031 19.917969 C 126.050781 19.917969 126.019531 19.824219 126.019531 19.496094 Z M 126.019531 18.152344 "/>
<path fill-rule="nonzero" fill="rgb(0%, 0%, 0%)" fill-opacity="1" d="M 131.859375 17.230469 C 131.953125 16.996094 132.125 16.636719 132.6875 16.605469 L 132.6875 16.339844 C 132.40625 16.355469 132.125 16.355469 132.015625 16.355469 C 131.765625 16.355469 131.484375 16.355469 131.234375 16.339844 L 131.234375 16.605469 C 131.640625 16.636719 131.640625 16.949219 131.640625 16.996094 C 131.640625 17.089844 131.609375 17.183594 131.578125 17.246094 L 130.671875 19.386719 L 129.65625 17.027344 C 129.609375 16.902344 129.609375 16.855469 129.609375 16.839844 C 129.609375 16.605469 129.921875 16.605469 130.109375 16.605469 L 130.109375 16.339844 C 129.65625 16.355469 129.484375 16.355469 129.109375 16.355469 C 129.078125 16.355469 128.5625 16.355469 128.21875 16.339844 L 128.21875 16.605469 C 128.625 16.605469 128.796875 16.636719 128.90625 16.871094 L 130.3125 20.199219 C 130.21875 20.433594 130.171875 20.558594 130.09375 20.730469 C 129.890625 21.199219 129.640625 21.808594 129.046875 21.808594 C 128.828125 21.808594 128.671875 21.699219 128.65625 21.683594 C 128.71875 21.667969 128.96875 21.605469 128.96875 21.292969 C 128.96875 21.058594 128.796875 20.917969 128.59375 20.917969 C 128.375 20.917969 128.203125 21.058594 128.203125 21.308594 C 128.203125 21.699219 128.59375 22.042969 129.046875 22.042969 C 129.640625 22.042969 130.015625 21.511719 130.234375 21.027344 Z M 131.859375 17.230469 "/>
<path fill-rule="nonzero" fill="rgb(0%, 0%, 0%)" fill-opacity="1" d="M 69.234375 22.625 L 63.65625 22.625 L 63.65625 23.0625 L 64.625 23.0625 L 64.625 28.28125 L 63.65625 28.28125 L 63.65625 28.71875 C 63.96875 28.6875 64.953125 28.6875 65.328125 28.6875 C 65.75 28.6875 66.765625 28.6875 67.140625 28.71875 L 67.140625 28.28125 L 65.921875 28.28125 L 65.921875 25.890625 L 66.40625 25.890625 C 67.28125 25.890625 67.359375 26.265625 67.359375 26.9375 L 67.8125 26.9375 L 67.8125 24.390625 L 67.359375 24.390625 C 67.359375 25.0625 67.28125 25.4375 66.40625 25.4375 L 65.921875 25.4375 L 65.921875 23.0625 L 67.25 23.0625 C 68.6875 23.0625 68.90625 23.734375 69.046875 24.796875 L 69.5 24.796875 Z M 69.234375 22.625 "/>
<path fill-rule="nonzero" fill="rgb(0%, 0%, 0%)" fill-opacity="1" d="M 72.105469 23.1875 C 72.105469 22.734375 71.730469 22.484375 71.402344 22.484375 C 70.996094 22.484375 70.699219 22.828125 70.699219 23.1875 C 70.699219 23.5625 70.996094 23.890625 71.402344 23.890625 C 71.746094 23.890625 72.105469 23.625 72.105469 23.1875 Z M 70.449219 24.75 L 70.449219 25.1875 C 70.964844 25.1875 71.027344 25.1875 71.027344 25.546875 L 71.027344 28.28125 L 70.417969 28.28125 L 70.417969 28.71875 C 71.011719 28.703125 71.136719 28.6875 71.511719 28.6875 C 71.949219 28.6875 72.058594 28.703125 72.574219 28.71875 L 72.574219 28.28125 L 72.027344 28.28125 L 72.027344 24.6875 Z M 70.449219 24.75 "/>
<path fill-rule="nonzero" fill="rgb(0%, 0%, 0%)" fill-opacity="1" d="M 77.167969 26.796875 C 77.355469 26.796875 77.464844 26.796875 77.464844 26.546875 C 77.464844 26.34375 77.449219 25.546875 76.871094 25.0625 C 76.464844 24.734375 75.917969 24.65625 75.480469 24.65625 C 73.949219 24.65625 73.199219 25.625 73.199219 26.703125 C 73.199219 27.875 74.089844 28.765625 75.605469 28.765625 C 77.089844 28.765625 77.464844 27.828125 77.464844 27.671875 C 77.464844 27.5 77.292969 27.5 77.230469 27.5 C 77.074219 27.5 77.058594 27.546875 76.996094 27.671875 C 76.792969 28.140625 76.246094 28.390625 75.683594 28.390625 C 74.402344 28.390625 74.386719 27.234375 74.386719 26.796875 Z M 74.386719 26.46875 C 74.402344 26.0625 74.449219 25.015625 75.480469 25.015625 C 76.527344 25.015625 76.574219 26.109375 76.589844 26.46875 Z M 74.386719 26.46875 "/>
<path fill-rule="nonzero" fill="rgb(0%, 0%, 0%)" fill-opacity="1" d="M 79.847656 22.5 L 78.238281 22.5625 L 78.238281 23 C 78.769531 23 78.847656 23 78.847656 23.359375 L 78.847656 28.28125 L 78.238281 28.28125 L 78.238281 28.71875 C 78.847656 28.6875 78.957031 28.6875 79.332031 28.6875 C 79.738281 28.6875 79.972656 28.703125 80.457031 28.71875 L 80.457031 28.28125 L 79.847656 28.28125 Z M 79.847656 22.5 "/>
<path fill-rule="nonzero" fill="rgb(0%, 0%, 0%)" fill-opacity="1" d="M 84.015625 22.5625 L 84.015625 23 C 84.5625 23 84.625 23 84.625 23.359375 L 84.625 25.09375 C 84.234375 24.796875 83.8125 24.6875 83.375 24.6875 C 81.921875 24.6875 81.0625 25.578125 81.0625 26.734375 C 81.0625 27.921875 81.90625 28.765625 83.28125 28.765625 C 83.84375 28.765625 84.28125 28.5625 84.578125 28.328125 L 84.578125 28.765625 L 86.234375 28.71875 L 86.234375 28.28125 C 85.703125 28.28125 85.625 28.28125 85.625 27.921875 L 85.625 22.5 Z M 84.578125 27.734375 C 84.375 28.0625 83.953125 28.40625 83.375 28.40625 C 82.265625 28.40625 82.265625 27.34375 82.265625 26.75 C 82.265625 26.21875 82.265625 25.84375 82.5 25.515625 C 82.734375 25.15625 83.171875 25.046875 83.484375 25.046875 C 83.921875 25.046875 84.296875 25.234375 84.578125 25.59375 Z M 84.578125 27.734375 "/>
<path fill-rule="nonzero" fill="rgb(0%, 0%, 0%)" fill-opacity="1" d="M 95.046875 26.765625 C 95.046875 25.59375 94.21875 24.65625 92.703125 24.65625 C 91.125 24.65625 90.34375 25.640625 90.34375 26.765625 C 90.34375 27.875 91.15625 28.765625 92.6875 28.765625 C 94.296875 28.765625 95.046875 27.828125 95.046875 26.765625 Z M 92.703125 28.390625 C 91.53125 28.390625 91.53125 27.4375 91.53125 26.671875 C 91.53125 25.90625 91.53125 25.015625 92.6875 25.015625 C 93.859375 25.015625 93.859375 25.90625 93.859375 26.671875 C 93.859375 27.4375 93.859375 28.390625 92.703125 28.390625 Z M 92.703125 28.390625 "/>
<path fill-rule="nonzero" fill="rgb(0%, 0%, 0%)" fill-opacity="1" d="M 97.429688 25.171875 L 98.492188 25.171875 L 98.492188 24.734375 L 97.382812 24.734375 L 97.382812 23.84375 C 97.382812 22.875 98.070312 22.796875 98.304688 22.796875 C 98.335938 22.796875 98.414062 22.796875 98.414062 22.8125 C 98.414062 22.828125 98.414062 22.828125 98.398438 22.859375 C 98.304688 22.96875 98.257812 23.09375 98.257812 23.234375 C 98.257812 23.609375 98.554688 23.8125 98.820312 23.8125 C 99.117188 23.8125 99.398438 23.59375 99.398438 23.234375 C 99.398438 22.828125 99.039062 22.4375 98.351562 22.4375 C 97.398438 22.4375 96.429688 22.84375 96.429688 23.84375 L 96.429688 24.734375 L 95.742188 24.734375 L 95.742188 25.171875 L 96.429688 25.171875 L 96.429688 28.28125 L 95.820312 28.28125 L 95.820312 28.71875 C 96.492188 28.6875 96.539062 28.6875 96.976562 28.6875 C 97.195312 28.6875 97.726562 28.6875 98.195312 28.71875 L 98.195312 28.28125 L 97.429688 28.28125 Z M 97.429688 25.171875 "/>
<path fill-rule="nonzero" fill="rgb(0%, 0%, 0%)" fill-opacity="1" d="M 106.4375 26.796875 C 106.625 26.796875 106.734375 26.796875 106.734375 26.546875 C 106.734375 26.34375 106.71875 25.546875 106.140625 25.0625 C 105.734375 24.734375 105.1875 24.65625 104.75 24.65625 C 103.21875 24.65625 102.46875 25.625 102.46875 26.703125 C 102.46875 27.875 103.359375 28.765625 104.875 28.765625 C 106.359375 28.765625 106.734375 27.828125 106.734375 27.671875 C 106.734375 27.5 106.5625 27.5 106.5 27.5 C 106.34375 27.5 106.328125 27.546875 106.265625 27.671875 C 106.0625 28.140625 105.515625 28.390625 104.953125 28.390625 C 103.671875 28.390625 103.65625 27.234375 103.65625 26.796875 Z M 103.65625 26.46875 C 103.671875 26.0625 103.71875 25.015625 104.75 25.015625 C 105.796875 25.015625 105.84375 26.109375 105.859375 26.46875 Z M 103.65625 26.46875 "/>
<path fill-rule="nonzero" fill="rgb(0%, 0%, 0%)" fill-opacity="1" d="M 110.246094 26.515625 L 111.355469 25.34375 C 111.449219 25.234375 111.511719 25.171875 112.230469 25.171875 L 112.230469 24.734375 C 111.917969 24.765625 111.683594 24.765625 111.386719 24.765625 C 111.230469 24.765625 110.886719 24.765625 110.480469 24.734375 L 110.480469 25.171875 C 110.667969 25.171875 110.714844 25.21875 110.777344 25.28125 L 109.949219 26.1875 L 109.058594 25.171875 L 109.386719 25.171875 L 109.386719 24.734375 C 108.839844 24.75 108.605469 24.765625 108.308594 24.765625 C 108.121094 24.765625 107.777344 24.765625 107.324219 24.734375 L 107.324219 25.171875 L 107.949219 25.171875 L 109.371094 26.796875 L 108.167969 28.109375 C 107.996094 28.28125 107.683594 28.28125 107.277344 28.28125 L 107.277344 28.71875 C 107.574219 28.6875 107.808594 28.6875 108.105469 28.6875 C 108.277344 28.6875 108.621094 28.6875 109.027344 28.71875 L 109.027344 28.28125 C 108.886719 28.28125 108.730469 28.25 108.730469 28.1875 C 108.730469 28.140625 108.792969 28.09375 108.808594 28.078125 L 109.683594 27.140625 L 110.667969 28.28125 L 110.355469 28.28125 L 110.355469 28.71875 C 110.933594 28.703125 111.136719 28.6875 111.433594 28.6875 C 111.636719 28.6875 111.964844 28.6875 112.417969 28.71875 L 112.417969 28.28125 L 111.792969 28.28125 Z M 110.246094 26.515625 "/>
<path fill-rule="nonzero" fill="rgb(0%, 0%, 0%)" fill-opacity="1" d="M 115.285156 30.015625 L 114.675781 30.015625 L 114.675781 28.375 C 115.207031 28.765625 115.691406 28.765625 115.863281 28.765625 C 117.269531 28.765625 118.175781 27.921875 118.175781 26.734375 C 118.175781 25.546875 117.363281 24.6875 116.003906 24.6875 C 115.285156 24.6875 114.785156 24.984375 114.613281 25.109375 L 114.613281 24.6875 L 113.019531 24.75 L 113.019531 25.1875 C 113.191406 25.1875 113.332031 25.1875 113.457031 25.21875 C 113.628906 25.25 113.628906 25.34375 113.628906 25.53125 L 113.628906 30.015625 L 113.019531 30.015625 L 113.019531 30.453125 C 113.675781 30.4375 113.785156 30.4375 114.144531 30.4375 C 114.503906 30.4375 114.597656 30.4375 115.285156 30.453125 Z M 114.675781 25.625 C 114.832031 25.421875 115.253906 25.0625 115.863281 25.0625 C 116.488281 25.0625 116.988281 25.625 116.988281 26.71875 C 116.988281 27.96875 116.347656 28.40625 115.753906 28.40625 C 115.300781 28.40625 114.910156 28.15625 114.675781 27.78125 Z M 114.675781 25.625 "/>
<path fill-rule="nonzero" fill="rgb(0%, 0%, 0%)" fill-opacity="1" d="M 123.042969 26.796875 C 123.230469 26.796875 123.339844 26.796875 123.339844 26.546875 C 123.339844 26.34375 123.324219 25.546875 122.746094 25.0625 C 122.339844 24.734375 121.792969 24.65625 121.355469 24.65625 C 119.824219 24.65625 119.074219 25.625 119.074219 26.703125 C 119.074219 27.875 119.964844 28.765625 121.480469 28.765625 C 122.964844 28.765625 123.339844 27.828125 123.339844 27.671875 C 123.339844 27.5 123.167969 27.5 123.105469 27.5 C 122.949219 27.5 122.933594 27.546875 122.871094 27.671875 C 122.667969 28.140625 122.121094 28.390625 121.558594 28.390625 C 120.277344 28.390625 120.261719 27.234375 120.261719 26.796875 Z M 120.261719 26.46875 C 120.277344 26.0625 120.324219 25.015625 121.355469 25.015625 C 122.402344 25.015625 122.449219 26.109375 122.464844 26.46875 Z M 120.261719 26.46875 "/>
<path fill-rule="nonzero" fill="rgb(0%, 0%, 0%)" fill-opacity="1" d="M 125.613281 26.765625 C 125.613281 26.109375 125.863281 25.0625 126.722656 25.046875 C 126.628906 25.140625 126.582031 25.296875 126.582031 25.4375 C 126.582031 25.828125 126.894531 26.015625 127.144531 26.015625 C 127.441406 26.015625 127.722656 25.8125 127.722656 25.4375 C 127.722656 24.984375 127.253906 24.6875 126.722656 24.6875 C 126.097656 24.6875 125.722656 25.140625 125.519531 25.65625 L 125.503906 25.65625 L 125.503906 24.6875 L 124.019531 24.75 L 124.019531 25.1875 C 124.550781 25.1875 124.628906 25.1875 124.628906 25.546875 L 124.628906 28.28125 L 124.019531 28.28125 L 124.019531 28.71875 C 124.675781 28.6875 124.722656 28.6875 125.160156 28.6875 C 125.378906 28.6875 125.910156 28.6875 126.378906 28.71875 L 126.378906 28.28125 L 125.613281 28.28125 Z M 125.613281 26.765625 "/>
<path fill-rule="nonzero" fill="rgb(0%, 0%, 0%)" fill-opacity="1" d="M 130.175781 23.1875 C 130.175781 22.734375 129.800781 22.484375 129.472656 22.484375 C 129.066406 22.484375 128.769531 22.828125 128.769531 23.1875 C 128.769531 23.5625 129.066406 23.890625 129.472656 23.890625 C 129.816406 23.890625 130.175781 23.625 130.175781 23.1875 Z M 128.519531 24.75 L 128.519531 25.1875 C 129.035156 25.1875 129.097656 25.1875 129.097656 25.546875 L 129.097656 28.28125 L 128.488281 28.28125 L 128.488281 28.71875 C 129.082031 28.703125 129.207031 28.6875 129.582031 28.6875 C 130.019531 28.6875 130.128906 28.703125 130.644531 28.71875 L 130.644531 28.28125 L 130.097656 28.28125 L 130.097656 24.6875 Z M 128.519531 24.75 "/>
<path fill-rule="nonzero" fill="rgb(0%, 0%, 0%)" fill-opacity="1" d="M 135.234375 26.796875 C 135.421875 26.796875 135.53125 26.796875 135.53125 26.546875 C 135.53125 26.34375 135.515625 25.546875 134.9375 25.0625 C 134.53125 24.734375 133.984375 24.65625 133.546875 24.65625 C 132.015625 24.65625 131.265625 25.625 131.265625 26.703125 C 131.265625 27.875 132.15625 28.765625 133.671875 28.765625 C 135.15625 28.765625 135.53125 27.828125 135.53125 27.671875 C 135.53125 27.5 135.359375 27.5 135.296875 27.5 C 135.140625 27.5 135.125 27.546875 135.0625 27.671875 C 134.859375 28.140625 134.3125 28.390625 133.75 28.390625 C 132.46875 28.390625 132.453125 27.234375 132.453125 26.796875 Z M 132.453125 26.46875 C 132.46875 26.0625 132.515625 25.015625 133.546875 25.015625 C 134.59375 25.015625 134.640625 26.109375 134.65625 26.46875 Z M 132.453125 26.46875 "/>
<path fill-rule="nonzero" fill="rgb(0%, 0%, 0%)" fill-opacity="1" d="M 140.886719 25.984375 C 140.886719 24.921875 140.230469 24.6875 139.449219 24.6875 C 138.355469 24.6875 137.917969 25.484375 137.855469 25.625 L 137.839844 25.625 L 137.839844 24.6875 L 136.292969 24.75 L 136.292969 25.1875 C 136.824219 25.1875 136.902344 25.1875 136.902344 25.546875 L 136.902344 28.28125 L 136.292969 28.28125 L 136.292969 28.71875 C 136.949219 28.6875 137.058594 28.6875 137.417969 28.6875 C 137.792969 28.6875 137.871094 28.6875 138.558594 28.71875 L 138.558594 28.28125 L 137.949219 28.28125 L 137.949219 26.4375 C 137.949219 25.4375 138.777344 25.046875 139.308594 25.046875 C 139.652344 25.046875 139.824219 25.234375 139.824219 25.90625 L 139.824219 28.28125 L 139.214844 28.28125 L 139.214844 28.71875 C 139.886719 28.6875 139.996094 28.6875 140.355469 28.6875 C 140.714844 28.6875 140.808594 28.6875 141.496094 28.71875 L 141.496094 28.28125 L 140.886719 28.28125 Z M 140.886719 25.984375 "/>
<path fill-rule="nonzero" fill="rgb(0%, 0%, 0%)" fill-opacity="1" d="M 146.136719 27.671875 C 146.136719 27.53125 146.011719 27.53125 145.902344 27.53125 C 145.730469 27.53125 145.730469 27.546875 145.652344 27.703125 C 145.480469 28.140625 145.074219 28.390625 144.542969 28.390625 C 143.277344 28.390625 143.277344 27.09375 143.277344 26.6875 C 143.277344 26.15625 143.277344 25.046875 144.449219 25.046875 C 144.527344 25.046875 145.011719 25.046875 145.011719 25.09375 C 145.011719 25.109375 144.980469 25.125 144.980469 25.140625 C 144.902344 25.234375 144.855469 25.375 144.855469 25.515625 C 144.855469 25.875 145.136719 26.09375 145.449219 26.09375 C 145.714844 26.09375 146.027344 25.90625 146.027344 25.5 C 146.027344 24.65625 144.777344 24.65625 144.417969 24.65625 C 142.699219 24.65625 142.074219 25.75 142.074219 26.734375 C 142.074219 27.859375 142.886719 28.765625 144.371094 28.765625 C 144.714844 28.765625 145.152344 28.71875 145.527344 28.484375 C 146.042969 28.171875 146.136719 27.703125 146.136719 27.671875 Z M 146.136719 27.671875 "/>
<path fill-rule="nonzero" fill="rgb(0%, 0%, 0%)" fill-opacity="1" d="M 150.710938 26.796875 C 150.898438 26.796875 151.007812 26.796875 151.007812 26.546875 C 151.007812 26.34375 150.992188 25.546875 150.414062 25.0625 C 150.007812 24.734375 149.460938 24.65625 149.023438 24.65625 C 147.492188 24.65625 146.742188 25.625 146.742188 26.703125 C 146.742188 27.875 147.632812 28.765625 149.148438 28.765625 C 150.632812 28.765625 151.007812 27.828125 151.007812 27.671875 C 151.007812 27.5 150.835938 27.5 150.773438 27.5 C 150.617188 27.5 150.601562 27.546875 150.539062 27.671875 C 150.335938 28.140625 149.789062 28.390625 149.226562 28.390625 C 147.945312 28.390625 147.929688 27.234375 147.929688 26.796875 Z M 147.929688 26.46875 C 147.945312 26.0625 147.992188 25.015625 149.023438 25.015625 C 150.070312 25.015625 150.117188 26.109375 150.132812 26.46875 Z M 147.929688 26.46875 "/>
<path fill="none" stroke-width="0.498132" stroke-linecap="butt" stroke-linejoin="miter" stroke="rgb(0%, 0%, 0%)" stroke-opacity="1" stroke-dasharray="3.00329 2.00219" stroke-dashoffset="1.50165" stroke-miterlimit="10" d="M 379.175781 -50.632812 L 379.175781 -50.089844 L 379.066406 -48.457031 L 378.738281 -46.3125 L 378.199219 -44.195312 L 377.453125 -42.113281 L 376.507812 -40.070312 L 375.363281 -38.0625 L 374.03125 -36.101562 L 372.511719 -34.179688 L 370.8125 -32.308594 L 368.941406 -30.484375 L 366.898438 -28.714844 L 364.695312 -27 L 362.332031 -25.34375 L 359.8125 -23.746094 L 357.148438 -22.210938 L 354.339844 -20.742188 L 351.394531 -19.34375 L 348.320312 -18.015625 L 345.117188 -16.761719 L 341.792969 -15.582031 L 338.351562 -14.484375 L 334.800781 -13.464844 L 331.144531 -12.53125 L 327.390625 -11.683594 L 323.539062 -10.929688 L 319.597656 -10.265625 L 315.574219 -9.695312 L 311.472656 -9.222656 L 307.296875 -8.851562 L 303.054688 -8.582031 L 298.746094 -8.417969 L 295.476562 -8.363281 L 293.296875 -8.363281 L 290.023438 -8.417969 L 285.714844 -8.582031 L 281.472656 -8.851562 L 277.296875 -9.222656 L 273.195312 -9.695312 L 269.171875 -10.265625 L 265.230469 -10.929688 L 261.382812 -11.683594 L 257.625 -12.53125 L 253.96875 -13.464844 L 250.417969 -14.484375 L 246.980469 -15.582031 L 243.652344 -16.761719 L 240.449219 -18.015625 L 237.375 -19.34375 L 234.429688 -20.742188 L 231.621094 -22.210938 L 228.957031 -23.746094 L 226.441406 -25.34375 L 224.074219 -27 L 221.871094 -28.714844 L 219.828125 -30.484375 L 217.957031 -32.308594 L 216.257812 -34.179688 L 214.738281 -36.101562 L 213.40625 -38.0625 L 212.265625 -40.070312 L 211.316406 -42.113281 L 210.570312 -44.195312 L 210.03125 -46.3125 L 209.703125 -48.457031 L 209.59375 -50.089844 L 209.59375 -51.175781 L 209.703125 -52.808594 L 210.03125 -54.957031 L 210.570312 -57.070312 L 211.316406 -59.152344 L 212.265625 -61.199219 L 213.40625 -63.203125 L 214.738281 -65.167969 L 216.257812 -67.085938 L 217.957031 -68.960938 L 219.828125 -70.78125 L 221.871094 -72.550781 L 224.074219 -74.269531 L 226.441406 -75.925781 L 228.957031 -77.523438 L 231.621094 -79.054688 L 234.429688 -80.523438 L 237.375 -81.921875 L 240.449219 -83.253906 L 243.652344 -84.507812 L 246.980469 -85.683594 L 250.417969 -86.785156 L 253.96875 -87.800781 L 257.625 -88.734375 L 261.382812 -89.582031 L 265.230469 -90.339844 L 269.171875 -91.003906 L 273.195312 -91.574219 L 277.296875 -92.046875 L 281.472656 -92.417969 L 285.714844 -92.6875 L 290.023438 -92.851562 L 293.296875 -92.90625 L 295.476562 -92.90625 L 298.746094 -92.851562 L 303.054688 -92.6875 L 307.296875 -92.417969 L 311.472656 -92.046875 L 315.574219 -91.574219 L 319.597656 -91.003906 L 323.539062 -90.339844 L 327.390625 -89.582031 L 331.144531 -88.734375 L 334.800781 -87.800781 L 338.351562 -86.785156 L 341.792969 -85.683594 L 345.117188 -84.507812 L 348.320312 -83.253906 L 351.394531 -81.921875 L 354.339844 -80.523438 L 357.148438 -79.054688 L 359.8125 -77.523438 L 362.332031 -75.925781 L 364.695312 -74.269531 L 366.898438 -72.550781 L 368.941406 -70.78125 L 370.8125 -68.960938 L 372.511719 -67.085938 L 374.03125 -65.167969 L 375.363281 -63.203125 L 376.507812 -61.199219 L 377.453125 -59.152344 L 378.199219 -57.070312 L 378.738281 -54.957031 L 379.066406 -52.808594 L 379.175781 -51.175781 Z M 379.175781 -50.632812 " transform="matrix(1, 0, 0, -1, 0, 0)"/>
<path fill-rule="nonzero" fill="rgb(0%, 0%, 0%)" fill-opacity="1" d="M 270.101562 18.605469 L 269.851562 18.605469 C 269.835938 18.730469 269.757812 19.261719 269.648438 19.402344 C 269.585938 19.480469 268.976562 19.480469 268.789062 19.480469 L 267.195312 19.480469 C 267.382812 19.308594 267.976562 18.730469 268.085938 18.636719 C 269.554688 17.371094 270.101562 16.886719 270.101562 15.980469 C 270.101562 14.949219 269.257812 14.230469 268.148438 14.230469 C 267.117188 14.230469 266.414062 15.042969 266.414062 15.855469 C 266.414062 16.308594 266.804688 16.355469 266.882812 16.355469 C 267.085938 16.355469 267.351562 16.214844 267.351562 15.886719 C 267.351562 15.621094 267.164062 15.417969 266.882812 15.417969 C 266.835938 15.417969 266.820312 15.417969 266.773438 15.433594 C 266.992188 14.792969 267.570312 14.511719 268.054688 14.511719 C 268.960938 14.511719 269.273438 15.355469 269.273438 15.980469 C 269.273438 16.886719 268.585938 17.636719 268.164062 18.105469 L 266.523438 19.871094 C 266.414062 19.980469 266.414062 19.996094 266.414062 20.199219 L 269.851562 20.199219 Z M 270.101562 18.605469 "/>
<path fill-rule="nonzero" fill="rgb(0%, 0%, 0%)" fill-opacity="1" d="M 274.820312 17.324219 C 274.820312 16.730469 274.789062 15.949219 274.476562 15.277344 C 274.070312 14.433594 273.398438 14.230469 272.882812 14.230469 C 272.335938 14.230469 271.648438 14.433594 271.257812 15.308594 C 270.976562 15.917969 270.929688 16.652344 270.929688 17.324219 C 270.929688 17.917969 270.945312 18.777344 271.335938 19.496094 C 271.757812 20.246094 272.460938 20.402344 272.867188 20.402344 C 273.445312 20.402344 274.117188 20.152344 274.492188 19.324219 C 274.757812 18.714844 274.820312 18.042969 274.820312 17.324219 Z M 272.882812 20.167969 C 272.601562 20.167969 271.960938 20.042969 271.789062 19.027344 C 271.695312 18.511719 271.695312 17.730469 271.695312 17.214844 C 271.695312 16.605469 271.695312 15.902344 271.804688 15.402344 C 271.992188 14.605469 272.554688 14.449219 272.867188 14.449219 C 273.210938 14.449219 273.773438 14.636719 273.945312 15.464844 C 274.039062 15.949219 274.039062 16.652344 274.039062 17.214844 C 274.039062 17.777344 274.039062 18.527344 273.945312 19.058594 C 273.757812 20.089844 273.101562 20.167969 272.882812 20.167969 Z M 272.882812 20.167969 "/>
<path fill-rule="nonzero" fill="rgb(0%, 0%, 0%)" fill-opacity="1" d="M 276.785156 16.605469 L 278.097656 16.605469 L 278.097656 16.339844 L 276.785156 16.339844 L 276.785156 14.683594 L 276.535156 14.683594 C 276.535156 15.433594 276.222656 16.355469 275.347656 16.386719 L 275.347656 16.605469 L 276.128906 16.605469 L 276.128906 19.089844 C 276.128906 20.089844 276.847656 20.292969 277.332031 20.292969 C 277.925781 20.292969 278.238281 19.730469 278.238281 19.089844 L 278.238281 18.574219 L 277.988281 18.574219 L 277.988281 19.058594 C 277.988281 19.730469 277.707031 20.042969 277.394531 20.042969 C 276.785156 20.042969 276.785156 19.261719 276.785156 19.089844 Z M 276.785156 16.605469 "/>
<path fill-rule="nonzero" fill="rgb(0%, 0%, 0%)" fill-opacity="1" d="M 282.984375 17.917969 C 282.984375 17.183594 282.984375 16.917969 282.734375 16.605469 C 282.53125 16.355469 282.1875 16.230469 281.734375 16.230469 C 281.140625 16.230469 280.6875 16.542969 280.421875 17.058594 L 280.40625 17.058594 L 280.40625 13.980469 L 279.078125 14.074219 L 279.078125 14.355469 C 279.6875 14.355469 279.765625 14.417969 279.765625 14.855469 L 279.765625 19.511719 C 279.765625 19.917969 279.671875 19.917969 279.078125 19.917969 L 279.078125 20.199219 C 279.5 20.183594 279.671875 20.167969 280.109375 20.167969 C 280.53125 20.167969 280.65625 20.183594 281.125 20.199219 L 281.125 19.917969 C 280.53125 19.917969 280.4375 19.917969 280.4375 19.511719 L 280.4375 17.871094 C 280.4375 16.917969 281.109375 16.464844 281.671875 16.464844 C 282.203125 16.464844 282.3125 16.902344 282.3125 17.433594 L 282.3125 19.511719 C 282.3125 19.917969 282.21875 19.917969 281.625 19.917969 L 281.625 20.199219 C 282.046875 20.183594 282.21875 20.167969 282.65625 20.167969 C 283.078125 20.167969 283.203125 20.183594 283.671875 20.199219 L 283.671875 19.917969 C 283.21875 19.917969 282.984375 19.917969 282.984375 19.636719 Z M 282.984375 17.917969 "/>
<path fill-rule="nonzero" fill="rgb(0%, 0%, 0%)" fill-opacity="1" d="M 290.230469 16.667969 C 290.042969 16.714844 289.855469 16.839844 289.855469 17.089844 C 289.855469 17.324219 290.042969 17.511719 290.277344 17.511719 C 290.511719 17.511719 290.699219 17.355469 290.699219 17.074219 C 290.699219 16.527344 290.074219 16.183594 289.277344 16.183594 C 288.136719 16.183594 287.277344 17.136719 287.277344 18.261719 C 287.277344 19.417969 288.199219 20.292969 289.261719 20.292969 C 290.511719 20.292969 290.792969 19.214844 290.792969 19.136719 C 290.792969 19.027344 290.699219 19.027344 290.667969 19.027344 C 290.574219 19.027344 290.574219 19.042969 290.511719 19.199219 C 290.308594 19.808594 289.808594 20.042969 289.355469 20.042969 C 288.777344 20.042969 288.042969 19.574219 288.042969 18.246094 C 288.042969 16.855469 288.761719 16.433594 289.292969 16.433594 C 289.417969 16.433594 289.902344 16.449219 290.230469 16.667969 Z M 290.230469 16.667969 "/>
<path fill-rule="nonzero" fill="rgb(0%, 0%, 0%)" fill-opacity="1" d="M 294.65625 18.152344 C 294.84375 18.152344 294.890625 18.152344 294.890625 17.949219 C 294.890625 17.027344 294.390625 16.183594 293.234375 16.183594 C 292.171875 16.183594 291.328125 17.121094 291.328125 18.230469 C 291.328125 19.402344 292.265625 20.292969 293.359375 20.292969 C 294.453125 20.292969 294.890625 19.339844 294.890625 19.136719 C 294.890625 19.074219 294.84375 19.011719 294.765625 19.011719 C 294.671875 19.011719 294.65625 19.074219 294.640625 19.121094 C 294.34375 20.027344 293.53125 20.042969 293.40625 20.042969 C 292.96875 20.042969 292.609375 19.808594 292.40625 19.496094 C 292.109375 19.058594 292.09375 18.527344 292.09375 18.152344 Z M 292.109375 17.933594 C 292.1875 16.542969 292.984375 16.402344 293.234375 16.402344 C 293.734375 16.402344 294.265625 16.777344 294.28125 17.933594 Z M 292.109375 17.933594 "/>
<path fill-rule="nonzero" fill="rgb(0%, 0%, 0%)" fill-opacity="1" d="M 299.378906 17.917969 C 299.378906 17.183594 299.378906 16.917969 299.128906 16.605469 C 298.925781 16.355469 298.582031 16.230469 298.128906 16.230469 C 297.300781 16.230469 296.910156 16.855469 296.785156 17.105469 L 296.769531 17.105469 L 296.769531 16.230469 L 295.472656 16.339844 L 295.472656 16.605469 C 296.082031 16.605469 296.160156 16.667969 296.160156 17.121094 L 296.160156 19.511719 C 296.160156 19.917969 296.066406 19.917969 295.472656 19.917969 L 295.472656 20.199219 C 295.894531 20.183594 296.066406 20.167969 296.503906 20.167969 C 296.925781 20.167969 297.050781 20.183594 297.519531 20.199219 L 297.519531 19.917969 C 296.925781 19.917969 296.832031 19.917969 296.832031 19.511719 L 296.832031 17.871094 C 296.832031 16.917969 297.503906 16.464844 298.066406 16.464844 C 298.597656 16.464844 298.707031 16.902344 298.707031 17.433594 L 298.707031 19.511719 C 298.707031 19.917969 298.613281 19.917969 298.019531 19.917969 L 298.019531 20.199219 C 298.441406 20.183594 298.613281 20.167969 299.050781 20.167969 C 299.472656 20.167969 299.597656 20.183594 300.066406 20.199219 L 300.066406 19.917969 C 299.613281 19.917969 299.378906 19.917969 299.378906 19.636719 Z M 299.378906 17.917969 "/>
<path fill-rule="nonzero" fill="rgb(0%, 0%, 0%)" fill-opacity="1" d="M 301.648438 16.605469 L 302.960938 16.605469 L 302.960938 16.339844 L 301.648438 16.339844 L 301.648438 14.683594 L 301.398438 14.683594 C 301.398438 15.433594 301.085938 16.355469 300.210938 16.386719 L 300.210938 16.605469 L 300.992188 16.605469 L 300.992188 19.089844 C 300.992188 20.089844 301.710938 20.292969 302.195312 20.292969 C 302.789062 20.292969 303.101562 19.730469 303.101562 19.089844 L 303.101562 18.574219 L 302.851562 18.574219 L 302.851562 19.058594 C 302.851562 19.730469 302.570312 20.042969 302.257812 20.042969 C 301.648438 20.042969 301.648438 19.261719 301.648438 19.089844 Z M 301.648438 16.605469 "/>
<path fill-rule="nonzero" fill="rgb(0%, 0%, 0%)" fill-opacity="1" d="M 306.484375 16.339844 L 306.484375 16.605469 C 307.09375 16.605469 307.171875 16.667969 307.171875 17.121094 L 307.171875 18.699219 C 307.171875 19.496094 306.734375 20.074219 306.078125 20.074219 C 305.34375 20.074219 305.296875 19.683594 305.296875 19.199219 L 305.296875 16.230469 L 303.9375 16.339844 L 303.9375 16.605469 C 304.625 16.605469 304.625 16.636719 304.625 17.433594 L 304.625 18.777344 C 304.625 19.371094 304.625 19.746094 305.046875 20.058594 C 305.296875 20.230469 305.671875 20.292969 306.03125 20.292969 C 306.5 20.292969 306.9375 20.089844 307.1875 19.558594 L 307.203125 19.558594 L 307.203125 20.292969 L 308.53125 20.199219 L 308.53125 19.917969 C 307.921875 19.917969 307.84375 19.855469 307.84375 19.417969 L 307.84375 16.230469 Z M 306.484375 16.339844 "/>
<path fill-rule="nonzero" fill="rgb(0%, 0%, 0%)" fill-opacity="1" d="M 310.339844 18.152344 C 310.339844 17.777344 310.433594 16.464844 311.464844 16.464844 C 311.449219 16.480469 311.308594 16.589844 311.308594 16.792969 C 311.308594 17.042969 311.496094 17.199219 311.699219 17.199219 C 311.886719 17.199219 312.089844 17.058594 312.089844 16.792969 C 312.089844 16.511719 311.824219 16.230469 311.417969 16.230469 C 310.886719 16.230469 310.511719 16.605469 310.292969 17.167969 L 310.292969 16.230469 L 309.011719 16.339844 L 309.011719 16.605469 C 309.621094 16.605469 309.699219 16.667969 309.699219 17.121094 L 309.699219 19.511719 C 309.699219 19.917969 309.605469 19.917969 309.011719 19.917969 L 309.011719 20.199219 C 309.496094 20.183594 309.605469 20.167969 310.058594 20.167969 C 310.417969 20.167969 310.636719 20.183594 311.199219 20.199219 L 311.199219 19.917969 L 311.027344 19.917969 C 310.371094 19.917969 310.339844 19.824219 310.339844 19.496094 Z M 310.339844 18.152344 "/>
<path fill-rule="nonzero" fill="rgb(0%, 0%, 0%)" fill-opacity="1" d="M 316.179688 17.230469 C 316.273438 16.996094 316.445312 16.636719 317.007812 16.605469 L 317.007812 16.339844 C 316.726562 16.355469 316.445312 16.355469 316.335938 16.355469 C 316.085938 16.355469 315.804688 16.355469 315.554688 16.339844 L 315.554688 16.605469 C 315.960938 16.636719 315.960938 16.949219 315.960938 16.996094 C 315.960938 17.089844 315.929688 17.183594 315.898438 17.246094 L 314.992188 19.386719 L 313.976562 17.027344 C 313.929688 16.902344 313.929688 16.855469 313.929688 16.839844 C 313.929688 16.605469 314.242188 16.605469 314.429688 16.605469 L 314.429688 16.339844 C 313.976562 16.355469 313.804688 16.355469 313.429688 16.355469 C 313.398438 16.355469 312.882812 16.355469 312.539062 16.339844 L 312.539062 16.605469 C 312.945312 16.605469 313.117188 16.636719 313.226562 16.871094 L 314.632812 20.199219 C 314.539062 20.433594 314.492188 20.558594 314.414062 20.730469 C 314.210938 21.199219 313.960938 21.808594 313.367188 21.808594 C 313.148438 21.808594 312.992188 21.699219 312.976562 21.683594 C 313.039062 21.667969 313.289062 21.605469 313.289062 21.292969 C 313.289062 21.058594 313.117188 20.917969 312.914062 20.917969 C 312.695312 20.917969 312.523438 21.058594 312.523438 21.308594 C 312.523438 21.699219 312.914062 22.042969 313.367188 22.042969 C 313.960938 22.042969 314.335938 21.511719 314.554688 21.027344 Z M 316.179688 17.230469 "/>
<path fill-rule="nonzero" fill="rgb(0%, 0%, 0%)" fill-opacity="1" d="M 253.433594 22.625 L 247.855469 22.625 L 247.855469 23.0625 L 248.824219 23.0625 L 248.824219 28.28125 L 247.855469 28.28125 L 247.855469 28.71875 C 248.167969 28.6875 249.152344 28.6875 249.527344 28.6875 C 249.949219 28.6875 250.964844 28.6875 251.339844 28.71875 L 251.339844 28.28125 L 250.121094 28.28125 L 250.121094 25.890625 L 250.605469 25.890625 C 251.480469 25.890625 251.558594 26.265625 251.558594 26.9375 L 252.011719 26.9375 L 252.011719 24.390625 L 251.558594 24.390625 C 251.558594 25.0625 251.480469 25.4375 250.605469 25.4375 L 250.121094 25.4375 L 250.121094 23.0625 L 251.449219 23.0625 C 252.886719 23.0625 253.105469 23.734375 253.246094 24.796875 L 253.699219 24.796875 Z M 253.433594 22.625 "/>
<path fill-rule="nonzero" fill="rgb(0%, 0%, 0%)" fill-opacity="1" d="M 256.308594 23.1875 C 256.308594 22.734375 255.933594 22.484375 255.605469 22.484375 C 255.199219 22.484375 254.902344 22.828125 254.902344 23.1875 C 254.902344 23.5625 255.199219 23.890625 255.605469 23.890625 C 255.949219 23.890625 256.308594 23.625 256.308594 23.1875 Z M 254.652344 24.75 L 254.652344 25.1875 C 255.167969 25.1875 255.230469 25.1875 255.230469 25.546875 L 255.230469 28.28125 L 254.621094 28.28125 L 254.621094 28.71875 C 255.214844 28.703125 255.339844 28.6875 255.714844 28.6875 C 256.152344 28.6875 256.261719 28.703125 256.777344 28.71875 L 256.777344 28.28125 L 256.230469 28.28125 L 256.230469 24.6875 Z M 254.652344 24.75 "/>
<path fill-rule="nonzero" fill="rgb(0%, 0%, 0%)" fill-opacity="1" d="M 261.367188 26.796875 C 261.554688 26.796875 261.664062 26.796875 261.664062 26.546875 C 261.664062 26.34375 261.648438 25.546875 261.070312 25.0625 C 260.664062 24.734375 260.117188 24.65625 259.679688 24.65625 C 258.148438 24.65625 257.398438 25.625 257.398438 26.703125 C 257.398438 27.875 258.289062 28.765625 259.804688 28.765625 C 261.289062 28.765625 261.664062 27.828125 261.664062 27.671875 C 261.664062 27.5 261.492188 27.5 261.429688 27.5 C 261.273438 27.5 261.257812 27.546875 261.195312 27.671875 C 260.992188 28.140625 260.445312 28.390625 259.882812 28.390625 C 258.601562 28.390625 258.585938 27.234375 258.585938 26.796875 Z M 258.585938 26.46875 C 258.601562 26.0625 258.648438 25.015625 259.679688 25.015625 C 260.726562 25.015625 260.773438 26.109375 260.789062 26.46875 Z M 258.585938 26.46875 "/>
<path fill-rule="nonzero" fill="rgb(0%, 0%, 0%)" fill-opacity="1" d="M 264.046875 22.5 L 262.4375 22.5625 L 262.4375 23 C 262.96875 23 263.046875 23 263.046875 23.359375 L 263.046875 28.28125 L 262.4375 28.28125 L 262.4375 28.71875 C 263.046875 28.6875 263.15625 28.6875 263.53125 28.6875 C 263.9375 28.6875 264.171875 28.703125 264.65625 28.71875 L 264.65625 28.28125 L 264.046875 28.28125 Z M 264.046875 22.5 "/>
<path fill-rule="nonzero" fill="rgb(0%, 0%, 0%)" fill-opacity="1" d="M 268.214844 22.5625 L 268.214844 23 C 268.761719 23 268.824219 23 268.824219 23.359375 L 268.824219 25.09375 C 268.433594 24.796875 268.011719 24.6875 267.574219 24.6875 C 266.121094 24.6875 265.261719 25.578125 265.261719 26.734375 C 265.261719 27.921875 266.105469 28.765625 267.480469 28.765625 C 268.042969 28.765625 268.480469 28.5625 268.777344 28.328125 L 268.777344 28.765625 L 270.433594 28.71875 L 270.433594 28.28125 C 269.902344 28.28125 269.824219 28.28125 269.824219 27.921875 L 269.824219 22.5 Z M 268.777344 27.734375 C 268.574219 28.0625 268.152344 28.40625 267.574219 28.40625 C 266.464844 28.40625 266.464844 27.34375 266.464844 26.75 C 266.464844 26.21875 266.464844 25.84375 266.699219 25.515625 C 266.933594 25.15625 267.371094 25.046875 267.683594 25.046875 C 268.121094 25.046875 268.496094 25.234375 268.777344 25.59375 Z M 268.777344 27.734375 "/>
<path fill-rule="nonzero" fill="rgb(0%, 0%, 0%)" fill-opacity="1" d="M 279.367188 26.765625 C 279.367188 25.59375 278.539062 24.65625 277.023438 24.65625 C 275.445312 24.65625 274.664062 25.640625 274.664062 26.765625 C 274.664062 27.875 275.476562 28.765625 277.007812 28.765625 C 278.617188 28.765625 279.367188 27.828125 279.367188 26.765625 Z M 277.023438 28.390625 C 275.851562 28.390625 275.851562 27.4375 275.851562 26.671875 C 275.851562 25.90625 275.851562 25.015625 277.007812 25.015625 C 278.179688 25.015625 278.179688 25.90625 278.179688 26.671875 C 278.179688 27.4375 278.179688 28.390625 277.023438 28.390625 Z M 277.023438 28.390625 "/>
<path fill-rule="nonzero" fill="rgb(0%, 0%, 0%)" fill-opacity="1" d="M 281.75 25.171875 L 282.8125 25.171875 L 282.8125 24.734375 L 281.703125 24.734375 L 281.703125 23.84375 C 281.703125 22.875 282.390625 22.796875 282.625 22.796875 C 282.65625 22.796875 282.734375 22.796875 282.734375 22.8125 C 282.734375 22.828125 282.734375 22.828125 282.71875 22.859375 C 282.625 22.96875 282.578125 23.09375 282.578125 23.234375 C 282.578125 23.609375 282.875 23.8125 283.140625 23.8125 C 283.4375 23.8125 283.71875 23.59375 283.71875 23.234375 C 283.71875 22.828125 283.359375 22.4375 282.671875 22.4375 C 281.71875 22.4375 280.75 22.84375 280.75 23.84375 L 280.75 24.734375 L 280.0625 24.734375 L 280.0625 25.171875 L 280.75 25.171875 L 280.75 28.28125 L 280.140625 28.28125 L 280.140625 28.71875 C 280.8125 28.6875 280.859375 28.6875 281.296875 28.6875 C 281.515625 28.6875 282.046875 28.6875 282.515625 28.71875 L 282.515625 28.28125 L 281.75 28.28125 Z M 281.75 25.171875 "/>
<path fill-rule="nonzero" fill="rgb(0%, 0%, 0%)" fill-opacity="1" d="M 290.757812 26.796875 C 290.945312 26.796875 291.054688 26.796875 291.054688 26.546875 C 291.054688 26.34375 291.039062 25.546875 290.460938 25.0625 C 290.054688 24.734375 289.507812 24.65625 289.070312 24.65625 C 287.539062 24.65625 286.789062 25.625 286.789062 26.703125 C 286.789062 27.875 287.679688 28.765625 289.195312 28.765625 C 290.679688 28.765625 291.054688 27.828125 291.054688 27.671875 C 291.054688 27.5 290.882812 27.5 290.820312 27.5 C 290.664062 27.5 290.648438 27.546875 290.585938 27.671875 C 290.382812 28.140625 289.835938 28.390625 289.273438 28.390625 C 287.992188 28.390625 287.976562 27.234375 287.976562 26.796875 Z M 287.976562 26.46875 C 287.992188 26.0625 288.039062 25.015625 289.070312 25.015625 C 290.117188 25.015625 290.164062 26.109375 290.179688 26.46875 Z M 287.976562 26.46875 "/>
<path fill-rule="nonzero" fill="rgb(0%, 0%, 0%)" fill-opacity="1" d="M 294.5625 26.515625 L 295.671875 25.34375 C 295.765625 25.234375 295.828125 25.171875 296.546875 25.171875 L 296.546875 24.734375 C 296.234375 24.765625 296 24.765625 295.703125 24.765625 C 295.546875 24.765625 295.203125 24.765625 294.796875 24.734375 L 294.796875 25.171875 C 294.984375 25.171875 295.03125 25.21875 295.09375 25.28125 L 294.265625 26.1875 L 293.375 25.171875 L 293.703125 25.171875 L 293.703125 24.734375 C 293.15625 24.75 292.921875 24.765625 292.625 24.765625 C 292.4375 24.765625 292.09375 24.765625 291.640625 24.734375 L 291.640625 25.171875 L 292.265625 25.171875 L 293.6875 26.796875 L 292.484375 28.109375 C 292.3125 28.28125 292 28.28125 291.59375 28.28125 L 291.59375 28.71875 C 291.890625 28.6875 292.125 28.6875 292.421875 28.6875 C 292.59375 28.6875 292.9375 28.6875 293.34375 28.71875 L 293.34375 28.28125 C 293.203125 28.28125 293.046875 28.25 293.046875 28.1875 C 293.046875 28.140625 293.109375 28.09375 293.125 28.078125 L 294 27.140625 L 294.984375 28.28125 L 294.671875 28.28125 L 294.671875 28.71875 C 295.25 28.703125 295.453125 28.6875 295.75 28.6875 C 295.953125 28.6875 296.28125 28.6875 296.734375 28.71875 L 296.734375 28.28125 L 296.109375 28.28125 Z M 294.5625 26.515625 "/>
<path fill-rule="nonzero" fill="rgb(0%, 0%, 0%)" fill-opacity="1" d="M 299.605469 30.015625 L 298.996094 30.015625 L 298.996094 28.375 C 299.527344 28.765625 300.011719 28.765625 300.183594 28.765625 C 301.589844 28.765625 302.496094 27.921875 302.496094 26.734375 C 302.496094 25.546875 301.683594 24.6875 300.324219 24.6875 C 299.605469 24.6875 299.105469 24.984375 298.933594 25.109375 L 298.933594 24.6875 L 297.339844 24.75 L 297.339844 25.1875 C 297.511719 25.1875 297.652344 25.1875 297.777344 25.21875 C 297.949219 25.25 297.949219 25.34375 297.949219 25.53125 L 297.949219 30.015625 L 297.339844 30.015625 L 297.339844 30.453125 C 297.996094 30.4375 298.105469 30.4375 298.464844 30.4375 C 298.824219 30.4375 298.917969 30.4375 299.605469 30.453125 Z M 298.996094 25.625 C 299.152344 25.421875 299.574219 25.0625 300.183594 25.0625 C 300.808594 25.0625 301.308594 25.625 301.308594 26.71875 C 301.308594 27.96875 300.667969 28.40625 300.074219 28.40625 C 299.621094 28.40625 299.230469 28.15625 298.996094 27.78125 Z M 298.996094 25.625 "/>
<path fill-rule="nonzero" fill="rgb(0%, 0%, 0%)" fill-opacity="1" d="M 307.363281 26.796875 C 307.550781 26.796875 307.660156 26.796875 307.660156 26.546875 C 307.660156 26.34375 307.644531 25.546875 307.066406 25.0625 C 306.660156 24.734375 306.113281 24.65625 305.675781 24.65625 C 304.144531 24.65625 303.394531 25.625 303.394531 26.703125 C 303.394531 27.875 304.285156 28.765625 305.800781 28.765625 C 307.285156 28.765625 307.660156 27.828125 307.660156 27.671875 C 307.660156 27.5 307.488281 27.5 307.425781 27.5 C 307.269531 27.5 307.253906 27.546875 307.191406 27.671875 C 306.988281 28.140625 306.441406 28.390625 305.878906 28.390625 C 304.597656 28.390625 304.582031 27.234375 304.582031 26.796875 Z M 304.582031 26.46875 C 304.597656 26.0625 304.644531 25.015625 305.675781 25.015625 C 306.722656 25.015625 306.769531 26.109375 306.785156 26.46875 Z M 304.582031 26.46875 "/>
<path fill-rule="nonzero" fill="rgb(0%, 0%, 0%)" fill-opacity="1" d="M 309.933594 26.765625 C 309.933594 26.109375 310.183594 25.0625 311.042969 25.046875 C 310.949219 25.140625 310.902344 25.296875 310.902344 25.4375 C 310.902344 25.828125 311.214844 26.015625 311.464844 26.015625 C 311.761719 26.015625 312.042969 25.8125 312.042969 25.4375 C 312.042969 24.984375 311.574219 24.6875 311.042969 24.6875 C 310.417969 24.6875 310.042969 25.140625 309.839844 25.65625 L 309.824219 25.65625 L 309.824219 24.6875 L 308.339844 24.75 L 308.339844 25.1875 C 308.871094 25.1875 308.949219 25.1875 308.949219 25.546875 L 308.949219 28.28125 L 308.339844 28.28125 L 308.339844 28.71875 C 308.996094 28.6875 309.042969 28.6875 309.480469 28.6875 C 309.699219 28.6875 310.230469 28.6875 310.699219 28.71875 L 310.699219 28.28125 L 309.933594 28.28125 Z M 309.933594 26.765625 "/>
<path fill-rule="nonzero" fill="rgb(0%, 0%, 0%)" fill-opacity="1" d="M 314.496094 23.1875 C 314.496094 22.734375 314.121094 22.484375 313.792969 22.484375 C 313.386719 22.484375 313.089844 22.828125 313.089844 23.1875 C 313.089844 23.5625 313.386719 23.890625 313.792969 23.890625 C 314.136719 23.890625 314.496094 23.625 314.496094 23.1875 Z M 312.839844 24.75 L 312.839844 25.1875 C 313.355469 25.1875 313.417969 25.1875 313.417969 25.546875 L 313.417969 28.28125 L 312.808594 28.28125 L 312.808594 28.71875 C 313.402344 28.703125 313.527344 28.6875 313.902344 28.6875 C 314.339844 28.6875 314.449219 28.703125 314.964844 28.71875 L 314.964844 28.28125 L 314.417969 28.28125 L 314.417969 24.6875 Z M 312.839844 24.75 "/>
<path fill-rule="nonzero" fill="rgb(0%, 0%, 0%)" fill-opacity="1" d="M 319.554688 26.796875 C 319.742188 26.796875 319.851562 26.796875 319.851562 26.546875 C 319.851562 26.34375 319.835938 25.546875 319.257812 25.0625 C 318.851562 24.734375 318.304688 24.65625 317.867188 24.65625 C 316.335938 24.65625 315.585938 25.625 315.585938 26.703125 C 315.585938 27.875 316.476562 28.765625 317.992188 28.765625 C 319.476562 28.765625 319.851562 27.828125 319.851562 27.671875 C 319.851562 27.5 319.679688 27.5 319.617188 27.5 C 319.460938 27.5 319.445312 27.546875 319.382812 27.671875 C 319.179688 28.140625 318.632812 28.390625 318.070312 28.390625 C 316.789062 28.390625 316.773438 27.234375 316.773438 26.796875 Z M 316.773438 26.46875 C 316.789062 26.0625 316.835938 25.015625 317.867188 25.015625 C 318.914062 25.015625 318.960938 26.109375 318.976562 26.46875 Z M 316.773438 26.46875 "/>
<path fill-rule="nonzero" fill="rgb(0%, 0%, 0%)" fill-opacity="1" d="M 325.207031 25.984375 C 325.207031 24.921875 324.550781 24.6875 323.769531 24.6875 C 322.675781 24.6875 322.238281 25.484375 322.175781 25.625 L 322.160156 25.625 L 322.160156 24.6875 L 320.613281 24.75 L 320.613281 25.1875 C 321.144531 25.1875 321.222656 25.1875 321.222656 25.546875 L 321.222656 28.28125 L 320.613281 28.28125 L 320.613281 28.71875 C 321.269531 28.6875 321.378906 28.6875 321.738281 28.6875 C 322.113281 28.6875 322.191406 28.6875 322.878906 28.71875 L 322.878906 28.28125 L 322.269531 28.28125 L 322.269531 26.4375 C 322.269531 25.4375 323.097656 25.046875 323.628906 25.046875 C 323.972656 25.046875 324.144531 25.234375 324.144531 25.90625 L 324.144531 28.28125 L 323.535156 28.28125 L 323.535156 28.71875 C 324.207031 28.6875 324.316406 28.6875 324.675781 28.6875 C 325.035156 28.6875 325.128906 28.6875 325.816406 28.71875 L 325.816406 28.28125 L 325.207031 28.28125 Z M 325.207031 25.984375 "/>
<path fill-rule="nonzero" fill="rgb(0%, 0%, 0%)" fill-opacity="1" d="M 330.457031 27.671875 C 330.457031 27.53125 330.332031 27.53125 330.222656 27.53125 C 330.050781 27.53125 330.050781 27.546875 329.972656 27.703125 C 329.800781 28.140625 329.394531 28.390625 328.863281 28.390625 C 327.597656 28.390625 327.597656 27.09375 327.597656 26.6875 C 327.597656 26.15625 327.597656 25.046875 328.769531 25.046875 C 328.847656 25.046875 329.332031 25.046875 329.332031 25.09375 C 329.332031 25.109375 329.300781 25.125 329.300781 25.140625 C 329.222656 25.234375 329.175781 25.375 329.175781 25.515625 C 329.175781 25.875 329.457031 26.09375 329.769531 26.09375 C 330.035156 26.09375 330.347656 25.90625 330.347656 25.5 C 330.347656 24.65625 329.097656 24.65625 328.738281 24.65625 C 327.019531 24.65625 326.394531 25.75 326.394531 26.734375 C 326.394531 27.859375 327.207031 28.765625 328.691406 28.765625 C 329.035156 28.765625 329.472656 28.71875 329.847656 28.484375 C 330.363281 28.171875 330.457031 27.703125 330.457031 27.671875 Z M 330.457031 27.671875 "/>
<path fill-rule="nonzero" fill="rgb(0%, 0%, 0%)" fill-opacity="1" d="M 335.03125 26.796875 C 335.21875 26.796875 335.328125 26.796875 335.328125 26.546875 C 335.328125 26.34375 335.3125 25.546875 334.734375 25.0625 C 334.328125 24.734375 333.78125 24.65625 333.34375 24.65625 C 331.8125 24.65625 331.0625 25.625 331.0625 26.703125 C 331.0625 27.875 331.953125 28.765625 333.46875 28.765625 C 334.953125 28.765625 335.328125 27.828125 335.328125 27.671875 C 335.328125 27.5 335.15625 27.5 335.09375 27.5 C 334.9375 27.5 334.921875 27.546875 334.859375 27.671875 C 334.65625 28.140625 334.109375 28.390625 333.546875 28.390625 C 332.265625 28.390625 332.25 27.234375 332.25 26.796875 Z M 332.25 26.46875 C 332.265625 26.0625 332.3125 25.015625 333.34375 25.015625 C 334.390625 25.015625 334.4375 26.109375 334.453125 26.46875 Z M 332.25 26.46875 "/>
</svg>
