<?xml version="1.0" encoding="UTF-8" standalone="no"?>
<svg
   width="388"
   height="101"
   viewBox="0 0 388 101"
   version="1.1"
   id="svg202"
   sodipodi:docname="fig-fld-ex.svg"
   inkscape:version="1.2.2 (b0a8486541, 2022-12-01)"
   xmlns:inkscape="http://www.inkscape.org/namespaces/inkscape"
   xmlns:sodipodi="http://sodipodi.sourceforge.net/DTD/sodipodi-0.dtd"
   xmlns="http://www.w3.org/2000/svg"
   xmlns:svg="http://www.w3.org/2000/svg">
  <defs
     id="defs206" />
  <sodipodi:namedview
     id="namedview204"
     pagecolor="#ffffff"
     bordercolor="#000000"
     borderopacity="0.25"
     inkscape:showpageshadow="2"
     inkscape:pageopacity="0.0"
     inkscape:pagecheckerboard="0"
     inkscape:deskcolor="#d1d1d1"
     showgrid="false"
     inkscape:zoom="1.8756036"
     inkscape:cx="274.84486"
     inkscape:cy="59.447531"
     inkscape:window-width="960"
     inkscape:window-height="531"
     inkscape:window-x="0"
     inkscape:window-y="0"
     inkscape:window-maximized="1"
     inkscape:current-layer="svg202" />
  <path
     fill="none"
     stroke-width="0.498132"
     stroke-linecap="butt"
     stroke-linejoin="miter"
     stroke="rgb(0%, 0%, 0%)"
     stroke-opacity="1"
     stroke-miterlimit="10"
     d="M 30.75 -50.625 L 30.75 -36.378906 L 70.542969 -36.378906 L 70.542969 -64.867188 L 30.75 -64.867188 Z M 30.75 -50.625 "
     transform="matrix(1, 0, 0, -1, 0, 0)"
     id="path2" />
  <path
     fill-rule="nonzero"
     fill="rgb(0%, 0%, 0%)"
     fill-opacity="1"
     d="M 42.710938 49.359375 C 42.992188 48.84375 43.476562 48.5625 43.992188 48.5625 C 44.726562 48.5625 45.320312 49.4375 45.320312 50.5625 C 45.320312 51.765625 44.632812 52.609375 43.898438 52.609375 C 43.492188 52.609375 43.117188 52.40625 42.851562 52 C 42.710938 51.796875 42.710938 51.78125 42.710938 51.578125 Z M 42.710938 52.125 C 42.757812 52.296875 43.179688 52.828125 43.929688 52.828125 C 45.117188 52.828125 46.148438 51.84375 46.148438 50.5625 C 46.148438 49.296875 45.195312 48.3125 44.070312 48.3125 C 43.289062 48.3125 42.867188 48.75 42.679688 48.96875 L 42.679688 48.3125 L 41.242188 48.421875 L 41.242188 48.734375 C 41.945312 48.734375 42.023438 48.796875 42.023438 49.234375 L 42.023438 53.890625 C 42.023438 54.34375 41.914062 54.34375 41.242188 54.34375 L 41.242188 54.65625 C 41.585938 54.640625 42.101562 54.625 42.351562 54.625 C 42.632812 54.625 43.132812 54.640625 43.476562 54.65625 L 43.476562 54.34375 C 42.820312 54.34375 42.710938 54.34375 42.710938 53.890625 Z M 42.710938 52.125 "
     id="path4" />
  <path
     fill-rule="nonzero"
     fill="rgb(0%, 0%, 0%)"
     fill-opacity="1"
     d="M 51.414062 50.578125 C 51.414062 49.3125 50.429688 48.25 49.226562 48.25 C 47.976562 48.25 47.007812 49.34375 47.007812 50.578125 C 47.007812 51.875 48.039062 52.828125 49.210938 52.828125 C 50.414062 52.828125 51.414062 51.84375 51.414062 50.578125 Z M 49.226562 52.578125 C 48.789062 52.578125 48.351562 52.375 48.085938 51.90625 C 47.835938 51.46875 47.835938 50.859375 47.835938 50.5 C 47.835938 50.109375 47.835938 49.578125 48.070312 49.140625 C 48.335938 48.6875 48.804688 48.46875 49.210938 48.46875 C 49.648438 48.46875 50.070312 48.6875 50.335938 49.125 C 50.601562 49.546875 50.601562 50.125 50.601562 50.5 C 50.601562 50.859375 50.601562 51.40625 50.382812 51.84375 C 50.148438 52.296875 49.710938 52.578125 49.226562 52.578125 Z M 49.226562 52.578125 "
     id="path6" />
  <path
     fill-rule="nonzero"
     fill="rgb(0%, 0%, 0%)"
     fill-opacity="1"
     d="M 55.894531 50.421875 C 56.113281 50.421875 56.144531 50.421875 56.144531 50.203125 C 56.144531 49.21875 55.597656 48.25 54.363281 48.25 C 53.207031 48.25 52.285156 49.28125 52.285156 50.53125 C 52.285156 51.859375 53.332031 52.828125 54.472656 52.828125 C 55.691406 52.828125 56.144531 51.71875 56.144531 51.53125 C 56.144531 51.4375 56.066406 51.40625 56.003906 51.40625 C 55.925781 51.40625 55.894531 51.46875 55.878906 51.546875 C 55.535156 52.578125 54.628906 52.578125 54.535156 52.578125 C 54.035156 52.578125 53.644531 52.28125 53.410156 51.90625 C 53.113281 51.4375 53.113281 50.78125 53.113281 50.421875 Z M 53.113281 50.203125 C 53.175781 48.71875 54.019531 48.46875 54.363281 48.46875 C 55.378906 48.46875 55.488281 49.8125 55.488281 50.203125 Z M 53.113281 50.203125 "
     id="path8" />
  <path
     fill-rule="nonzero"
     fill="rgb(0%, 0%, 0%)"
     fill-opacity="1"
     d="M 58.160156 48.734375 L 59.597656 48.734375 L 59.597656 48.421875 L 58.160156 48.421875 L 58.160156 46.59375 L 57.910156 46.59375 C 57.910156 47.40625 57.613281 48.46875 56.628906 48.515625 L 56.628906 48.734375 L 57.472656 48.734375 L 57.472656 51.484375 C 57.472656 52.703125 58.410156 52.828125 58.769531 52.828125 C 59.472656 52.828125 59.753906 52.125 59.753906 51.484375 L 59.753906 50.921875 L 59.503906 50.921875 L 59.503906 51.46875 C 59.503906 52.203125 59.207031 52.578125 58.832031 52.578125 C 58.160156 52.578125 58.160156 51.671875 58.160156 51.5 Z M 58.160156 48.734375 "
     id="path10" />
  <path
     fill="none"
     stroke-width="0.498132"
     stroke-linecap="butt"
     stroke-linejoin="miter"
     stroke="rgb(0%, 0%, 0%)"
     stroke-opacity="1"
     stroke-miterlimit="10"
     d="M 94.480469 -50.59375 L 94.480469 -63.167969 L 147.578125 -50.59375 L 94.480469 -38.019531 Z M 94.480469 -50.59375 "
     transform="matrix(1, 0, 0, -1, 0, 0)"
     id="path12" />
  <path
     fill-rule="nonzero"
     fill="rgb(0%, 0%, 0%)"
     fill-opacity="1"
     d="M 103.890625 50.574219 C 104.0625 50.074219 104.375 49.933594 104.734375 49.933594 L 104.734375 49.621094 C 104.5 49.636719 104.21875 49.652344 104 49.652344 C 103.703125 49.652344 103.265625 49.636719 103.078125 49.621094 L 103.078125 49.933594 C 103.4375 49.933594 103.65625 50.121094 103.65625 50.402344 C 103.65625 50.464844 103.65625 50.496094 103.59375 50.621094 L 102.6875 53.167969 L 101.703125 50.386719 C 101.671875 50.261719 101.65625 50.246094 101.65625 50.199219 C 101.65625 49.933594 102.046875 49.933594 102.25 49.933594 L 102.25 49.621094 C 101.953125 49.636719 101.453125 49.652344 101.203125 49.652344 C 100.90625 49.652344 100.625 49.636719 100.328125 49.621094 L 100.328125 49.933594 C 100.6875 49.933594 100.84375 49.949219 100.953125 50.074219 C 101 50.136719 101.109375 50.433594 101.171875 50.621094 L 100.328125 53.042969 L 99.375 50.386719 C 99.328125 50.261719 99.328125 50.246094 99.328125 50.199219 C 99.328125 49.933594 99.71875 49.933594 99.90625 49.933594 L 99.90625 49.621094 C 99.609375 49.636719 99.046875 49.652344 98.828125 49.652344 C 98.78125 49.652344 98.25 49.636719 97.890625 49.621094 L 97.890625 49.933594 C 98.390625 49.933594 98.515625 49.964844 98.640625 50.277344 L 99.890625 53.808594 C 99.9375 53.949219 99.96875 54.027344 100.09375 54.027344 C 100.234375 54.027344 100.25 53.964844 100.296875 53.824219 L 101.3125 51.011719 L 102.328125 53.839844 C 102.359375 53.949219 102.390625 54.027344 102.53125 54.027344 C 102.65625 54.027344 102.6875 53.933594 102.71875 53.839844 Z M 103.890625 50.574219 "
     id="path14" />
  <path
     fill-rule="nonzero"
     fill="rgb(0%, 0%, 0%)"
     fill-opacity="1"
     d="M 106.636719 53.136719 L 106.636719 51.605469 C 106.636719 50.621094 107.058594 49.730469 107.808594 49.730469 C 107.871094 49.730469 107.902344 49.730469 107.917969 49.746094 C 107.886719 49.746094 107.683594 49.871094 107.683594 50.136719 C 107.683594 50.402344 107.902344 50.558594 108.121094 50.558594 C 108.292969 50.558594 108.542969 50.433594 108.542969 50.121094 C 108.542969 49.808594 108.230469 49.511719 107.808594 49.511719 C 107.074219 49.511719 106.714844 50.183594 106.589844 50.605469 L 106.589844 49.511719 L 105.199219 49.621094 L 105.199219 49.933594 C 105.902344 49.933594 105.980469 49.996094 105.980469 50.496094 L 105.980469 53.167969 C 105.980469 53.605469 105.871094 53.605469 105.199219 53.605469 L 105.199219 53.917969 C 105.589844 53.902344 106.058594 53.886719 106.339844 53.886719 C 106.730469 53.886719 107.199219 53.886719 107.605469 53.917969 L 107.605469 53.605469 L 107.386719 53.605469 C 106.652344 53.605469 106.636719 53.496094 106.636719 53.136719 Z M 106.636719 53.136719 "
     id="path16" />
  <path
     fill-rule="nonzero"
     fill="rgb(0%, 0%, 0%)"
     fill-opacity="1"
     d="M 110.648438 49.511719 L 109.257812 49.621094 L 109.257812 49.933594 C 109.898438 49.933594 109.992188 49.996094 109.992188 50.480469 L 109.992188 53.167969 C 109.992188 53.605469 109.882812 53.605469 109.210938 53.605469 L 109.210938 53.917969 C 109.523438 53.902344 110.070312 53.886719 110.304688 53.886719 C 110.664062 53.886719 111.007812 53.902344 111.351562 53.917969 L 111.351562 53.605469 C 110.679688 53.605469 110.648438 53.558594 110.648438 53.167969 Z M 110.679688 47.777344 C 110.679688 47.464844 110.445312 47.246094 110.164062 47.246094 C 109.851562 47.246094 109.632812 47.511719 109.632812 47.777344 C 109.632812 48.042969 109.851562 48.308594 110.164062 48.308594 C 110.445312 48.308594 110.679688 48.089844 110.679688 47.777344 Z M 110.679688 47.777344 "
     id="path18" />
  <path
     fill-rule="nonzero"
     fill="rgb(0%, 0%, 0%)"
     fill-opacity="1"
     d="M 113.363281 49.933594 L 114.800781 49.933594 L 114.800781 49.621094 L 113.363281 49.621094 L 113.363281 47.792969 L 113.113281 47.792969 C 113.113281 48.605469 112.816406 49.667969 111.832031 49.714844 L 111.832031 49.933594 L 112.675781 49.933594 L 112.675781 52.683594 C 112.675781 53.902344 113.613281 54.027344 113.972656 54.027344 C 114.675781 54.027344 114.957031 53.324219 114.957031 52.683594 L 114.957031 52.121094 L 114.707031 52.121094 L 114.707031 52.667969 C 114.707031 53.402344 114.410156 53.777344 114.035156 53.777344 C 113.363281 53.777344 113.363281 52.871094 113.363281 52.699219 Z M 113.363281 49.933594 "
     id="path20" />
  <path
     fill-rule="nonzero"
     fill="rgb(0%, 0%, 0%)"
     fill-opacity="1"
     d="M 119.375 51.621094 C 119.59375 51.621094 119.625 51.621094 119.625 51.402344 C 119.625 50.417969 119.078125 49.449219 117.84375 49.449219 C 116.6875 49.449219 115.765625 50.480469 115.765625 51.730469 C 115.765625 53.058594 116.8125 54.027344 117.953125 54.027344 C 119.171875 54.027344 119.625 52.917969 119.625 52.730469 C 119.625 52.636719 119.546875 52.605469 119.484375 52.605469 C 119.40625 52.605469 119.375 52.667969 119.359375 52.746094 C 119.015625 53.777344 118.109375 53.777344 118.015625 53.777344 C 117.515625 53.777344 117.125 53.480469 116.890625 53.105469 C 116.59375 52.636719 116.59375 51.980469 116.59375 51.621094 Z M 116.59375 51.402344 C 116.65625 49.917969 117.5 49.667969 117.84375 49.667969 C 118.859375 49.667969 118.96875 51.011719 118.96875 51.402344 Z M 116.59375 51.402344 "
     id="path22" />
  <path
     fill="none"
     stroke-width="0.498132"
     stroke-linecap="butt"
     stroke-linejoin="miter"
     stroke="rgb(0%, 0%, 0%)"
     stroke-opacity="1"
     stroke-miterlimit="10"
     d="M 200.757812 -50.585938 C 200.757812 -42.003906 193.800781 -35.046875 185.21875 -35.046875 C 176.640625 -35.046875 169.683594 -42.003906 169.683594 -50.585938 C 169.683594 -59.164062 176.640625 -66.121094 185.21875 -66.121094 C 193.800781 -66.121094 200.757812 -59.164062 200.757812 -50.585938 Z M 200.757812 -50.585938 "
     transform="matrix(1, 0, 0, -1, 0, 0)"
     id="path24" />
  <path
     fill-rule="nonzero"
     fill="rgb(0%, 0%, 0%)"
     fill-opacity="1"
     d="M 175.070312 48.402344 C 175.351562 47.886719 175.835938 47.605469 176.351562 47.605469 C 177.085938 47.605469 177.679688 48.480469 177.679688 49.605469 C 177.679688 50.808594 176.992188 51.652344 176.257812 51.652344 C 175.851562 51.652344 175.476562 51.449219 175.210938 51.042969 C 175.070312 50.839844 175.070312 50.824219 175.070312 50.621094 Z M 175.070312 51.167969 C 175.117188 51.339844 175.539062 51.871094 176.289062 51.871094 C 177.476562 51.871094 178.507812 50.886719 178.507812 49.605469 C 178.507812 48.339844 177.554688 47.355469 176.429688 47.355469 C 175.648438 47.355469 175.226562 47.792969 175.039062 48.011719 L 175.039062 47.355469 L 173.601562 47.464844 L 173.601562 47.777344 C 174.304688 47.777344 174.382812 47.839844 174.382812 48.277344 L 174.382812 52.933594 C 174.382812 53.386719 174.273438 53.386719 173.601562 53.386719 L 173.601562 53.699219 C 173.945312 53.683594 174.460938 53.667969 174.710938 53.667969 C 174.992188 53.667969 175.492188 53.683594 175.835938 53.699219 L 175.835938 53.386719 C 175.179688 53.386719 175.070312 53.386719 175.070312 52.933594 Z M 175.070312 51.167969 "
     id="path26" />
  <path
     fill-rule="nonzero"
     fill="rgb(0%, 0%, 0%)"
     fill-opacity="1"
     d="M 183.773438 49.621094 C 183.773438 48.355469 182.789062 47.292969 181.585938 47.292969 C 180.335938 47.292969 179.367188 48.386719 179.367188 49.621094 C 179.367188 50.917969 180.398438 51.871094 181.570312 51.871094 C 182.773438 51.871094 183.773438 50.886719 183.773438 49.621094 Z M 181.585938 51.621094 C 181.148438 51.621094 180.710938 51.417969 180.445312 50.949219 C 180.195312 50.511719 180.195312 49.902344 180.195312 49.542969 C 180.195312 49.152344 180.195312 48.621094 180.429688 48.183594 C 180.695312 47.730469 181.164062 47.511719 181.570312 47.511719 C 182.007812 47.511719 182.429688 47.730469 182.695312 48.167969 C 182.960938 48.589844 182.960938 49.167969 182.960938 49.542969 C 182.960938 49.902344 182.960938 50.449219 182.742188 50.886719 C 182.507812 51.339844 182.070312 51.621094 181.585938 51.621094 Z M 181.585938 51.621094 "
     id="path28" />
  <path
     fill-rule="nonzero"
     fill="rgb(0%, 0%, 0%)"
     fill-opacity="1"
     d="M 188.253906 49.464844 C 188.472656 49.464844 188.503906 49.464844 188.503906 49.246094 C 188.503906 48.261719 187.957031 47.292969 186.722656 47.292969 C 185.566406 47.292969 184.644531 48.324219 184.644531 49.574219 C 184.644531 50.902344 185.691406 51.871094 186.832031 51.871094 C 188.050781 51.871094 188.503906 50.761719 188.503906 50.574219 C 188.503906 50.480469 188.425781 50.449219 188.363281 50.449219 C 188.285156 50.449219 188.253906 50.511719 188.238281 50.589844 C 187.894531 51.621094 186.988281 51.621094 186.894531 51.621094 C 186.394531 51.621094 186.003906 51.324219 185.769531 50.949219 C 185.472656 50.480469 185.472656 49.824219 185.472656 49.464844 Z M 185.472656 49.246094 C 185.535156 47.761719 186.378906 47.511719 186.722656 47.511719 C 187.738281 47.511719 187.847656 48.855469 187.847656 49.246094 Z M 185.472656 49.246094 "
     id="path30" />
  <path
     fill-rule="nonzero"
     fill="rgb(0%, 0%, 0%)"
     fill-opacity="1"
     d="M 189.894531 48.339844 L 189.894531 51.011719 C 189.894531 51.449219 189.785156 51.449219 189.113281 51.449219 L 189.113281 51.761719 C 189.472656 51.746094 189.972656 51.730469 190.253906 51.730469 C 190.503906 51.730469 191.019531 51.746094 191.363281 51.761719 L 191.363281 51.449219 C 190.691406 51.449219 190.582031 51.449219 190.582031 51.011719 L 190.582031 49.167969 C 190.582031 48.136719 191.300781 47.574219 191.925781 47.574219 C 192.566406 47.574219 192.675781 48.105469 192.675781 48.683594 L 192.675781 51.011719 C 192.675781 51.449219 192.566406 51.449219 191.894531 51.449219 L 191.894531 51.761719 C 192.238281 51.746094 192.753906 51.730469 193.019531 51.730469 C 193.269531 51.730469 193.800781 51.746094 194.128906 51.761719 L 194.128906 51.449219 C 193.472656 51.449219 193.363281 51.449219 193.363281 51.011719 L 193.363281 49.167969 C 193.363281 48.136719 194.066406 47.574219 194.707031 47.574219 C 195.332031 47.574219 195.441406 48.105469 195.441406 48.683594 L 195.441406 51.011719 C 195.441406 51.449219 195.332031 51.449219 194.660156 51.449219 L 194.660156 51.761719 C 195.003906 51.746094 195.519531 51.730469 195.785156 51.730469 C 196.050781 51.730469 196.566406 51.746094 196.910156 51.761719 L 196.910156 51.449219 C 196.394531 51.449219 196.144531 51.449219 196.128906 51.152344 L 196.128906 49.246094 C 196.128906 48.386719 196.128906 48.089844 195.816406 47.730469 C 195.675781 47.558594 195.347656 47.355469 194.769531 47.355469 C 193.941406 47.355469 193.488281 47.949219 193.332031 48.339844 C 193.191406 47.464844 192.457031 47.355469 192.003906 47.355469 C 191.269531 47.355469 190.800781 47.777344 190.519531 48.402344 L 190.519531 47.355469 L 189.113281 47.464844 L 189.113281 47.777344 C 189.816406 47.777344 189.894531 47.839844 189.894531 48.339844 Z M 189.894531 48.339844 "
     id="path32" />
  <path
     fill="none"
     stroke-width="0.498132"
     stroke-linecap="butt"
     stroke-linejoin="miter"
     stroke="rgb(0%, 0%, 0%)"
     stroke-opacity="1"
     stroke-miterlimit="10"
     d="M 268.363281 -50.582031 L 268.363281 -37.753906 L 221.769531 -50.582031 L 268.363281 -63.410156 Z M 268.363281 -50.582031 "
     transform="matrix(1, 0, 0, -1, 0, 0)"
     id="path34" />
  <path
     fill-rule="nonzero"
     fill="rgb(0%, 0%, 0%)"
     fill-opacity="1"
     d="M 248 53.257812 L 248 51.726562 C 248 50.742188 248.421875 49.851562 249.171875 49.851562 C 249.234375 49.851562 249.265625 49.851562 249.28125 49.867188 C 249.25 49.867188 249.046875 49.992188 249.046875 50.257812 C 249.046875 50.523438 249.265625 50.679688 249.484375 50.679688 C 249.65625 50.679688 249.90625 50.554688 249.90625 50.242188 C 249.90625 49.929688 249.59375 49.632812 249.171875 49.632812 C 248.4375 49.632812 248.078125 50.304688 247.953125 50.726562 L 247.953125 49.632812 L 246.5625 49.742188 L 246.5625 50.054688 C 247.265625 50.054688 247.34375 50.117188 247.34375 50.617188 L 247.34375 53.289062 C 247.34375 53.726562 247.234375 53.726562 246.5625 53.726562 L 246.5625 54.039062 C 246.953125 54.023438 247.421875 54.007812 247.703125 54.007812 C 248.09375 54.007812 248.5625 54.007812 248.96875 54.039062 L 248.96875 53.726562 L 248.75 53.726562 C 248.015625 53.726562 248 53.617188 248 53.257812 Z M 248 53.257812 "
     id="path36" />
  <path
     fill-rule="nonzero"
     fill="rgb(0%, 0%, 0%)"
     fill-opacity="1"
     d="M 254.132812 51.742188 C 254.351562 51.742188 254.382812 51.742188 254.382812 51.523438 C 254.382812 50.539062 253.835938 49.570312 252.601562 49.570312 C 251.445312 49.570312 250.523438 50.601562 250.523438 51.851562 C 250.523438 53.179688 251.570312 54.148438 252.710938 54.148438 C 253.929688 54.148438 254.382812 53.039062 254.382812 52.851562 C 254.382812 52.757812 254.304688 52.726562 254.242188 52.726562 C 254.164062 52.726562 254.132812 52.789062 254.117188 52.867188 C 253.773438 53.898438 252.867188 53.898438 252.773438 53.898438 C 252.273438 53.898438 251.882812 53.601562 251.648438 53.226562 C 251.351562 52.757812 251.351562 52.101562 251.351562 51.742188 Z M 251.351562 51.523438 C 251.414062 50.039062 252.257812 49.789062 252.601562 49.789062 C 253.617188 49.789062 253.726562 51.132812 253.726562 51.523438 Z M 251.351562 51.523438 "
     id="path38" />
  <path
     fill-rule="nonzero"
     fill="rgb(0%, 0%, 0%)"
     fill-opacity="1"
     d="M 257.992188 53.289062 C 258.039062 53.679688 258.304688 54.101562 258.773438 54.101562 C 258.992188 54.101562 259.601562 53.960938 259.601562 53.148438 L 259.601562 52.585938 L 259.351562 52.585938 L 259.351562 53.148438 C 259.351562 53.726562 259.101562 53.789062 258.992188 53.789062 C 258.664062 53.789062 258.617188 53.335938 258.617188 53.289062 L 258.617188 51.304688 C 258.617188 50.882812 258.617188 50.492188 258.257812 50.117188 C 257.867188 49.726562 257.367188 49.570312 256.898438 49.570312 C 256.070312 49.570312 255.382812 50.039062 255.382812 50.695312 C 255.382812 50.992188 255.585938 51.164062 255.851562 51.164062 C 256.132812 51.164062 256.304688 50.960938 256.304688 50.710938 C 256.304688 50.585938 256.257812 50.257812 255.789062 50.257812 C 256.070312 49.898438 256.554688 49.789062 256.867188 49.789062 C 257.367188 49.789062 257.929688 50.179688 257.929688 51.070312 L 257.929688 51.429688 C 257.414062 51.460938 256.726562 51.492188 256.101562 51.789062 C 255.351562 52.132812 255.101562 52.648438 255.101562 53.085938 C 255.101562 53.898438 256.070312 54.148438 256.695312 54.148438 C 257.351562 54.148438 257.804688 53.742188 257.992188 53.289062 Z M 257.929688 51.648438 L 257.929688 52.648438 C 257.929688 53.585938 257.210938 53.929688 256.757812 53.929688 C 256.273438 53.929688 255.867188 53.585938 255.867188 53.085938 C 255.867188 52.539062 256.289062 51.710938 257.929688 51.648438 Z M 257.929688 51.648438 "
     id="path40" />
  <path
     fill-rule="nonzero"
     fill="rgb(0%, 0%, 0%)"
     fill-opacity="1"
     d="M 263.5 53.492188 L 263.5 54.148438 L 264.96875 54.039062 L 264.96875 53.726562 C 264.28125 53.726562 264.1875 53.664062 264.1875 53.164062 L 264.1875 47.117188 L 262.765625 47.226562 L 262.765625 47.539062 C 263.453125 47.539062 263.53125 47.601562 263.53125 48.101562 L 263.53125 50.257812 C 263.25 49.898438 262.8125 49.632812 262.28125 49.632812 C 261.109375 49.632812 260.0625 50.617188 260.0625 51.898438 C 260.0625 53.164062 261.03125 54.148438 262.171875 54.148438 C 262.8125 54.148438 263.25 53.804688 263.5 53.492188 Z M 263.5 50.820312 L 263.5 52.867188 C 263.5 53.039062 263.5 53.054688 263.390625 53.226562 C 263.09375 53.710938 262.65625 53.929688 262.21875 53.929688 C 261.765625 53.929688 261.40625 53.664062 261.171875 53.289062 C 260.921875 52.882812 260.890625 52.320312 260.890625 51.898438 C 260.890625 51.539062 260.90625 50.945312 261.1875 50.492188 C 261.40625 50.179688 261.78125 49.851562 262.328125 49.851562 C 262.671875 49.851562 263.09375 50.007812 263.390625 50.445312 C 263.5 50.617188 263.5 50.632812 263.5 50.820312 Z M 263.5 50.820312 "
     id="path42" />
  <path
     fill="none"
     stroke-width="0.498132"
     stroke-linecap="butt"
     stroke-linejoin="miter"
     stroke="rgb(0%, 0%, 0%)"
     stroke-opacity="1"
     stroke-miterlimit="10"
     d="M 283.707031 -50.582031 L 283.707031 -36.910156 L 361.75 -36.910156 L 361.75 -64.25 L 283.707031 -64.25 Z M 283.707031 -50.582031 "
     transform="matrix(1, 0, 0, -1, 0, 0)"
     id="path44" />
  <path
     fill-rule="nonzero"
     fill="rgb(0%, 0%, 0%)"
     fill-opacity="1"
     d="M 90.746094 51.847656 L 94.234375 50.601562 L 90.746094 49.355469 L 92.140625 50.601562 "
     id="path70" />
  <path
     fill="none"
     stroke-width="0.498132"
     stroke-linecap="butt"
     stroke-linejoin="miter"
     stroke="rgb(0%, 0%, 0%)"
     stroke-opacity="1"
     stroke-miterlimit="10"
     d="M 70.695312 -50.613281 L 92.140625 -50.601562 "
     transform="matrix(1, 0, 0, -1, 0, 0)"
     id="path72" />
  <path
     fill-rule="nonzero"
     fill="rgb(0%, 0%, 0%)"
     fill-opacity="1"
     d="M 165.945312 51.832031 L 169.433594 50.585938 L 165.945312 49.339844 L 167.339844 50.585938 "
     id="path74" />
  <path
     fill="none"
     stroke-width="0.498132"
     stroke-linecap="butt"
     stroke-linejoin="miter"
     stroke="rgb(0%, 0%, 0%)"
     stroke-opacity="1"
     stroke-miterlimit="10"
     d="M 148.636719 -50.589844 L 167.339844 -50.585938 "
     transform="matrix(1, 0, 0, -1, 0, 0)"
     id="path76" />
  <path
     fill-rule="nonzero"
     fill="rgb(0%, 0%, 0%)"
     fill-opacity="1"
     d="M 217.347656 51.828125 L 220.835938 50.582031 L 217.347656 49.335938 L 218.742188 50.582031 "
     id="path78" />
  <path
     fill="none"
     stroke-width="0.498132"
     stroke-linecap="butt"
     stroke-linejoin="miter"
     stroke="rgb(0%, 0%, 0%)"
     stroke-opacity="1"
     stroke-miterlimit="10"
     d="M 201.007812 -50.582031 L 218.742188 -50.582031 "
     transform="matrix(1, 0, 0, -1, 0, 0)"
     id="path80" />
  <path
     fill-rule="nonzero"
     fill="rgb(0%, 0%, 0%)"
     fill-opacity="1"
     d="M 279.992188 51.828125 L 283.480469 50.582031 L 279.992188 49.335938 L 281.386719 50.582031 "
     id="path82" />
  <path
     fill="none"
     stroke-width="0.498132"
     stroke-linecap="butt"
     stroke-linejoin="miter"
     stroke="rgb(0%, 0%, 0%)"
     stroke-opacity="1"
     stroke-miterlimit="10"
     d="M 268.613281 -50.582031 L 281.386719 -50.582031 "
     transform="matrix(1, 0, 0, -1, 0, 0)"
     id="path84" />
  <path
     fill="none"
     stroke-width="0.498132"
     stroke-linecap="butt"
     stroke-linejoin="miter"
     stroke="rgb(0%, 0%, 0%)"
     stroke-opacity="1"
     stroke-miterlimit="10"
     d="M 206.261719 -50.632812 C 206.261719 -27.289062 161.953125 -8.363281 107.300781 -8.363281 C 52.644531 -8.363281 8.335938 -27.289062 8.335938 -50.632812 C 8.335938 -73.980469 52.644531 -92.90625 107.300781 -92.90625 C 161.953125 -92.90625 206.261719 -73.980469 206.261719 -50.632812 Z M 206.261719 -50.632812 "
     transform="matrix(1, 0, 0, -1, 0, 0)"
     id="path86" />
  <path
     fill-rule="nonzero"
     fill="rgb(0%, 0%, 0%)"
     fill-opacity="1"
     d="M 84.359375 14.464844 C 84.359375 14.246094 84.359375 14.230469 84.140625 14.230469 C 83.578125 14.792969 82.75 14.792969 82.46875 14.792969 L 82.46875 15.074219 C 82.640625 15.074219 83.1875 15.074219 83.671875 14.839844 L 83.671875 19.480469 C 83.671875 19.808594 83.65625 19.917969 82.8125 19.917969 L 82.53125 19.917969 L 82.53125 20.199219 C 82.84375 20.167969 83.65625 20.167969 84.015625 20.167969 C 84.390625 20.167969 85.1875 20.167969 85.515625 20.199219 L 85.515625 19.917969 L 85.234375 19.917969 C 84.390625 19.917969 84.359375 19.808594 84.359375 19.480469 Z M 84.359375 14.464844 "
     id="path88" />
  <path
     fill-rule="nonzero"
     fill="rgb(0%, 0%, 0%)"
     fill-opacity="1"
     d="M 90.449219 17.324219 C 90.449219 16.730469 90.417969 15.949219 90.105469 15.277344 C 89.699219 14.433594 89.027344 14.230469 88.511719 14.230469 C 87.964844 14.230469 87.277344 14.433594 86.886719 15.308594 C 86.605469 15.917969 86.558594 16.652344 86.558594 17.324219 C 86.558594 17.917969 86.574219 18.777344 86.964844 19.496094 C 87.386719 20.246094 88.089844 20.402344 88.496094 20.402344 C 89.074219 20.402344 89.746094 20.152344 90.121094 19.324219 C 90.386719 18.714844 90.449219 18.042969 90.449219 17.324219 Z M 88.511719 20.167969 C 88.230469 20.167969 87.589844 20.042969 87.417969 19.027344 C 87.324219 18.511719 87.324219 17.730469 87.324219 17.214844 C 87.324219 16.605469 87.324219 15.902344 87.433594 15.402344 C 87.621094 14.605469 88.183594 14.449219 88.496094 14.449219 C 88.839844 14.449219 89.402344 14.636719 89.574219 15.464844 C 89.667969 15.949219 89.667969 16.652344 89.667969 17.214844 C 89.667969 17.777344 89.667969 18.527344 89.574219 19.058594 C 89.386719 20.089844 88.730469 20.167969 88.511719 20.167969 Z M 88.511719 20.167969 "
     id="path90" />
  <path
     fill-rule="nonzero"
     fill="rgb(0%, 0%, 0%)"
     fill-opacity="1"
     d="M 92.371094 16.605469 L 93.683594 16.605469 L 93.683594 16.339844 L 92.371094 16.339844 L 92.371094 14.683594 L 92.121094 14.683594 C 92.121094 15.433594 91.808594 16.355469 90.933594 16.386719 L 90.933594 16.605469 L 91.714844 16.605469 L 91.714844 19.089844 C 91.714844 20.089844 92.433594 20.292969 92.917969 20.292969 C 93.511719 20.292969 93.824219 19.730469 93.824219 19.089844 L 93.824219 18.574219 L 93.574219 18.574219 L 93.574219 19.058594 C 93.574219 19.730469 93.292969 20.042969 92.980469 20.042969 C 92.371094 20.042969 92.371094 19.261719 92.371094 19.089844 Z M 92.371094 16.605469 "
     id="path92" />
  <path
     fill-rule="nonzero"
     fill="rgb(0%, 0%, 0%)"
     fill-opacity="1"
     d="M 98.582031 17.917969 C 98.582031 17.183594 98.582031 16.917969 98.332031 16.605469 C 98.128906 16.355469 97.785156 16.230469 97.332031 16.230469 C 96.738281 16.230469 96.285156 16.542969 96.019531 17.058594 L 96.003906 17.058594 L 96.003906 13.980469 L 94.675781 14.074219 L 94.675781 14.355469 C 95.285156 14.355469 95.363281 14.417969 95.363281 14.855469 L 95.363281 19.511719 C 95.363281 19.917969 95.269531 19.917969 94.675781 19.917969 L 94.675781 20.199219 C 95.097656 20.183594 95.269531 20.167969 95.707031 20.167969 C 96.128906 20.167969 96.253906 20.183594 96.722656 20.199219 L 96.722656 19.917969 C 96.128906 19.917969 96.035156 19.917969 96.035156 19.511719 L 96.035156 17.871094 C 96.035156 16.917969 96.707031 16.464844 97.269531 16.464844 C 97.800781 16.464844 97.910156 16.902344 97.910156 17.433594 L 97.910156 19.511719 C 97.910156 19.917969 97.816406 19.917969 97.222656 19.917969 L 97.222656 20.199219 C 97.644531 20.183594 97.816406 20.167969 98.253906 20.167969 C 98.675781 20.167969 98.800781 20.183594 99.269531 20.199219 L 99.269531 19.917969 C 98.816406 19.917969 98.582031 19.917969 98.582031 19.636719 Z M 98.582031 17.917969 "
     id="path94" />
  <path
     fill-rule="nonzero"
     fill="rgb(0%, 0%, 0%)"
     fill-opacity="1"
     d="M 105.910156 16.667969 C 105.722656 16.714844 105.535156 16.839844 105.535156 17.089844 C 105.535156 17.324219 105.722656 17.511719 105.957031 17.511719 C 106.191406 17.511719 106.378906 17.355469 106.378906 17.074219 C 106.378906 16.527344 105.753906 16.183594 104.957031 16.183594 C 103.816406 16.183594 102.957031 17.136719 102.957031 18.261719 C 102.957031 19.417969 103.878906 20.292969 104.941406 20.292969 C 106.191406 20.292969 106.472656 19.214844 106.472656 19.136719 C 106.472656 19.027344 106.378906 19.027344 106.347656 19.027344 C 106.253906 19.027344 106.253906 19.042969 106.191406 19.199219 C 105.988281 19.808594 105.488281 20.042969 105.035156 20.042969 C 104.457031 20.042969 103.722656 19.574219 103.722656 18.246094 C 103.722656 16.855469 104.441406 16.433594 104.972656 16.433594 C 105.097656 16.433594 105.582031 16.449219 105.910156 16.667969 Z M 105.910156 16.667969 "
     id="path96" />
  <path
     fill-rule="nonzero"
     fill="rgb(0%, 0%, 0%)"
     fill-opacity="1"
     d="M 110.320312 18.152344 C 110.507812 18.152344 110.554688 18.152344 110.554688 17.949219 C 110.554688 17.027344 110.054688 16.183594 108.898438 16.183594 C 107.835938 16.183594 106.992188 17.121094 106.992188 18.230469 C 106.992188 19.402344 107.929688 20.292969 109.023438 20.292969 C 110.117188 20.292969 110.554688 19.339844 110.554688 19.136719 C 110.554688 19.074219 110.507812 19.011719 110.429688 19.011719 C 110.335938 19.011719 110.320312 19.074219 110.304688 19.121094 C 110.007812 20.027344 109.195312 20.042969 109.070312 20.042969 C 108.632812 20.042969 108.273438 19.808594 108.070312 19.496094 C 107.773438 19.058594 107.757812 18.527344 107.757812 18.152344 Z M 107.773438 17.933594 C 107.851562 16.542969 108.648438 16.402344 108.898438 16.402344 C 109.398438 16.402344 109.929688 16.777344 109.945312 17.933594 Z M 107.773438 17.933594 "
     id="path98" />
  <path
     fill-rule="nonzero"
     fill="rgb(0%, 0%, 0%)"
     fill-opacity="1"
     d="M 115.023438 17.917969 C 115.023438 17.183594 115.023438 16.917969 114.773438 16.605469 C 114.570312 16.355469 114.226562 16.230469 113.773438 16.230469 C 112.945312 16.230469 112.554688 16.855469 112.429688 17.105469 L 112.414062 17.105469 L 112.414062 16.230469 L 111.117188 16.339844 L 111.117188 16.605469 C 111.726562 16.605469 111.804688 16.667969 111.804688 17.121094 L 111.804688 19.511719 C 111.804688 19.917969 111.710938 19.917969 111.117188 19.917969 L 111.117188 20.199219 C 111.539062 20.183594 111.710938 20.167969 112.148438 20.167969 C 112.570312 20.167969 112.695312 20.183594 113.164062 20.199219 L 113.164062 19.917969 C 112.570312 19.917969 112.476562 19.917969 112.476562 19.511719 L 112.476562 17.871094 C 112.476562 16.917969 113.148438 16.464844 113.710938 16.464844 C 114.242188 16.464844 114.351562 16.902344 114.351562 17.433594 L 114.351562 19.511719 C 114.351562 19.917969 114.257812 19.917969 113.664062 19.917969 L 113.664062 20.199219 C 114.085938 20.183594 114.257812 20.167969 114.695312 20.167969 C 115.117188 20.167969 115.242188 20.183594 115.710938 20.199219 L 115.710938 19.917969 C 115.257812 19.917969 115.023438 19.917969 115.023438 19.636719 Z M 115.023438 17.917969 "
     id="path100" />
  <path
     fill-rule="nonzero"
     fill="rgb(0%, 0%, 0%)"
     fill-opacity="1"
     d="M 117.335938 16.605469 L 118.648438 16.605469 L 118.648438 16.339844 L 117.335938 16.339844 L 117.335938 14.683594 L 117.085938 14.683594 C 117.085938 15.433594 116.773438 16.355469 115.898438 16.386719 L 115.898438 16.605469 L 116.679688 16.605469 L 116.679688 19.089844 C 116.679688 20.089844 117.398438 20.292969 117.882812 20.292969 C 118.476562 20.292969 118.789062 19.730469 118.789062 19.089844 L 118.789062 18.574219 L 118.539062 18.574219 L 118.539062 19.058594 C 118.539062 19.730469 118.257812 20.042969 117.945312 20.042969 C 117.335938 20.042969 117.335938 19.261719 117.335938 19.089844 Z M 117.335938 16.605469 "
     id="path102" />
  <path
     fill-rule="nonzero"
     fill="rgb(0%, 0%, 0%)"
     fill-opacity="1"
     d="M 122.1875 16.339844 L 122.1875 16.605469 C 122.796875 16.605469 122.875 16.667969 122.875 17.121094 L 122.875 18.699219 C 122.875 19.496094 122.4375 20.074219 121.78125 20.074219 C 121.046875 20.074219 121 19.683594 121 19.199219 L 121 16.230469 L 119.640625 16.339844 L 119.640625 16.605469 C 120.328125 16.605469 120.328125 16.636719 120.328125 17.433594 L 120.328125 18.777344 C 120.328125 19.371094 120.328125 19.746094 120.75 20.058594 C 121 20.230469 121.375 20.292969 121.734375 20.292969 C 122.203125 20.292969 122.640625 20.089844 122.890625 19.558594 L 122.90625 19.558594 L 122.90625 20.292969 L 124.234375 20.199219 L 124.234375 19.917969 C 123.625 19.917969 123.546875 19.855469 123.546875 19.417969 L 123.546875 16.230469 Z M 122.1875 16.339844 "
     id="path104" />
  <path
     fill-rule="nonzero"
     fill="rgb(0%, 0%, 0%)"
     fill-opacity="1"
     d="M 126.082031 18.152344 C 126.082031 17.777344 126.175781 16.464844 127.207031 16.464844 C 127.191406 16.480469 127.050781 16.589844 127.050781 16.792969 C 127.050781 17.042969 127.238281 17.199219 127.441406 17.199219 C 127.628906 17.199219 127.832031 17.058594 127.832031 16.792969 C 127.832031 16.511719 127.566406 16.230469 127.160156 16.230469 C 126.628906 16.230469 126.253906 16.605469 126.035156 17.167969 L 126.035156 16.230469 L 124.753906 16.339844 L 124.753906 16.605469 C 125.363281 16.605469 125.441406 16.667969 125.441406 17.121094 L 125.441406 19.511719 C 125.441406 19.917969 125.347656 19.917969 124.753906 19.917969 L 124.753906 20.199219 C 125.238281 20.183594 125.347656 20.167969 125.800781 20.167969 C 126.160156 20.167969 126.378906 20.183594 126.941406 20.199219 L 126.941406 19.917969 L 126.769531 19.917969 C 126.113281 19.917969 126.082031 19.824219 126.082031 19.496094 Z M 126.082031 18.152344 "
     id="path106" />
  <path
     fill-rule="nonzero"
     fill="rgb(0%, 0%, 0%)"
     fill-opacity="1"
     d="M 131.917969 17.230469 C 132.011719 16.996094 132.183594 16.636719 132.746094 16.605469 L 132.746094 16.339844 C 132.464844 16.355469 132.183594 16.355469 132.074219 16.355469 C 131.824219 16.355469 131.542969 16.355469 131.292969 16.339844 L 131.292969 16.605469 C 131.699219 16.636719 131.699219 16.949219 131.699219 16.996094 C 131.699219 17.089844 131.667969 17.183594 131.636719 17.246094 L 130.730469 19.386719 L 129.714844 17.027344 C 129.667969 16.902344 129.667969 16.855469 129.667969 16.839844 C 129.667969 16.605469 129.980469 16.605469 130.167969 16.605469 L 130.167969 16.339844 C 129.714844 16.355469 129.542969 16.355469 129.167969 16.355469 C 129.136719 16.355469 128.621094 16.355469 128.277344 16.339844 L 128.277344 16.605469 C 128.683594 16.605469 128.855469 16.636719 128.964844 16.871094 L 130.371094 20.199219 C 130.277344 20.433594 130.230469 20.558594 130.152344 20.730469 C 129.949219 21.199219 129.699219 21.808594 129.105469 21.808594 C 128.886719 21.808594 128.730469 21.699219 128.714844 21.683594 C 128.777344 21.667969 129.027344 21.605469 129.027344 21.292969 C 129.027344 21.058594 128.855469 20.917969 128.652344 20.917969 C 128.433594 20.917969 128.261719 21.058594 128.261719 21.308594 C 128.261719 21.699219 128.652344 22.042969 129.105469 22.042969 C 129.699219 22.042969 130.074219 21.511719 130.292969 21.027344 Z M 131.917969 17.230469 "
     id="path108" />
  <path
     fill-rule="nonzero"
     fill="rgb(0%, 0%, 0%)"
     fill-opacity="1"
     d="M 69.234375 22.625 L 63.65625 22.625 L 63.65625 23.0625 L 64.625 23.0625 L 64.625 28.28125 L 63.65625 28.28125 L 63.65625 28.71875 C 63.96875 28.6875 64.953125 28.6875 65.328125 28.6875 C 65.75 28.6875 66.765625 28.6875 67.140625 28.71875 L 67.140625 28.28125 L 65.921875 28.28125 L 65.921875 25.890625 L 66.40625 25.890625 C 67.28125 25.890625 67.359375 26.265625 67.359375 26.9375 L 67.8125 26.9375 L 67.8125 24.390625 L 67.359375 24.390625 C 67.359375 25.0625 67.28125 25.4375 66.40625 25.4375 L 65.921875 25.4375 L 65.921875 23.0625 L 67.25 23.0625 C 68.6875 23.0625 68.90625 23.734375 69.046875 24.796875 L 69.5 24.796875 Z M 69.234375 22.625 "
     id="path110" />
  <path
     fill-rule="nonzero"
     fill="rgb(0%, 0%, 0%)"
     fill-opacity="1"
     d="M 72.160156 23.1875 C 72.160156 22.734375 71.785156 22.484375 71.457031 22.484375 C 71.050781 22.484375 70.753906 22.828125 70.753906 23.1875 C 70.753906 23.5625 71.050781 23.890625 71.457031 23.890625 C 71.800781 23.890625 72.160156 23.625 72.160156 23.1875 Z M 70.503906 24.75 L 70.503906 25.1875 C 71.019531 25.1875 71.082031 25.1875 71.082031 25.546875 L 71.082031 28.28125 L 70.472656 28.28125 L 70.472656 28.71875 C 71.066406 28.703125 71.191406 28.6875 71.566406 28.6875 C 72.003906 28.6875 72.113281 28.703125 72.628906 28.71875 L 72.628906 28.28125 L 72.082031 28.28125 L 72.082031 24.6875 Z M 70.503906 24.75 "
     id="path112" />
  <path
     fill-rule="nonzero"
     fill="rgb(0%, 0%, 0%)"
     fill-opacity="1"
     d="M 77.269531 26.796875 C 77.457031 26.796875 77.566406 26.796875 77.566406 26.546875 C 77.566406 26.34375 77.550781 25.546875 76.972656 25.0625 C 76.566406 24.734375 76.019531 24.65625 75.582031 24.65625 C 74.050781 24.65625 73.300781 25.625 73.300781 26.703125 C 73.300781 27.875 74.191406 28.765625 75.707031 28.765625 C 77.191406 28.765625 77.566406 27.828125 77.566406 27.671875 C 77.566406 27.5 77.394531 27.5 77.332031 27.5 C 77.175781 27.5 77.160156 27.546875 77.097656 27.671875 C 76.894531 28.140625 76.347656 28.390625 75.785156 28.390625 C 74.503906 28.390625 74.488281 27.234375 74.488281 26.796875 Z M 74.488281 26.46875 C 74.503906 26.0625 74.550781 25.015625 75.582031 25.015625 C 76.628906 25.015625 76.675781 26.109375 76.691406 26.46875 Z M 74.488281 26.46875 "
     id="path114" />
  <path
     fill-rule="nonzero"
     fill="rgb(0%, 0%, 0%)"
     fill-opacity="1"
     d="M 80.003906 22.5 L 78.394531 22.5625 L 78.394531 23 C 78.925781 23 79.003906 23 79.003906 23.359375 L 79.003906 28.28125 L 78.394531 28.28125 L 78.394531 28.71875 C 79.003906 28.6875 79.113281 28.6875 79.488281 28.6875 C 79.894531 28.6875 80.128906 28.703125 80.613281 28.71875 L 80.613281 28.28125 L 80.003906 28.28125 Z M 80.003906 22.5 "
     id="path116" />
  <path
     fill-rule="nonzero"
     fill="rgb(0%, 0%, 0%)"
     fill-opacity="1"
     d="M 84.226562 22.5625 L 84.226562 23 C 84.773438 23 84.835938 23 84.835938 23.359375 L 84.835938 25.09375 C 84.445312 24.796875 84.023438 24.6875 83.585938 24.6875 C 82.132812 24.6875 81.273438 25.578125 81.273438 26.734375 C 81.273438 27.921875 82.117188 28.765625 83.492188 28.765625 C 84.054688 28.765625 84.492188 28.5625 84.789062 28.328125 L 84.789062 28.765625 L 86.445312 28.71875 L 86.445312 28.28125 C 85.914062 28.28125 85.835938 28.28125 85.835938 27.921875 L 85.835938 22.5 Z M 84.789062 27.734375 C 84.585938 28.0625 84.164062 28.40625 83.585938 28.40625 C 82.476562 28.40625 82.476562 27.34375 82.476562 26.75 C 82.476562 26.21875 82.476562 25.84375 82.710938 25.515625 C 82.945312 25.15625 83.382812 25.046875 83.695312 25.046875 C 84.132812 25.046875 84.507812 25.234375 84.789062 25.59375 Z M 84.789062 27.734375 "
     id="path118" />
  <path
     fill-rule="nonzero"
     fill="rgb(0%, 0%, 0%)"
     fill-opacity="1"
     d="M 95.046875 26.765625 C 95.046875 25.59375 94.21875 24.65625 92.703125 24.65625 C 91.125 24.65625 90.34375 25.640625 90.34375 26.765625 C 90.34375 27.875 91.15625 28.765625 92.6875 28.765625 C 94.296875 28.765625 95.046875 27.828125 95.046875 26.765625 Z M 92.703125 28.390625 C 91.53125 28.390625 91.53125 27.4375 91.53125 26.671875 C 91.53125 25.90625 91.53125 25.015625 92.6875 25.015625 C 93.859375 25.015625 93.859375 25.90625 93.859375 26.671875 C 93.859375 27.4375 93.859375 28.390625 92.703125 28.390625 Z M 92.703125 28.390625 "
     id="path120" />
  <path
     fill-rule="nonzero"
     fill="rgb(0%, 0%, 0%)"
     fill-opacity="1"
     d="M 97.40625 25.171875 L 98.46875 25.171875 L 98.46875 24.734375 L 97.359375 24.734375 L 97.359375 23.84375 C 97.359375 22.875 98.046875 22.796875 98.28125 22.796875 C 98.3125 22.796875 98.390625 22.796875 98.390625 22.8125 C 98.390625 22.828125 98.390625 22.828125 98.375 22.859375 C 98.28125 22.96875 98.234375 23.09375 98.234375 23.234375 C 98.234375 23.609375 98.53125 23.8125 98.796875 23.8125 C 99.09375 23.8125 99.375 23.59375 99.375 23.234375 C 99.375 22.828125 99.015625 22.4375 98.328125 22.4375 C 97.375 22.4375 96.40625 22.84375 96.40625 23.84375 L 96.40625 24.734375 L 95.71875 24.734375 L 95.71875 25.171875 L 96.40625 25.171875 L 96.40625 28.28125 L 95.796875 28.28125 L 95.796875 28.71875 C 96.46875 28.6875 96.515625 28.6875 96.953125 28.6875 C 97.171875 28.6875 97.703125 28.6875 98.171875 28.71875 L 98.171875 28.28125 L 97.40625 28.28125 Z M 97.40625 25.171875 "
     id="path122" />
  <path
     fill-rule="nonzero"
     fill="rgb(0%, 0%, 0%)"
     fill-opacity="1"
     d="M 106.4375 26.796875 C 106.625 26.796875 106.734375 26.796875 106.734375 26.546875 C 106.734375 26.34375 106.71875 25.546875 106.140625 25.0625 C 105.734375 24.734375 105.1875 24.65625 104.75 24.65625 C 103.21875 24.65625 102.46875 25.625 102.46875 26.703125 C 102.46875 27.875 103.359375 28.765625 104.875 28.765625 C 106.359375 28.765625 106.734375 27.828125 106.734375 27.671875 C 106.734375 27.5 106.5625 27.5 106.5 27.5 C 106.34375 27.5 106.328125 27.546875 106.265625 27.671875 C 106.0625 28.140625 105.515625 28.390625 104.953125 28.390625 C 103.671875 28.390625 103.65625 27.234375 103.65625 26.796875 Z M 103.65625 26.46875 C 103.671875 26.0625 103.71875 25.015625 104.75 25.015625 C 105.796875 25.015625 105.84375 26.109375 105.859375 26.46875 Z M 103.65625 26.46875 "
     id="path124" />
  <path
     fill-rule="nonzero"
     fill="rgb(0%, 0%, 0%)"
     fill-opacity="1"
     d="M 110.296875 26.515625 L 111.40625 25.34375 C 111.5 25.234375 111.5625 25.171875 112.28125 25.171875 L 112.28125 24.734375 C 111.96875 24.765625 111.734375 24.765625 111.4375 24.765625 C 111.28125 24.765625 110.9375 24.765625 110.53125 24.734375 L 110.53125 25.171875 C 110.71875 25.171875 110.765625 25.21875 110.828125 25.28125 L 110 26.1875 L 109.109375 25.171875 L 109.4375 25.171875 L 109.4375 24.734375 C 108.890625 24.75 108.65625 24.765625 108.359375 24.765625 C 108.171875 24.765625 107.828125 24.765625 107.375 24.734375 L 107.375 25.171875 L 108 25.171875 L 109.421875 26.796875 L 108.21875 28.109375 C 108.046875 28.28125 107.734375 28.28125 107.328125 28.28125 L 107.328125 28.71875 C 107.625 28.6875 107.859375 28.6875 108.15625 28.6875 C 108.328125 28.6875 108.671875 28.6875 109.078125 28.71875 L 109.078125 28.28125 C 108.9375 28.28125 108.78125 28.25 108.78125 28.1875 C 108.78125 28.140625 108.84375 28.09375 108.859375 28.078125 L 109.734375 27.140625 L 110.71875 28.28125 L 110.40625 28.28125 L 110.40625 28.71875 C 110.984375 28.703125 111.1875 28.6875 111.484375 28.6875 C 111.6875 28.6875 112.015625 28.6875 112.46875 28.71875 L 112.46875 28.28125 L 111.84375 28.28125 Z M 110.296875 26.515625 "
     id="path126" />
  <path
     fill-rule="nonzero"
     fill="rgb(0%, 0%, 0%)"
     fill-opacity="1"
     d="M 115.378906 30.015625 L 114.769531 30.015625 L 114.769531 28.375 C 115.300781 28.765625 115.785156 28.765625 115.957031 28.765625 C 117.363281 28.765625 118.269531 27.921875 118.269531 26.734375 C 118.269531 25.546875 117.457031 24.6875 116.097656 24.6875 C 115.378906 24.6875 114.878906 24.984375 114.707031 25.109375 L 114.707031 24.6875 L 113.113281 24.75 L 113.113281 25.1875 C 113.285156 25.1875 113.425781 25.1875 113.550781 25.21875 C 113.722656 25.25 113.722656 25.34375 113.722656 25.53125 L 113.722656 30.015625 L 113.113281 30.015625 L 113.113281 30.453125 C 113.769531 30.4375 113.878906 30.4375 114.238281 30.4375 C 114.597656 30.4375 114.691406 30.4375 115.378906 30.453125 Z M 114.769531 25.625 C 114.925781 25.421875 115.347656 25.0625 115.957031 25.0625 C 116.582031 25.0625 117.082031 25.625 117.082031 26.71875 C 117.082031 27.96875 116.441406 28.40625 115.847656 28.40625 C 115.394531 28.40625 115.003906 28.15625 114.769531 27.78125 Z M 114.769531 25.625 "
     id="path128" />
  <path
     fill-rule="nonzero"
     fill="rgb(0%, 0%, 0%)"
     fill-opacity="1"
     d="M 123.117188 26.796875 C 123.304688 26.796875 123.414062 26.796875 123.414062 26.546875 C 123.414062 26.34375 123.398438 25.546875 122.820312 25.0625 C 122.414062 24.734375 121.867188 24.65625 121.429688 24.65625 C 119.898438 24.65625 119.148438 25.625 119.148438 26.703125 C 119.148438 27.875 120.039062 28.765625 121.554688 28.765625 C 123.039062 28.765625 123.414062 27.828125 123.414062 27.671875 C 123.414062 27.5 123.242188 27.5 123.179688 27.5 C 123.023438 27.5 123.007812 27.546875 122.945312 27.671875 C 122.742188 28.140625 122.195312 28.390625 121.632812 28.390625 C 120.351562 28.390625 120.335938 27.234375 120.335938 26.796875 Z M 120.335938 26.46875 C 120.351562 26.0625 120.398438 25.015625 121.429688 25.015625 C 122.476562 25.015625 122.523438 26.109375 122.539062 26.46875 Z M 120.335938 26.46875 "
     id="path130" />
  <path
     fill-rule="nonzero"
     fill="rgb(0%, 0%, 0%)"
     fill-opacity="1"
     d="M 125.742188 26.765625 C 125.742188 26.109375 125.992188 25.0625 126.851562 25.046875 C 126.757812 25.140625 126.710938 25.296875 126.710938 25.4375 C 126.710938 25.828125 127.023438 26.015625 127.273438 26.015625 C 127.570312 26.015625 127.851562 25.8125 127.851562 25.4375 C 127.851562 24.984375 127.382812 24.6875 126.851562 24.6875 C 126.226562 24.6875 125.851562 25.140625 125.648438 25.65625 L 125.632812 25.65625 L 125.632812 24.6875 L 124.148438 24.75 L 124.148438 25.1875 C 124.679688 25.1875 124.757812 25.1875 124.757812 25.546875 L 124.757812 28.28125 L 124.148438 28.28125 L 124.148438 28.71875 C 124.804688 28.6875 124.851562 28.6875 125.289062 28.6875 C 125.507812 28.6875 126.039062 28.6875 126.507812 28.71875 L 126.507812 28.28125 L 125.742188 28.28125 Z M 125.742188 26.765625 "
     id="path132" />
  <path
     fill-rule="nonzero"
     fill="rgb(0%, 0%, 0%)"
     fill-opacity="1"
     d="M 130.25 23.1875 C 130.25 22.734375 129.875 22.484375 129.546875 22.484375 C 129.140625 22.484375 128.84375 22.828125 128.84375 23.1875 C 128.84375 23.5625 129.140625 23.890625 129.546875 23.890625 C 129.890625 23.890625 130.25 23.625 130.25 23.1875 Z M 128.59375 24.75 L 128.59375 25.1875 C 129.109375 25.1875 129.171875 25.1875 129.171875 25.546875 L 129.171875 28.28125 L 128.5625 28.28125 L 128.5625 28.71875 C 129.15625 28.703125 129.28125 28.6875 129.65625 28.6875 C 130.09375 28.6875 130.203125 28.703125 130.71875 28.71875 L 130.71875 28.28125 L 130.171875 28.28125 L 130.171875 24.6875 Z M 128.59375 24.75 "
     id="path134" />
  <path
     fill-rule="nonzero"
     fill="rgb(0%, 0%, 0%)"
     fill-opacity="1"
     d="M 135.359375 26.796875 C 135.546875 26.796875 135.65625 26.796875 135.65625 26.546875 C 135.65625 26.34375 135.640625 25.546875 135.0625 25.0625 C 134.65625 24.734375 134.109375 24.65625 133.671875 24.65625 C 132.140625 24.65625 131.390625 25.625 131.390625 26.703125 C 131.390625 27.875 132.28125 28.765625 133.796875 28.765625 C 135.28125 28.765625 135.65625 27.828125 135.65625 27.671875 C 135.65625 27.5 135.484375 27.5 135.421875 27.5 C 135.265625 27.5 135.25 27.546875 135.1875 27.671875 C 134.984375 28.140625 134.4375 28.390625 133.875 28.390625 C 132.59375 28.390625 132.578125 27.234375 132.578125 26.796875 Z M 132.578125 26.46875 C 132.59375 26.0625 132.640625 25.015625 133.671875 25.015625 C 134.71875 25.015625 134.765625 26.109375 134.78125 26.46875 Z M 132.578125 26.46875 "
     id="path136" />
  <path
     fill-rule="nonzero"
     fill="rgb(0%, 0%, 0%)"
     fill-opacity="1"
     d="M 141.0625 25.984375 C 141.0625 24.921875 140.40625 24.6875 139.625 24.6875 C 138.53125 24.6875 138.09375 25.484375 138.03125 25.625 L 138.015625 25.625 L 138.015625 24.6875 L 136.46875 24.75 L 136.46875 25.1875 C 137 25.1875 137.078125 25.1875 137.078125 25.546875 L 137.078125 28.28125 L 136.46875 28.28125 L 136.46875 28.71875 C 137.125 28.6875 137.234375 28.6875 137.59375 28.6875 C 137.96875 28.6875 138.046875 28.6875 138.734375 28.71875 L 138.734375 28.28125 L 138.125 28.28125 L 138.125 26.4375 C 138.125 25.4375 138.953125 25.046875 139.484375 25.046875 C 139.828125 25.046875 140 25.234375 140 25.90625 L 140 28.28125 L 139.390625 28.28125 L 139.390625 28.71875 C 140.0625 28.6875 140.171875 28.6875 140.53125 28.6875 C 140.890625 28.6875 140.984375 28.6875 141.671875 28.71875 L 141.671875 28.28125 L 141.0625 28.28125 Z M 141.0625 25.984375 "
     id="path138" />
  <path
     fill-rule="nonzero"
     fill="rgb(0%, 0%, 0%)"
     fill-opacity="1"
     d="M 146.296875 27.671875 C 146.296875 27.53125 146.171875 27.53125 146.0625 27.53125 C 145.890625 27.53125 145.890625 27.546875 145.8125 27.703125 C 145.640625 28.140625 145.234375 28.390625 144.703125 28.390625 C 143.4375 28.390625 143.4375 27.09375 143.4375 26.6875 C 143.4375 26.15625 143.4375 25.046875 144.609375 25.046875 C 144.6875 25.046875 145.171875 25.046875 145.171875 25.09375 C 145.171875 25.109375 145.140625 25.125 145.140625 25.140625 C 145.0625 25.234375 145.015625 25.375 145.015625 25.515625 C 145.015625 25.875 145.296875 26.09375 145.609375 26.09375 C 145.875 26.09375 146.1875 25.90625 146.1875 25.5 C 146.1875 24.65625 144.9375 24.65625 144.578125 24.65625 C 142.859375 24.65625 142.234375 25.75 142.234375 26.734375 C 142.234375 27.859375 143.046875 28.765625 144.53125 28.765625 C 144.875 28.765625 145.3125 28.71875 145.6875 28.484375 C 146.203125 28.171875 146.296875 27.703125 146.296875 27.671875 Z M 146.296875 27.671875 "
     id="path140" />
  <path
     fill-rule="nonzero"
     fill="rgb(0%, 0%, 0%)"
     fill-opacity="1"
     d="M 150.839844 26.796875 C 151.027344 26.796875 151.136719 26.796875 151.136719 26.546875 C 151.136719 26.34375 151.121094 25.546875 150.542969 25.0625 C 150.136719 24.734375 149.589844 24.65625 149.152344 24.65625 C 147.621094 24.65625 146.871094 25.625 146.871094 26.703125 C 146.871094 27.875 147.761719 28.765625 149.277344 28.765625 C 150.761719 28.765625 151.136719 27.828125 151.136719 27.671875 C 151.136719 27.5 150.964844 27.5 150.902344 27.5 C 150.746094 27.5 150.730469 27.546875 150.667969 27.671875 C 150.464844 28.140625 149.917969 28.390625 149.355469 28.390625 C 148.074219 28.390625 148.058594 27.234375 148.058594 26.796875 Z M 148.058594 26.46875 C 148.074219 26.0625 148.121094 25.015625 149.152344 25.015625 C 150.199219 25.015625 150.246094 26.109375 150.261719 26.46875 Z M 148.058594 26.46875 "
     id="path142" />
  <path
     fill="none"
     stroke-width="0.498132"
     stroke-linecap="butt"
     stroke-linejoin="miter"
     stroke="rgb(0%, 0%, 0%)"
     stroke-opacity="1"
     stroke-dasharray="2.98646 1.99097"
     stroke-dashoffset="1.49323"
     stroke-miterlimit="10"
     d="M 376.339844 -50.632812 L 376.339844 -50.089844 L 376.203125 -48.457031 L 375.792969 -46.3125 L 375.117188 -44.195312 L 374.1875 -42.113281 L 373.003906 -40.070312 L 371.574219 -38.0625 L 369.90625 -36.101562 L 368.007812 -34.179688 L 365.882812 -32.308594 L 363.539062 -30.484375 L 360.988281 -28.714844 L 358.230469 -27 L 355.273438 -25.34375 L 352.125 -23.746094 L 348.789062 -22.210938 L 345.277344 -20.742188 L 341.597656 -19.34375 L 337.746094 -18.015625 L 333.742188 -16.761719 L 329.585938 -15.582031 L 325.28125 -14.484375 L 320.839844 -13.464844 L 316.269531 -12.53125 L 311.570312 -11.683594 L 306.753906 -10.929688 L 301.828125 -10.265625 L 296.792969 -9.695312 L 291.664062 -9.222656 L 286.441406 -8.851562 L 281.132812 -8.582031 L 275.746094 -8.417969 L 271.65625 -8.363281 L 268.925781 -8.363281 L 264.835938 -8.417969 L 259.449219 -8.582031 L 254.140625 -8.851562 L 248.917969 -9.222656 L 243.789062 -9.695312 L 238.753906 -10.265625 L 233.828125 -10.929688 L 229.011719 -11.683594 L 224.3125 -12.53125 L 219.742188 -13.464844 L 215.300781 -14.484375 L 210.996094 -15.582031 L 206.839844 -16.761719 L 202.832031 -18.015625 L 198.984375 -19.34375 L 195.300781 -20.742188 L 191.789062 -22.210938 L 188.457031 -23.746094 L 185.308594 -25.34375 L 182.351562 -27 L 179.59375 -28.714844 L 177.039062 -30.484375 L 174.699219 -32.308594 L 172.574219 -34.179688 L 170.675781 -36.101562 L 169.007812 -38.0625 L 167.578125 -40.070312 L 166.394531 -42.113281 L 165.464844 -44.195312 L 164.789062 -46.3125 L 164.378906 -48.457031 L 164.242188 -50.089844 L 164.242188 -51.175781 L 164.378906 -52.808594 L 164.789062 -54.957031 L 165.464844 -57.070312 L 166.394531 -59.152344 L 167.578125 -61.199219 L 169.007812 -63.203125 L 170.675781 -65.167969 L 172.574219 -67.085938 L 174.699219 -68.960938 L 177.039062 -70.78125 L 179.59375 -72.550781 L 182.351562 -74.269531 L 185.308594 -75.925781 L 188.457031 -77.523438 L 191.789062 -79.054688 L 195.300781 -80.523438 L 198.984375 -81.921875 L 202.832031 -83.253906 L 206.839844 -84.507812 L 210.996094 -85.683594 L 215.300781 -86.785156 L 219.742188 -87.800781 L 224.3125 -88.734375 L 229.011719 -89.582031 L 233.828125 -90.339844 L 238.753906 -91.003906 L 243.789062 -91.574219 L 248.917969 -92.046875 L 254.140625 -92.417969 L 259.449219 -92.6875 L 264.835938 -92.851562 L 268.925781 -92.90625 L 271.65625 -92.90625 L 275.746094 -92.851562 L 281.132812 -92.6875 L 286.441406 -92.417969 L 291.664062 -92.046875 L 296.792969 -91.574219 L 301.828125 -91.003906 L 306.753906 -90.339844 L 311.570312 -89.582031 L 316.269531 -88.734375 L 320.839844 -87.800781 L 325.28125 -86.785156 L 329.585938 -85.683594 L 333.742188 -84.507812 L 337.746094 -83.253906 L 341.597656 -81.921875 L 345.277344 -80.523438 L 348.789062 -79.054688 L 352.125 -77.523438 L 355.273438 -75.925781 L 358.230469 -74.269531 L 360.988281 -72.550781 L 363.539062 -70.78125 L 365.882812 -68.960938 L 368.007812 -67.085938 L 369.90625 -65.167969 L 371.574219 -63.203125 L 373.003906 -61.199219 L 374.1875 -59.152344 L 375.117188 -57.070312 L 375.792969 -54.957031 L 376.203125 -52.808594 L 376.339844 -51.175781 Z M 376.339844 -50.632812 "
     id="path144"
     style="stroke-dasharray:none;stroke-dashoffset:0"
     transform="matrix(1, 0, 0, -1, 0, 0)" />
  <path
     fill-rule="nonzero"
     fill="rgb(0%, 0%, 0%)"
     fill-opacity="1"
     d="M 270.101562 18.605469 L 269.851562 18.605469 C 269.835938 18.730469 269.757812 19.261719 269.648438 19.402344 C 269.585938 19.480469 268.976562 19.480469 268.789062 19.480469 L 267.195312 19.480469 C 267.382812 19.308594 267.976562 18.730469 268.085938 18.636719 C 269.554688 17.371094 270.101562 16.886719 270.101562 15.980469 C 270.101562 14.949219 269.257812 14.230469 268.148438 14.230469 C 267.117188 14.230469 266.414062 15.042969 266.414062 15.855469 C 266.414062 16.308594 266.804688 16.355469 266.882812 16.355469 C 267.085938 16.355469 267.351562 16.214844 267.351562 15.886719 C 267.351562 15.621094 267.164062 15.417969 266.882812 15.417969 C 266.835938 15.417969 266.820312 15.417969 266.773438 15.433594 C 266.992188 14.792969 267.570312 14.511719 268.054688 14.511719 C 268.960938 14.511719 269.273438 15.355469 269.273438 15.980469 C 269.273438 16.886719 268.585938 17.636719 268.164062 18.105469 L 266.523438 19.871094 C 266.414062 19.980469 266.414062 19.996094 266.414062 20.199219 L 269.851562 20.199219 Z M 270.101562 18.605469 "
     id="path146" />
  <path
     fill-rule="nonzero"
     fill="rgb(0%, 0%, 0%)"
     fill-opacity="1"
     d="M 274.769531 17.324219 C 274.769531 16.730469 274.738281 15.949219 274.425781 15.277344 C 274.019531 14.433594 273.347656 14.230469 272.832031 14.230469 C 272.285156 14.230469 271.597656 14.433594 271.207031 15.308594 C 270.925781 15.917969 270.878906 16.652344 270.878906 17.324219 C 270.878906 17.917969 270.894531 18.777344 271.285156 19.496094 C 271.707031 20.246094 272.410156 20.402344 272.816406 20.402344 C 273.394531 20.402344 274.066406 20.152344 274.441406 19.324219 C 274.707031 18.714844 274.769531 18.042969 274.769531 17.324219 Z M 272.832031 20.167969 C 272.550781 20.167969 271.910156 20.042969 271.738281 19.027344 C 271.644531 18.511719 271.644531 17.730469 271.644531 17.214844 C 271.644531 16.605469 271.644531 15.902344 271.753906 15.402344 C 271.941406 14.605469 272.503906 14.449219 272.816406 14.449219 C 273.160156 14.449219 273.722656 14.636719 273.894531 15.464844 C 273.988281 15.949219 273.988281 16.652344 273.988281 17.214844 C 273.988281 17.777344 273.988281 18.527344 273.894531 19.058594 C 273.707031 20.089844 273.050781 20.167969 272.832031 20.167969 Z M 272.832031 20.167969 "
     id="path148" />
  <path
     fill-rule="nonzero"
     fill="rgb(0%, 0%, 0%)"
     fill-opacity="1"
     d="M 276.691406 16.605469 L 278.003906 16.605469 L 278.003906 16.339844 L 276.691406 16.339844 L 276.691406 14.683594 L 276.441406 14.683594 C 276.441406 15.433594 276.128906 16.355469 275.253906 16.386719 L 275.253906 16.605469 L 276.035156 16.605469 L 276.035156 19.089844 C 276.035156 20.089844 276.753906 20.292969 277.238281 20.292969 C 277.832031 20.292969 278.144531 19.730469 278.144531 19.089844 L 278.144531 18.574219 L 277.894531 18.574219 L 277.894531 19.058594 C 277.894531 19.730469 277.613281 20.042969 277.300781 20.042969 C 276.691406 20.042969 276.691406 19.261719 276.691406 19.089844 Z M 276.691406 16.605469 "
     id="path150" />
  <path
     fill-rule="nonzero"
     fill="rgb(0%, 0%, 0%)"
     fill-opacity="1"
     d="M 282.902344 17.917969 C 282.902344 17.183594 282.902344 16.917969 282.652344 16.605469 C 282.449219 16.355469 282.105469 16.230469 281.652344 16.230469 C 281.058594 16.230469 280.605469 16.542969 280.339844 17.058594 L 280.324219 17.058594 L 280.324219 13.980469 L 278.996094 14.074219 L 278.996094 14.355469 C 279.605469 14.355469 279.683594 14.417969 279.683594 14.855469 L 279.683594 19.511719 C 279.683594 19.917969 279.589844 19.917969 278.996094 19.917969 L 278.996094 20.199219 C 279.417969 20.183594 279.589844 20.167969 280.027344 20.167969 C 280.449219 20.167969 280.574219 20.183594 281.042969 20.199219 L 281.042969 19.917969 C 280.449219 19.917969 280.355469 19.917969 280.355469 19.511719 L 280.355469 17.871094 C 280.355469 16.917969 281.027344 16.464844 281.589844 16.464844 C 282.121094 16.464844 282.230469 16.902344 282.230469 17.433594 L 282.230469 19.511719 C 282.230469 19.917969 282.136719 19.917969 281.542969 19.917969 L 281.542969 20.199219 C 281.964844 20.183594 282.136719 20.167969 282.574219 20.167969 C 282.996094 20.167969 283.121094 20.183594 283.589844 20.199219 L 283.589844 19.917969 C 283.136719 19.917969 282.902344 19.917969 282.902344 19.636719 Z M 282.902344 17.917969 "
     id="path152" />
  <path
     fill-rule="nonzero"
     fill="rgb(0%, 0%, 0%)"
     fill-opacity="1"
     d="M 290.230469 16.667969 C 290.042969 16.714844 289.855469 16.839844 289.855469 17.089844 C 289.855469 17.324219 290.042969 17.511719 290.277344 17.511719 C 290.511719 17.511719 290.699219 17.355469 290.699219 17.074219 C 290.699219 16.527344 290.074219 16.183594 289.277344 16.183594 C 288.136719 16.183594 287.277344 17.136719 287.277344 18.261719 C 287.277344 19.417969 288.199219 20.292969 289.261719 20.292969 C 290.511719 20.292969 290.792969 19.214844 290.792969 19.136719 C 290.792969 19.027344 290.699219 19.027344 290.667969 19.027344 C 290.574219 19.027344 290.574219 19.042969 290.511719 19.199219 C 290.308594 19.808594 289.808594 20.042969 289.355469 20.042969 C 288.777344 20.042969 288.042969 19.574219 288.042969 18.246094 C 288.042969 16.855469 288.761719 16.433594 289.292969 16.433594 C 289.417969 16.433594 289.902344 16.449219 290.230469 16.667969 Z M 290.230469 16.667969 "
     id="path154" />
  <path
     fill-rule="nonzero"
     fill="rgb(0%, 0%, 0%)"
     fill-opacity="1"
     d="M 294.640625 18.152344 C 294.828125 18.152344 294.875 18.152344 294.875 17.949219 C 294.875 17.027344 294.375 16.183594 293.21875 16.183594 C 292.15625 16.183594 291.3125 17.121094 291.3125 18.230469 C 291.3125 19.402344 292.25 20.292969 293.34375 20.292969 C 294.4375 20.292969 294.875 19.339844 294.875 19.136719 C 294.875 19.074219 294.828125 19.011719 294.75 19.011719 C 294.65625 19.011719 294.640625 19.074219 294.625 19.121094 C 294.328125 20.027344 293.515625 20.042969 293.390625 20.042969 C 292.953125 20.042969 292.59375 19.808594 292.390625 19.496094 C 292.09375 19.058594 292.078125 18.527344 292.078125 18.152344 Z M 292.09375 17.933594 C 292.171875 16.542969 292.96875 16.402344 293.21875 16.402344 C 293.71875 16.402344 294.25 16.777344 294.265625 17.933594 Z M 292.09375 17.933594 "
     id="path156" />
  <path
     fill-rule="nonzero"
     fill="rgb(0%, 0%, 0%)"
     fill-opacity="1"
     d="M 299.34375 17.917969 C 299.34375 17.183594 299.34375 16.917969 299.09375 16.605469 C 298.890625 16.355469 298.546875 16.230469 298.09375 16.230469 C 297.265625 16.230469 296.875 16.855469 296.75 17.105469 L 296.734375 17.105469 L 296.734375 16.230469 L 295.4375 16.339844 L 295.4375 16.605469 C 296.046875 16.605469 296.125 16.667969 296.125 17.121094 L 296.125 19.511719 C 296.125 19.917969 296.03125 19.917969 295.4375 19.917969 L 295.4375 20.199219 C 295.859375 20.183594 296.03125 20.167969 296.46875 20.167969 C 296.890625 20.167969 297.015625 20.183594 297.484375 20.199219 L 297.484375 19.917969 C 296.890625 19.917969 296.796875 19.917969 296.796875 19.511719 L 296.796875 17.871094 C 296.796875 16.917969 297.46875 16.464844 298.03125 16.464844 C 298.5625 16.464844 298.671875 16.902344 298.671875 17.433594 L 298.671875 19.511719 C 298.671875 19.917969 298.578125 19.917969 297.984375 19.917969 L 297.984375 20.199219 C 298.40625 20.183594 298.578125 20.167969 299.015625 20.167969 C 299.4375 20.167969 299.5625 20.183594 300.03125 20.199219 L 300.03125 19.917969 C 299.578125 19.917969 299.34375 19.917969 299.34375 19.636719 Z M 299.34375 17.917969 "
     id="path158" />
  <path
     fill-rule="nonzero"
     fill="rgb(0%, 0%, 0%)"
     fill-opacity="1"
     d="M 301.65625 16.605469 L 302.96875 16.605469 L 302.96875 16.339844 L 301.65625 16.339844 L 301.65625 14.683594 L 301.40625 14.683594 C 301.40625 15.433594 301.09375 16.355469 300.21875 16.386719 L 300.21875 16.605469 L 301 16.605469 L 301 19.089844 C 301 20.089844 301.71875 20.292969 302.203125 20.292969 C 302.796875 20.292969 303.109375 19.730469 303.109375 19.089844 L 303.109375 18.574219 L 302.859375 18.574219 L 302.859375 19.058594 C 302.859375 19.730469 302.578125 20.042969 302.265625 20.042969 C 301.65625 20.042969 301.65625 19.261719 301.65625 19.089844 Z M 301.65625 16.605469 "
     id="path160" />
  <path
     fill-rule="nonzero"
     fill="rgb(0%, 0%, 0%)"
     fill-opacity="1"
     d="M 306.507812 16.339844 L 306.507812 16.605469 C 307.117188 16.605469 307.195312 16.667969 307.195312 17.121094 L 307.195312 18.699219 C 307.195312 19.496094 306.757812 20.074219 306.101562 20.074219 C 305.367188 20.074219 305.320312 19.683594 305.320312 19.199219 L 305.320312 16.230469 L 303.960938 16.339844 L 303.960938 16.605469 C 304.648438 16.605469 304.648438 16.636719 304.648438 17.433594 L 304.648438 18.777344 C 304.648438 19.371094 304.648438 19.746094 305.070312 20.058594 C 305.320312 20.230469 305.695312 20.292969 306.054688 20.292969 C 306.523438 20.292969 306.960938 20.089844 307.210938 19.558594 L 307.226562 19.558594 L 307.226562 20.292969 L 308.554688 20.199219 L 308.554688 19.917969 C 307.945312 19.917969 307.867188 19.855469 307.867188 19.417969 L 307.867188 16.230469 Z M 306.507812 16.339844 "
     id="path162" />
  <path
     fill-rule="nonzero"
     fill="rgb(0%, 0%, 0%)"
     fill-opacity="1"
     d="M 310.402344 18.152344 C 310.402344 17.777344 310.496094 16.464844 311.527344 16.464844 C 311.511719 16.480469 311.371094 16.589844 311.371094 16.792969 C 311.371094 17.042969 311.558594 17.199219 311.761719 17.199219 C 311.949219 17.199219 312.152344 17.058594 312.152344 16.792969 C 312.152344 16.511719 311.886719 16.230469 311.480469 16.230469 C 310.949219 16.230469 310.574219 16.605469 310.355469 17.167969 L 310.355469 16.230469 L 309.074219 16.339844 L 309.074219 16.605469 C 309.683594 16.605469 309.761719 16.667969 309.761719 17.121094 L 309.761719 19.511719 C 309.761719 19.917969 309.667969 19.917969 309.074219 19.917969 L 309.074219 20.199219 C 309.558594 20.183594 309.667969 20.167969 310.121094 20.167969 C 310.480469 20.167969 310.699219 20.183594 311.261719 20.199219 L 311.261719 19.917969 L 311.089844 19.917969 C 310.433594 19.917969 310.402344 19.824219 310.402344 19.496094 Z M 310.402344 18.152344 "
     id="path164" />
  <path
     fill-rule="nonzero"
     fill="rgb(0%, 0%, 0%)"
     fill-opacity="1"
     d="M 316.238281 17.230469 C 316.332031 16.996094 316.503906 16.636719 317.066406 16.605469 L 317.066406 16.339844 C 316.785156 16.355469 316.503906 16.355469 316.394531 16.355469 C 316.144531 16.355469 315.863281 16.355469 315.613281 16.339844 L 315.613281 16.605469 C 316.019531 16.636719 316.019531 16.949219 316.019531 16.996094 C 316.019531 17.089844 315.988281 17.183594 315.957031 17.246094 L 315.050781 19.386719 L 314.035156 17.027344 C 313.988281 16.902344 313.988281 16.855469 313.988281 16.839844 C 313.988281 16.605469 314.300781 16.605469 314.488281 16.605469 L 314.488281 16.339844 C 314.035156 16.355469 313.863281 16.355469 313.488281 16.355469 C 313.457031 16.355469 312.941406 16.355469 312.597656 16.339844 L 312.597656 16.605469 C 313.003906 16.605469 313.175781 16.636719 313.285156 16.871094 L 314.691406 20.199219 C 314.597656 20.433594 314.550781 20.558594 314.472656 20.730469 C 314.269531 21.199219 314.019531 21.808594 313.425781 21.808594 C 313.207031 21.808594 313.050781 21.699219 313.035156 21.683594 C 313.097656 21.667969 313.347656 21.605469 313.347656 21.292969 C 313.347656 21.058594 313.175781 20.917969 312.972656 20.917969 C 312.753906 20.917969 312.582031 21.058594 312.582031 21.308594 C 312.582031 21.699219 312.972656 22.042969 313.425781 22.042969 C 314.019531 22.042969 314.394531 21.511719 314.613281 21.027344 Z M 316.238281 17.230469 "
     id="path166" />
  <path
     fill-rule="nonzero"
     fill="rgb(0%, 0%, 0%)"
     fill-opacity="1"
     d="M 253.433594 22.625 L 247.855469 22.625 L 247.855469 23.0625 L 248.824219 23.0625 L 248.824219 28.28125 L 247.855469 28.28125 L 247.855469 28.71875 C 248.167969 28.6875 249.152344 28.6875 249.527344 28.6875 C 249.949219 28.6875 250.964844 28.6875 251.339844 28.71875 L 251.339844 28.28125 L 250.121094 28.28125 L 250.121094 25.890625 L 250.605469 25.890625 C 251.480469 25.890625 251.558594 26.265625 251.558594 26.9375 L 252.011719 26.9375 L 252.011719 24.390625 L 251.558594 24.390625 C 251.558594 25.0625 251.480469 25.4375 250.605469 25.4375 L 250.121094 25.4375 L 250.121094 23.0625 L 251.449219 23.0625 C 252.886719 23.0625 253.105469 23.734375 253.246094 24.796875 L 253.699219 24.796875 Z M 253.433594 22.625 "
     id="path168" />
  <path
     fill-rule="nonzero"
     fill="rgb(0%, 0%, 0%)"
     fill-opacity="1"
     d="M 256.359375 23.1875 C 256.359375 22.734375 255.984375 22.484375 255.65625 22.484375 C 255.25 22.484375 254.953125 22.828125 254.953125 23.1875 C 254.953125 23.5625 255.25 23.890625 255.65625 23.890625 C 256 23.890625 256.359375 23.625 256.359375 23.1875 Z M 254.703125 24.75 L 254.703125 25.1875 C 255.21875 25.1875 255.28125 25.1875 255.28125 25.546875 L 255.28125 28.28125 L 254.671875 28.28125 L 254.671875 28.71875 C 255.265625 28.703125 255.390625 28.6875 255.765625 28.6875 C 256.203125 28.6875 256.3125 28.703125 256.828125 28.71875 L 256.828125 28.28125 L 256.28125 28.28125 L 256.28125 24.6875 Z M 254.703125 24.75 "
     id="path170" />
  <path
     fill-rule="nonzero"
     fill="rgb(0%, 0%, 0%)"
     fill-opacity="1"
     d="M 261.472656 26.796875 C 261.660156 26.796875 261.769531 26.796875 261.769531 26.546875 C 261.769531 26.34375 261.753906 25.546875 261.175781 25.0625 C 260.769531 24.734375 260.222656 24.65625 259.785156 24.65625 C 258.253906 24.65625 257.503906 25.625 257.503906 26.703125 C 257.503906 27.875 258.394531 28.765625 259.910156 28.765625 C 261.394531 28.765625 261.769531 27.828125 261.769531 27.671875 C 261.769531 27.5 261.597656 27.5 261.535156 27.5 C 261.378906 27.5 261.363281 27.546875 261.300781 27.671875 C 261.097656 28.140625 260.550781 28.390625 259.988281 28.390625 C 258.707031 28.390625 258.691406 27.234375 258.691406 26.796875 Z M 258.691406 26.46875 C 258.707031 26.0625 258.753906 25.015625 259.785156 25.015625 C 260.832031 25.015625 260.878906 26.109375 260.894531 26.46875 Z M 258.691406 26.46875 "
     id="path172" />
  <path
     fill-rule="nonzero"
     fill="rgb(0%, 0%, 0%)"
     fill-opacity="1"
     d="M 264.203125 22.5 L 262.59375 22.5625 L 262.59375 23 C 263.125 23 263.203125 23 263.203125 23.359375 L 263.203125 28.28125 L 262.59375 28.28125 L 262.59375 28.71875 C 263.203125 28.6875 263.3125 28.6875 263.6875 28.6875 C 264.09375 28.6875 264.328125 28.703125 264.8125 28.71875 L 264.8125 28.28125 L 264.203125 28.28125 Z M 264.203125 22.5 "
     id="path174" />
  <path
     fill-rule="nonzero"
     fill="rgb(0%, 0%, 0%)"
     fill-opacity="1"
     d="M 268.425781 22.5625 L 268.425781 23 C 268.972656 23 269.035156 23 269.035156 23.359375 L 269.035156 25.09375 C 268.644531 24.796875 268.222656 24.6875 267.785156 24.6875 C 266.332031 24.6875 265.472656 25.578125 265.472656 26.734375 C 265.472656 27.921875 266.316406 28.765625 267.691406 28.765625 C 268.253906 28.765625 268.691406 28.5625 268.988281 28.328125 L 268.988281 28.765625 L 270.644531 28.71875 L 270.644531 28.28125 C 270.113281 28.28125 270.035156 28.28125 270.035156 27.921875 L 270.035156 22.5 Z M 268.988281 27.734375 C 268.785156 28.0625 268.363281 28.40625 267.785156 28.40625 C 266.675781 28.40625 266.675781 27.34375 266.675781 26.75 C 266.675781 26.21875 266.675781 25.84375 266.910156 25.515625 C 267.144531 25.15625 267.582031 25.046875 267.894531 25.046875 C 268.332031 25.046875 268.707031 25.234375 268.988281 25.59375 Z M 268.988281 27.734375 "
     id="path176" />
  <path
     fill-rule="nonzero"
     fill="rgb(0%, 0%, 0%)"
     fill-opacity="1"
     d="M 279.363281 26.765625 C 279.363281 25.59375 278.535156 24.65625 277.019531 24.65625 C 275.441406 24.65625 274.660156 25.640625 274.660156 26.765625 C 274.660156 27.875 275.472656 28.765625 277.003906 28.765625 C 278.613281 28.765625 279.363281 27.828125 279.363281 26.765625 Z M 277.019531 28.390625 C 275.847656 28.390625 275.847656 27.4375 275.847656 26.671875 C 275.847656 25.90625 275.847656 25.015625 277.003906 25.015625 C 278.175781 25.015625 278.175781 25.90625 278.175781 26.671875 C 278.175781 27.4375 278.175781 28.390625 277.019531 28.390625 Z M 277.019531 28.390625 "
     id="path178" />
  <path
     fill-rule="nonzero"
     fill="rgb(0%, 0%, 0%)"
     fill-opacity="1"
     d="M 281.726562 25.171875 L 282.789062 25.171875 L 282.789062 24.734375 L 281.679688 24.734375 L 281.679688 23.84375 C 281.679688 22.875 282.367188 22.796875 282.601562 22.796875 C 282.632812 22.796875 282.710938 22.796875 282.710938 22.8125 C 282.710938 22.828125 282.710938 22.828125 282.695312 22.859375 C 282.601562 22.96875 282.554688 23.09375 282.554688 23.234375 C 282.554688 23.609375 282.851562 23.8125 283.117188 23.8125 C 283.414062 23.8125 283.695312 23.59375 283.695312 23.234375 C 283.695312 22.828125 283.335938 22.4375 282.648438 22.4375 C 281.695312 22.4375 280.726562 22.84375 280.726562 23.84375 L 280.726562 24.734375 L 280.039062 24.734375 L 280.039062 25.171875 L 280.726562 25.171875 L 280.726562 28.28125 L 280.117188 28.28125 L 280.117188 28.71875 C 280.789062 28.6875 280.835938 28.6875 281.273438 28.6875 C 281.492188 28.6875 282.023438 28.6875 282.492188 28.71875 L 282.492188 28.28125 L 281.726562 28.28125 Z M 281.726562 25.171875 "
     id="path180" />
  <path
     fill-rule="nonzero"
     fill="rgb(0%, 0%, 0%)"
     fill-opacity="1"
     d="M 290.757812 26.796875 C 290.945312 26.796875 291.054688 26.796875 291.054688 26.546875 C 291.054688 26.34375 291.039062 25.546875 290.460938 25.0625 C 290.054688 24.734375 289.507812 24.65625 289.070312 24.65625 C 287.539062 24.65625 286.789062 25.625 286.789062 26.703125 C 286.789062 27.875 287.679688 28.765625 289.195312 28.765625 C 290.679688 28.765625 291.054688 27.828125 291.054688 27.671875 C 291.054688 27.5 290.882812 27.5 290.820312 27.5 C 290.664062 27.5 290.648438 27.546875 290.585938 27.671875 C 290.382812 28.140625 289.835938 28.390625 289.273438 28.390625 C 287.992188 28.390625 287.976562 27.234375 287.976562 26.796875 Z M 287.976562 26.46875 C 287.992188 26.0625 288.039062 25.015625 289.070312 25.015625 C 290.117188 25.015625 290.164062 26.109375 290.179688 26.46875 Z M 287.976562 26.46875 "
     id="path182" />
  <path
     fill-rule="nonzero"
     fill="rgb(0%, 0%, 0%)"
     fill-opacity="1"
     d="M 294.617188 26.515625 L 295.726562 25.34375 C 295.820312 25.234375 295.882812 25.171875 296.601562 25.171875 L 296.601562 24.734375 C 296.289062 24.765625 296.054688 24.765625 295.757812 24.765625 C 295.601562 24.765625 295.257812 24.765625 294.851562 24.734375 L 294.851562 25.171875 C 295.039062 25.171875 295.085938 25.21875 295.148438 25.28125 L 294.320312 26.1875 L 293.429688 25.171875 L 293.757812 25.171875 L 293.757812 24.734375 C 293.210938 24.75 292.976562 24.765625 292.679688 24.765625 C 292.492188 24.765625 292.148438 24.765625 291.695312 24.734375 L 291.695312 25.171875 L 292.320312 25.171875 L 293.742188 26.796875 L 292.539062 28.109375 C 292.367188 28.28125 292.054688 28.28125 291.648438 28.28125 L 291.648438 28.71875 C 291.945312 28.6875 292.179688 28.6875 292.476562 28.6875 C 292.648438 28.6875 292.992188 28.6875 293.398438 28.71875 L 293.398438 28.28125 C 293.257812 28.28125 293.101562 28.25 293.101562 28.1875 C 293.101562 28.140625 293.164062 28.09375 293.179688 28.078125 L 294.054688 27.140625 L 295.039062 28.28125 L 294.726562 28.28125 L 294.726562 28.71875 C 295.304688 28.703125 295.507812 28.6875 295.804688 28.6875 C 296.007812 28.6875 296.335938 28.6875 296.789062 28.71875 L 296.789062 28.28125 L 296.164062 28.28125 Z M 294.617188 26.515625 "
     id="path184" />
  <path
     fill-rule="nonzero"
     fill="rgb(0%, 0%, 0%)"
     fill-opacity="1"
     d="M 299.695312 30.015625 L 299.085938 30.015625 L 299.085938 28.375 C 299.617188 28.765625 300.101562 28.765625 300.273438 28.765625 C 301.679688 28.765625 302.585938 27.921875 302.585938 26.734375 C 302.585938 25.546875 301.773438 24.6875 300.414062 24.6875 C 299.695312 24.6875 299.195312 24.984375 299.023438 25.109375 L 299.023438 24.6875 L 297.429688 24.75 L 297.429688 25.1875 C 297.601562 25.1875 297.742188 25.1875 297.867188 25.21875 C 298.039062 25.25 298.039062 25.34375 298.039062 25.53125 L 298.039062 30.015625 L 297.429688 30.015625 L 297.429688 30.453125 C 298.085938 30.4375 298.195312 30.4375 298.554688 30.4375 C 298.914062 30.4375 299.007812 30.4375 299.695312 30.453125 Z M 299.085938 25.625 C 299.242188 25.421875 299.664062 25.0625 300.273438 25.0625 C 300.898438 25.0625 301.398438 25.625 301.398438 26.71875 C 301.398438 27.96875 300.757812 28.40625 300.164062 28.40625 C 299.710938 28.40625 299.320312 28.15625 299.085938 27.78125 Z M 299.085938 25.625 "
     id="path186" />
  <path
     fill-rule="nonzero"
     fill="rgb(0%, 0%, 0%)"
     fill-opacity="1"
     d="M 307.4375 26.796875 C 307.625 26.796875 307.734375 26.796875 307.734375 26.546875 C 307.734375 26.34375 307.71875 25.546875 307.140625 25.0625 C 306.734375 24.734375 306.1875 24.65625 305.75 24.65625 C 304.21875 24.65625 303.46875 25.625 303.46875 26.703125 C 303.46875 27.875 304.359375 28.765625 305.875 28.765625 C 307.359375 28.765625 307.734375 27.828125 307.734375 27.671875 C 307.734375 27.5 307.5625 27.5 307.5 27.5 C 307.34375 27.5 307.328125 27.546875 307.265625 27.671875 C 307.0625 28.140625 306.515625 28.390625 305.953125 28.390625 C 304.671875 28.390625 304.65625 27.234375 304.65625 26.796875 Z M 304.65625 26.46875 C 304.671875 26.0625 304.71875 25.015625 305.75 25.015625 C 306.796875 25.015625 306.84375 26.109375 306.859375 26.46875 Z M 304.65625 26.46875 "
     id="path188" />
  <path
     fill-rule="nonzero"
     fill="rgb(0%, 0%, 0%)"
     fill-opacity="1"
     d="M 310.0625 26.765625 C 310.0625 26.109375 310.3125 25.0625 311.171875 25.046875 C 311.078125 25.140625 311.03125 25.296875 311.03125 25.4375 C 311.03125 25.828125 311.34375 26.015625 311.59375 26.015625 C 311.890625 26.015625 312.171875 25.8125 312.171875 25.4375 C 312.171875 24.984375 311.703125 24.6875 311.171875 24.6875 C 310.546875 24.6875 310.171875 25.140625 309.96875 25.65625 L 309.953125 25.65625 L 309.953125 24.6875 L 308.46875 24.75 L 308.46875 25.1875 C 309 25.1875 309.078125 25.1875 309.078125 25.546875 L 309.078125 28.28125 L 308.46875 28.28125 L 308.46875 28.71875 C 309.125 28.6875 309.171875 28.6875 309.609375 28.6875 C 309.828125 28.6875 310.359375 28.6875 310.828125 28.71875 L 310.828125 28.28125 L 310.0625 28.28125 Z M 310.0625 26.765625 "
     id="path190" />
  <path
     fill-rule="nonzero"
     fill="rgb(0%, 0%, 0%)"
     fill-opacity="1"
     d="M 314.570312 23.1875 C 314.570312 22.734375 314.195312 22.484375 313.867188 22.484375 C 313.460938 22.484375 313.164062 22.828125 313.164062 23.1875 C 313.164062 23.5625 313.460938 23.890625 313.867188 23.890625 C 314.210938 23.890625 314.570312 23.625 314.570312 23.1875 Z M 312.914062 24.75 L 312.914062 25.1875 C 313.429688 25.1875 313.492188 25.1875 313.492188 25.546875 L 313.492188 28.28125 L 312.882812 28.28125 L 312.882812 28.71875 C 313.476562 28.703125 313.601562 28.6875 313.976562 28.6875 C 314.414062 28.6875 314.523438 28.703125 315.039062 28.71875 L 315.039062 28.28125 L 314.492188 28.28125 L 314.492188 24.6875 Z M 312.914062 24.75 "
     id="path192" />
  <path
     fill-rule="nonzero"
     fill="rgb(0%, 0%, 0%)"
     fill-opacity="1"
     d="M 319.679688 26.796875 C 319.867188 26.796875 319.976562 26.796875 319.976562 26.546875 C 319.976562 26.34375 319.960938 25.546875 319.382812 25.0625 C 318.976562 24.734375 318.429688 24.65625 317.992188 24.65625 C 316.460938 24.65625 315.710938 25.625 315.710938 26.703125 C 315.710938 27.875 316.601562 28.765625 318.117188 28.765625 C 319.601562 28.765625 319.976562 27.828125 319.976562 27.671875 C 319.976562 27.5 319.804688 27.5 319.742188 27.5 C 319.585938 27.5 319.570312 27.546875 319.507812 27.671875 C 319.304688 28.140625 318.757812 28.390625 318.195312 28.390625 C 316.914062 28.390625 316.898438 27.234375 316.898438 26.796875 Z M 316.898438 26.46875 C 316.914062 26.0625 316.960938 25.015625 317.992188 25.015625 C 319.039062 25.015625 319.085938 26.109375 319.101562 26.46875 Z M 316.898438 26.46875 "
     id="path194" />
  <path
     fill-rule="nonzero"
     fill="rgb(0%, 0%, 0%)"
     fill-opacity="1"
     d="M 325.382812 25.984375 C 325.382812 24.921875 324.726562 24.6875 323.945312 24.6875 C 322.851562 24.6875 322.414062 25.484375 322.351562 25.625 L 322.335938 25.625 L 322.335938 24.6875 L 320.789062 24.75 L 320.789062 25.1875 C 321.320312 25.1875 321.398438 25.1875 321.398438 25.546875 L 321.398438 28.28125 L 320.789062 28.28125 L 320.789062 28.71875 C 321.445312 28.6875 321.554688 28.6875 321.914062 28.6875 C 322.289062 28.6875 322.367188 28.6875 323.054688 28.71875 L 323.054688 28.28125 L 322.445312 28.28125 L 322.445312 26.4375 C 322.445312 25.4375 323.273438 25.046875 323.804688 25.046875 C 324.148438 25.046875 324.320312 25.234375 324.320312 25.90625 L 324.320312 28.28125 L 323.710938 28.28125 L 323.710938 28.71875 C 324.382812 28.6875 324.492188 28.6875 324.851562 28.6875 C 325.210938 28.6875 325.304688 28.6875 325.992188 28.71875 L 325.992188 28.28125 L 325.382812 28.28125 Z M 325.382812 25.984375 "
     id="path196" />
  <path
     fill-rule="nonzero"
     fill="rgb(0%, 0%, 0%)"
     fill-opacity="1"
     d="M 330.617188 27.671875 C 330.617188 27.53125 330.492188 27.53125 330.382812 27.53125 C 330.210938 27.53125 330.210938 27.546875 330.132812 27.703125 C 329.960938 28.140625 329.554688 28.390625 329.023438 28.390625 C 327.757812 28.390625 327.757812 27.09375 327.757812 26.6875 C 327.757812 26.15625 327.757812 25.046875 328.929688 25.046875 C 329.007812 25.046875 329.492188 25.046875 329.492188 25.09375 C 329.492188 25.109375 329.460938 25.125 329.460938 25.140625 C 329.382812 25.234375 329.335938 25.375 329.335938 25.515625 C 329.335938 25.875 329.617188 26.09375 329.929688 26.09375 C 330.195312 26.09375 330.507812 25.90625 330.507812 25.5 C 330.507812 24.65625 329.257812 24.65625 328.898438 24.65625 C 327.179688 24.65625 326.554688 25.75 326.554688 26.734375 C 326.554688 27.859375 327.367188 28.765625 328.851562 28.765625 C 329.195312 28.765625 329.632812 28.71875 330.007812 28.484375 C 330.523438 28.171875 330.617188 27.703125 330.617188 27.671875 Z M 330.617188 27.671875 "
     id="path198" />
  <path
     fill-rule="nonzero"
     fill="rgb(0%, 0%, 0%)"
     fill-opacity="1"
     d="M 335.160156 26.796875 C 335.347656 26.796875 335.457031 26.796875 335.457031 26.546875 C 335.457031 26.34375 335.441406 25.546875 334.863281 25.0625 C 334.457031 24.734375 333.910156 24.65625 333.472656 24.65625 C 331.941406 24.65625 331.191406 25.625 331.191406 26.703125 C 331.191406 27.875 332.082031 28.765625 333.597656 28.765625 C 335.082031 28.765625 335.457031 27.828125 335.457031 27.671875 C 335.457031 27.5 335.285156 27.5 335.222656 27.5 C 335.066406 27.5 335.050781 27.546875 334.988281 27.671875 C 334.785156 28.140625 334.238281 28.390625 333.675781 28.390625 C 332.394531 28.390625 332.378906 27.234375 332.378906 26.796875 Z M 332.378906 26.46875 C 332.394531 26.0625 332.441406 25.015625 333.472656 25.015625 C 334.519531 25.015625 334.566406 26.109375 334.582031 26.46875 Z M 332.378906 26.46875 "
     id="path200" />
  <text
     xml:space="preserve"
     style="font-style:normal;font-variant:normal;font-weight:normal;font-stretch:normal;font-size:9.33333px;font-family:IPAmjMincho;-inkscape-font-specification:'IPAmjMincho, Normal';font-variant-ligatures:normal;font-variant-caps:normal;font-variant-numeric:normal;font-variant-east-asian:normal;fill:#000000;stroke-dasharray:none;stroke-dashoffset:0"
     x="293.72757"
     y="54.920124"
     id="text1097"><tspan
       sodipodi:role="line"
       id="tspan1095"
       x="293.72757"
       y="54.920124">expert reader</tspan></text>
</svg>
